AfacadFlux-BoldBackslant.ufo
<glyph name="exclam" format="2">
  <advance width="480"/>
  <unicode hex="0021"/>
  <outline>
    <contour>
      <point x="168" y="330" type="line"/>
      <point x="300" y="330" type="line"/>
      <point x="192" y="900" type="line"/>
      <point x="-12" y="900" type="line"/>
    </contour>
    <contour>
      <point x="306" y="-20" type="curve" smooth="yes"/>
      <point x="356" y="-20"/>
      <point x="398" y="19"/>
      <point x="398" y="73" type="curve" smooth="yes"/>
      <point x="398" y="135"/>
      <point x="343" y="190"/>
      <point x="280" y="190" type="curve" smooth="yes"/>
      <point x="227" y="190"/>
      <point x="188" y="150"/>
      <point x="188" y="98" type="curve" smooth="yes"/>
      <point x="188" y="35"/>
      <point x="243" y="-20"/>
    </contour>
  </outline>
</glyph>
<glyph name="numbersign" format="2">
  <advance width="750"/>
  <unicode hex="0023"/>
  <outline>
    <contour>
      <point x="301" y="0" type="line"/>
      <point x="445" y="0" type="line"/>
      <point x="358" y="210" type="line"/>
      <point x="516" y="210" type="line"/>
      <point x="603" y="0" type="line"/>
      <point x="747" y="0" type="line"/>
      <point x="660" y="210" type="line"/>
      <point x="758" y="210" type="line"/>
      <point x="704" y="342" type="line"/>
      <point x="606" y="342" type="line"/>
      <point x="516" y="558" type="line"/>
      <point x="618" y="558" type="line"/>
      <point x="564" y="690" type="line"/>
      <point x="462" y="690" type="line"/>
      <point x="375" y="900" type="line"/>
      <point x="231" y="900" type="line"/>
      <point x="318" y="690" type="line"/>
      <point x="160" y="690" type="line"/>
      <point x="73" y="900" type="line"/>
      <point x="-71" y="900" type="line"/>
      <point x="16" y="690" type="line"/>
      <point x="-84" y="690" type="line"/>
      <point x="-30" y="558" type="line"/>
      <point x="70" y="558" type="line"/>
      <point x="160" y="342" type="line"/>
      <point x="56" y="342" type="line"/>
      <point x="110" y="210" type="line"/>
      <point x="214" y="210" type="line"/>
    </contour>
    <contour>
      <point x="299" y="334" type="line"/>
      <point x="203" y="566" type="line"/>
      <point x="377" y="566" type="line"/>
      <point x="473" y="334" type="line"/>
    </contour>
  </outline>
</glyph>
<glyph name="dollar" format="2">
  <advance width="750"/>
  <unicode hex="0024"/>
  <outline>
    <contour>
      <point x="441" y="-120" type="line"/>
      <point x="549" y="-120" type="line"/>
      <point x="519" y="-1" type="line"/>
      <point x="617" y="34"/>
      <point x="678" y="118"/>
      <point x="678" y="231" type="curve" smooth="yes"/>
      <point x="678" y="368"/>
      <point x="589" y="475"/>
      <point x="432" y="527" type="curve" smooth="yes"/>
      <point x="305" y="569" type="line" smooth="yes"/>
      <point x="231" y="593"/>
      <point x="194" y="630"/>
      <point x="194" y="678" type="curve" smooth="yes"/>
      <point x="194" y="728"/>
      <point x="234" y="760"/>
      <point x="297" y="760" type="curve" smooth="yes"/>
      <point x="358" y="760"/>
      <point x="432" y="728"/>
      <point x="504" y="668" type="curve"/>
      <point x="504" y="865" type="line"/>
      <point x="430" y="902"/>
      <point x="360" y="920"/>
      <point x="289" y="920" type="curve"/>
      <point x="271" y="990" type="line"/>
      <point x="163" y="990" type="line"/>
      <point x="185" y="905" type="line"/>
      <point x="84" y="874"/>
      <point x="23" y="796"/>
      <point x="23" y="690" type="curve" smooth="yes"/>
      <point x="23" y="562"/>
      <point x="109" y="460"/>
      <point x="260" y="410" type="curve" smooth="yes"/>
      <point x="386" y="368" type="line" smooth="yes"/>
      <point x="465" y="342"/>
      <point x="508" y="296"/>
      <point x="508" y="238" type="curve" smooth="yes"/>
      <point x="508" y="180"/>
      <point x="463" y="142"/>
      <point x="394" y="142" type="curve" smooth="yes"/>
      <point x="317" y="142"/>
      <point x="220" y="189"/>
      <point x="155" y="258" type="curve"/>
      <point x="155" y="55" type="line"/>
      <point x="230" y="7"/>
      <point x="320" y="-20"/>
      <point x="415" y="-20" type="curve"/>
    </contour>
  </outline>
</glyph>
<glyph name="ampersand" format="2">
  <advance width="800"/>
  <unicode hex="0026"/>
  <outline>
    <contour>
      <point x="391" y="-18" type="curve" smooth="yes"/>
      <point x="475" y="-18"/>
      <point x="546" y="10"/>
      <point x="603" y="50" type="curve"/>
      <point x="650" y="0" type="line"/>
      <point x="866" y="0" type="line"/>
      <point x="712" y="161" type="line"/>
      <point x="750" y="215"/>
      <point x="772" y="269"/>
      <point x="779" y="307" type="curve"/>
      <point x="633" y="444" type="line"/>
      <point x="640" y="391"/>
      <point x="626" y="332"/>
      <point x="599" y="280" type="curve"/>
      <point x="388" y="501" type="line"/>
      <point x="403" y="513" type="line" smooth="yes"/>
      <point x="434" y="538"/>
      <point x="511" y="592"/>
      <point x="511" y="685" type="curve" smooth="yes"/>
      <point x="511" y="814"/>
      <point x="376" y="918"/>
      <point x="245" y="918" type="curve" smooth="yes"/>
      <point x="135" y="918"/>
      <point x="36" y="839"/>
      <point x="36" y="722" type="curve" smooth="yes"/>
      <point x="36" y="651"/>
      <point x="66" y="586"/>
      <point x="145" y="518" type="curve" smooth="yes"/>
      <point x="152" y="512" type="line"/>
      <point x="86" y="455"/>
      <point x="49" y="385"/>
      <point x="49" y="304" type="curve" smooth="yes"/>
      <point x="49" y="123"/>
      <point x="205" y="-18"/>
    </contour>
    <contour>
      <point x="394" y="132" type="curve" smooth="yes"/>
      <point x="278" y="132"/>
      <point x="217" y="231"/>
      <point x="217" y="310" type="curve" smooth="yes"/>
      <point x="217" y="355"/>
      <point x="240" y="388"/>
      <point x="263" y="410" type="curve"/>
      <point x="496" y="163" type="line"/>
      <point x="465" y="144"/>
      <point x="430" y="132"/>
    </contour>
    <contour>
      <point x="279" y="600" type="line"/>
      <point x="249" y="629" type="line" smooth="yes"/>
      <point x="217" y="660"/>
      <point x="194" y="684"/>
      <point x="194" y="721" type="curve" smooth="yes"/>
      <point x="194" y="757"/>
      <point x="219" y="787"/>
      <point x="262" y="787" type="curve" smooth="yes"/>
      <point x="308" y="787"/>
      <point x="349" y="747"/>
      <point x="349" y="698" type="curve" smooth="yes"/>
      <point x="349" y="657"/>
      <point x="318" y="632"/>
      <point x="304" y="620" type="curve" smooth="yes"/>
    </contour>
  </outline>
</glyph>
<glyph name="quotesingle" format="2">
  <advance width="300"/>
  <unicode hex="0027"/>
  <outline>
    <contour>
      <point x="42" y="540" type="line"/>
      <point x="150" y="540" type="line"/>
      <point x="102" y="900" type="line"/>
      <point x="-90" y="900" type="line"/>
    </contour>
  </outline>
</glyph>
<glyph name="parenleft" format="2">
  <advance width="480"/>
  <unicode hex="0028"/>
  <outline>
    <contour>
      <point x="366" y="-180" type="curve"/>
      <point x="560" y="-180" type="line"/>
      <point x="318" y="45"/>
      <point x="196" y="355"/>
      <point x="196" y="633" type="curve" smooth="yes"/>
      <point x="196" y="749"/>
      <point x="217" y="859"/>
      <point x="258" y="960" type="curve"/>
      <point x="93" y="960" type="line"/>
      <point x="55" y="855"/>
      <point x="35" y="742"/>
      <point x="35" y="624" type="curve" smooth="yes"/>
      <point x="35" y="340"/>
      <point x="153" y="50"/>
    </contour>
  </outline>
</glyph>
<glyph name="parenright" format="2">
  <advance width="480"/>
  <unicode hex="0029"/>
  <outline>
    <contour>
      <point x="177" y="-180" type="curve"/>
      <point x="342" y="-180" type="line"/>
      <point x="380" y="-75"/>
      <point x="400" y="38"/>
      <point x="400" y="156" type="curve" smooth="yes"/>
      <point x="400" y="440"/>
      <point x="282" y="730"/>
      <point x="69" y="960" type="curve"/>
      <point x="-125" y="960" type="line"/>
      <point x="117" y="735"/>
      <point x="239" y="425"/>
      <point x="239" y="147" type="curve" smooth="yes"/>
      <point x="239" y="31"/>
      <point x="218" y="-79"/>
    </contour>
  </outline>
</glyph>
<glyph name="asterisk" format="2">
  <advance width="600"/>
  <unicode hex="002A"/>
  <outline>
    <contour>
      <point x="180" y="388" type="line"/>
      <point x="232" y="556" type="line"/>
      <point x="362" y="411" type="line"/>
      <point x="454" y="508" type="line"/>
      <point x="300" y="628" type="line"/>
      <point x="468" y="688" type="line"/>
      <point x="391" y="817" type="line"/>
      <point x="244" y="723" type="line"/>
      <point x="220" y="900" type="line"/>
      <point x="76" y="900" type="line"/>
      <point x="140" y="710" type="line"/>
      <point x="-42" y="764" type="line"/>
      <point x="-54" y="624" type="line"/>
      <point x="134" y="608" type="line"/>
      <point x="46" y="458" type="line"/>
    </contour>
  </outline>
</glyph>
<glyph name="plus" format="2">
  <advance width="750"/>
  <unicode hex="002B"/>
  <outline>
    <contour>
      <point x="347" y="125" type="line"/>
      <point x="491" y="125" type="line"/>
      <point x="427" y="381" type="line"/>
      <point x="680" y="381" type="line"/>
      <point x="646" y="519" type="line"/>
      <point x="393" y="519" type="line"/>
      <point x="329" y="775" type="line"/>
      <point x="185" y="775" type="line"/>
      <point x="249" y="519" type="line"/>
      <point x="-4" y="519" type="line"/>
      <point x="30" y="381" type="line"/>
      <point x="283" y="381" type="line"/>
    </contour>
  </outline>
</glyph>
<glyph name="comma" format="2">
  <advance width="300"/>
  <unicode hex="002C"/>
  <outline>
    <contour>
      <point x="144" y="-180" type="curve"/>
      <point x="303" y="-180" type="line"/>
      <point x="331" y="-60"/>
      <point x="317" y="65"/>
      <point x="264" y="180" type="curve"/>
      <point x="96" y="180" type="line"/>
      <point x="158" y="62"/>
      <point x="172" y="-57"/>
    </contour>
  </outline>
</glyph>
<glyph name="period" format="2">
  <advance width="300"/>
  <unicode hex="002E"/>
  <outline>
    <contour>
      <point x="216" y="-20" type="curve" smooth="yes"/>
      <point x="268" y="-20"/>
      <point x="311" y="20"/>
      <point x="311" y="76" type="curve" smooth="yes"/>
      <point x="311" y="139"/>
      <point x="254" y="196"/>
      <point x="190" y="196" type="curve" smooth="yes"/>
      <point x="135" y="196"/>
      <point x="95" y="155"/>
      <point x="95" y="101" type="curve" smooth="yes"/>
      <point x="95" y="37"/>
      <point x="152" y="-20"/>
    </contour>
  </outline>
</glyph>
<glyph name="slash" format="2">
  <advance width="520"/>
  <unicode hex="002F"/>
  <outline>
    <contour>
      <point x="30" y="-180" type="line"/>
      <point x="169" y="-180" type="line"/>
      <point x="446" y="960" type="line"/>
      <point x="306" y="960" type="line"/>
    </contour>
  </outline>
</glyph>
<glyph name="zero" format="2">
  <advance width="750"/>
  <unicode hex="0030"/>
  <outline>
    <contour>
      <point x="429" y="-20" type="curve" smooth="yes"/>
      <point x="584" y="-20"/>
      <point x="680" y="112"/>
      <point x="680" y="323" type="curve" smooth="yes"/>
      <point x="680" y="634"/>
      <point x="474" y="920"/>
      <point x="249" y="920" type="curve" smooth="yes"/>
      <point x="94" y="920"/>
      <point x="-6" y="786"/>
      <point x="-6" y="576" type="curve" smooth="yes"/>
      <point x="-6" y="268"/>
      <point x="204" y="-20"/>
    </contour>
    <contour>
      <point x="402" y="142" type="curve" smooth="yes"/>
      <point x="291" y="142"/>
      <point x="172" y="371"/>
      <point x="172" y="583" type="curve" smooth="yes"/>
      <point x="172" y="695"/>
      <point x="206" y="758"/>
      <point x="266" y="758" type="curve" smooth="yes"/>
      <point x="378" y="758"/>
      <point x="502" y="531"/>
      <point x="502" y="324" type="curve" smooth="yes"/>
      <point x="502" y="211"/>
      <point x="464" y="142"/>
    </contour>
  </outline>
</glyph>
<glyph name="one" format="2">
  <advance width="750"/>
  <unicode hex="0031"/>
  <outline>
    <contour>
      <point x="225" y="0" type="line"/>
      <point x="735" y="0" type="line"/>
      <point x="699" y="144" type="line"/>
      <point x="549" y="144" type="line"/>
      <point x="353" y="932" type="line"/>
      <point x="351" y="932" type="line"/>
      <point x="38" y="752" type="line"/>
      <point x="76" y="598" type="line"/>
      <point x="242" y="695" type="line"/>
      <point x="379" y="144" type="line"/>
      <point x="189" y="144" type="line"/>
    </contour>
  </outline>
</glyph>
<glyph name="two" format="2">
  <advance width="750"/>
  <unicode hex="0032"/>
  <outline>
    <contour>
      <point x="151" y="0" type="line"/>
      <point x="741" y="0" type="line"/>
      <point x="700" y="162" type="line"/>
      <point x="400" y="162" type="line"/>
      <point x="536" y="481" type="line" smooth="yes"/>
      <point x="559" y="535"/>
      <point x="569" y="577"/>
      <point x="569" y="618" type="curve" smooth="yes"/>
      <point x="569" y="777"/>
      <point x="414" y="920"/>
      <point x="243" y="920" type="curve" smooth="yes"/>
      <point x="94" y="920"/>
      <point x="-20" y="811"/>
      <point x="-20" y="669" type="curve" smooth="yes"/>
      <point x="-20" y="615"/>
      <point x="-4" y="565"/>
      <point x="28" y="518" type="curve"/>
      <point x="226" y="518" type="line"/>
      <point x="179" y="551"/>
      <point x="150" y="602"/>
      <point x="150" y="652" type="curve" smooth="yes"/>
      <point x="150" y="713"/>
      <point x="196" y="758"/>
      <point x="259" y="758" type="curve" smooth="yes"/>
      <point x="332" y="758"/>
      <point x="395" y="695"/>
      <point x="395" y="622" type="curve" smooth="yes"/>
      <point x="395" y="592"/>
      <point x="385" y="551"/>
      <point x="370" y="515" type="curve" smooth="yes"/>
      <point x="151" y="2" type="line"/>
    </contour>
  </outline>
</glyph>
<glyph name="three" format="2">
  <advance width="750"/>
  <unicode hex="0033"/>
  <outline>
    <contour>
      <point x="357" y="-20" type="curve" smooth="yes"/>
      <point x="524" y="-20"/>
      <point x="655" y="104"/>
      <point x="655" y="262" type="curve" smooth="yes"/>
      <point x="655" y="413"/>
      <point x="537" y="556"/>
      <point x="382" y="592" type="curve"/>
      <point x="474" y="898" type="line"/>
      <point x="474" y="900" type="line"/>
      <point x="-42" y="900" type="line"/>
      <point x="-3" y="744" type="line"/>
      <point x="266" y="744" type="line"/>
      <point x="176" y="414" type="line"/>
      <point x="177" y="413" type="line"/>
      <point x="218" y="444"/>
      <point x="259" y="458"/>
      <point x="301" y="458" type="curve" smooth="yes"/>
      <point x="401" y="458"/>
      <point x="483" y="376"/>
      <point x="483" y="282" type="curve" smooth="yes"/>
      <point x="483" y="201"/>
      <point x="421" y="142"/>
      <point x="339" y="142" type="curve" smooth="yes"/>
      <point x="259" y="142"/>
      <point x="178" y="198"/>
      <point x="139" y="279" type="curve"/>
      <point x="88" y="94" type="line"/>
      <point x="156" y="24"/>
      <point x="258" y="-20"/>
    </contour>
  </outline>
</glyph>
<glyph name="five" format="2">
  <advance width="750"/>
  <unicode hex="0035"/>
  <outline>
    <contour>
      <point x="357" y="-20" type="curve" smooth="yes"/>
      <point x="524" y="-20"/>
      <point x="655" y="104"/>
      <point x="655" y="262" type="curve" smooth="yes"/>
      <point x="655" y="446"/>
      <point x="495" y="606"/>
      <point x="313" y="606" type="curve" smooth="yes"/>
      <point x="290" y="606"/>
      <point x="254" y="603"/>
      <point x="233" y="593" type="curve"/>
      <point x="195" y="744" type="line"/>
      <point x="483" y="744" type="line"/>
      <point x="444" y="900" type="line"/>
      <point x="12" y="900" type="line"/>
      <point x="144" y="370" type="line"/>
      <point x="146" y="370" type="line"/>
      <point x="179" y="421"/>
      <point x="231" y="458"/>
      <point x="301" y="458" type="curve" smooth="yes"/>
      <point x="405" y="458"/>
      <point x="483" y="375"/>
      <point x="483" y="282" type="curve" smooth="yes"/>
      <point x="483" y="201"/>
      <point x="421" y="142"/>
      <point x="339" y="142" type="curve" smooth="yes"/>
      <point x="259" y="142"/>
      <point x="178" y="198"/>
      <point x="139" y="279" type="curve"/>
      <point x="88" y="94" type="line"/>
      <point x="156" y="24"/>
      <point x="258" y="-20"/>
    </contour>
  </outline>
</glyph>
<glyph name="six" format="2">
  <advance width="750"/>
  <unicode hex="0036"/>
  <outline>
    <contour>
      <point x="427" y="-20" type="curve" smooth="yes"/>
      <point x="593" y="-20"/>
      <point x="719" y="101"/>
      <point x="719" y="261" type="curve" smooth="yes"/>
      <point x="719" y="443"/>
      <point x="555" y="606"/>
      <point x="372" y="606" type="curve" smooth="yes"/>
      <point x="343" y="606"/>
      <point x="314" y="602"/>
      <point x="293" y="595" type="curve"/>
      <point x="381" y="900" type="line"/>
      <point x="207" y="900" type="line"/>
      <point x="78" y="416" type="line" smooth="yes"/>
      <point x="70" y="386"/>
      <point x="66" y="357"/>
      <point x="66" y="329" type="curve" smooth="yes"/>
      <point x="66" y="144"/>
      <point x="235" y="-20"/>
    </contour>
    <contour>
      <point x="409" y="142" type="curve" smooth="yes"/>
      <point x="320" y="142"/>
      <point x="236" y="227"/>
      <point x="236" y="319" type="curve" smooth="yes"/>
      <point x="236" y="396"/>
      <point x="295" y="456"/>
      <point x="372" y="456" type="curve" smooth="yes"/>
      <point x="463" y="456"/>
      <point x="547" y="372"/>
      <point x="547" y="279" type="curve" smooth="yes"/>
      <point x="547" y="202"/>
      <point x="487" y="142"/>
    </contour>
  </outline>
</glyph>
<glyph name="seven" format="2">
  <advance width="750"/>
  <unicode hex="0037"/>
  <outline>
    <contour>
      <point x="179" y="0" type="line"/>
      <point x="356" y="0" type="line"/>
      <point x="576" y="898" type="line"/>
      <point x="576" y="900" type="line"/>
      <point x="-77" y="900" type="line"/>
      <point x="-37" y="738" type="line"/>
      <point x="359" y="738" type="line"/>
    </contour>
  </outline>
</glyph>
<glyph name="nine" format="2">
  <advance width="750"/>
  <unicode hex="0039"/>
  <outline>
    <contour>
      <point x="288" y="0" type="line"/>
      <point x="459" y="0" type="line"/>
      <point x="585" y="477" type="line" smooth="yes"/>
      <point x="598" y="525"/>
      <point x="602" y="550"/>
      <point x="602" y="578" type="curve" smooth="yes"/>
      <point x="602" y="761"/>
      <point x="437" y="920"/>
      <point x="248" y="920" type="curve" smooth="yes"/>
      <point x="85" y="920"/>
      <point x="-39" y="802"/>
      <point x="-39" y="645" type="curve" smooth="yes"/>
      <point x="-39" y="464"/>
      <point x="121" y="306"/>
      <point x="305" y="306" type="curve" smooth="yes"/>
      <point x="329" y="306"/>
      <point x="348" y="309"/>
      <point x="372" y="316" type="curve"/>
    </contour>
    <contour>
      <point x="301" y="456" type="curve" smooth="yes"/>
      <point x="213" y="456"/>
      <point x="134" y="537"/>
      <point x="134" y="626" type="curve" smooth="yes"/>
      <point x="134" y="701"/>
      <point x="190" y="758"/>
      <point x="264" y="758" type="curve" smooth="yes"/>
      <point x="351" y="758"/>
      <point x="431" y="678"/>
      <point x="431" y="589" type="curve" smooth="yes"/>
      <point x="431" y="514"/>
      <point x="374" y="456"/>
    </contour>
  </outline>
</glyph>
<glyph name="less" format="2">
  <advance width="750"/>
  <unicode hex="003C"/>
  <outline>
    <contour>
      <point x="720" y="127" type="line"/>
      <point x="679" y="292" type="line"/>
      <point x="411" y="408" type="line" smooth="yes"/>
      <point x="369" y="426"/>
      <point x="322" y="443"/>
      <point x="277" y="460" type="curve"/>
      <point x="314" y="476"/>
      <point x="353" y="493"/>
      <point x="385" y="511" type="curve" smooth="yes"/>
      <point x="597" y="626" type="line"/>
      <point x="560" y="773" type="line"/>
      <point x="-14" y="451" type="line"/>
      <point x="-14" y="449" type="line"/>
    </contour>
  </outline>
</glyph>
<glyph name="equal" format="2">
  <advance width="750"/>
  <unicode hex="003D"/>
  <outline>
    <contour>
      <point x="29" y="505" type="line"/>
      <point x="619" y="505" type="line"/>
      <point x="585" y="643" type="line"/>
      <point x="-5" y="643" type="line"/>
    </contour>
    <contour>
      <point x="91" y="257" type="line"/>
      <point x="681" y="257" type="line"/>
      <point x="647" y="395" type="line"/>
      <point x="57" y="395" type="line"/>
    </contour>
  </outline>
</glyph>
<glyph name="greater" format="2">
  <advance width="750"/>
  <unicode hex="003E"/>
  <outline>
    <contour>
      <point x="115" y="127" type="line"/>
      <point x="689" y="449" type="line"/>
      <point x="689" y="451" type="line"/>
      <point x="-45" y="773" type="line"/>
      <point x="-4" y="608" type="line"/>
      <point x="264" y="492" type="line" smooth="yes"/>
      <point x="306" y="474"/>
      <point x="353" y="457"/>
      <point x="398" y="440" type="curve"/>
      <point x="361" y="424"/>
      <point x="322" y="407"/>
      <point x="290" y="389" type="curve" smooth="yes"/>
      <point x="78" y="274" type="line"/>
    </contour>
  </outline>
</glyph>
<glyph name="question" format="2">
  <advance width="480"/>
  <unicode hex="003F"/>
  <outline>
    <contour>
      <point x="167" y="330" type="curve"/>
      <point x="299" y="330" type="line"/>
      <point x="279" y="455"/>
      <point x="364" y="539"/>
      <point x="364" y="667" type="curve" smooth="yes"/>
      <point x="364" y="799"/>
      <point x="267" y="918"/>
      <point x="113" y="918" type="curve" smooth="yes"/>
      <point x="60" y="918"/>
      <point x="-13" y="904"/>
      <point x="-71" y="843" type="curve"/>
      <point x="-28" y="672" type="line"/>
      <point x="-6" y="713"/>
      <point x="39" y="760"/>
      <point x="107" y="760" type="curve" smooth="yes"/>
      <point x="167" y="760"/>
      <point x="205" y="724"/>
      <point x="205" y="659" type="curve" smooth="yes"/>
      <point x="205" y="563"/>
      <point x="127" y="504"/>
    </contour>
    <contour>
      <point x="306" y="-20" type="curve" smooth="yes"/>
      <point x="356" y="-20"/>
      <point x="398" y="19"/>
      <point x="398" y="73" type="curve" smooth="yes"/>
      <point x="398" y="135"/>
      <point x="343" y="190"/>
      <point x="280" y="190" type="curve" smooth="yes"/>
      <point x="227" y="190"/>
      <point x="188" y="150"/>
      <point x="188" y="98" type="curve" smooth="yes"/>
      <point x="188" y="35"/>
      <point x="243" y="-20"/>
    </contour>
  </outline>
</glyph>
<glyph name="at" format="2">
  <advance width="1260"/>
  <unicode hex="0040"/>
  <outline>
    <contour>
      <point x="697" y="-192" type="curve" smooth="yes"/>
      <point x="842" y="-192"/>
      <point x="971" y="-143"/>
      <point x="1064" y="-52" type="curve"/>
      <point x="1000" y="67" type="line"/>
      <point x="920" y="-15"/>
      <point x="809" y="-60"/>
      <point x="687" y="-60" type="curve" smooth="yes"/>
      <point x="423" y="-60"/>
      <point x="203" y="156"/>
      <point x="203" y="409" type="curve" smooth="yes"/>
      <point x="203" y="624"/>
      <point x="362" y="780"/>
      <point x="586" y="780" type="curve" smooth="yes"/>
      <point x="837" y="780"/>
      <point x="1033" y="585"/>
      <point x="1033" y="353" type="curve" smooth="yes"/>
      <point x="1033" y="274"/>
      <point x="1010" y="232"/>
      <point x="967" y="232" type="curve" smooth="yes"/>
      <point x="934" y="232"/>
      <point x="911" y="256"/>
      <point x="900" y="301" type="curve" smooth="yes"/>
      <point x="818" y="630" type="line"/>
      <point x="681" y="630" type="line"/>
      <point x="692" y="585" type="line"/>
      <point x="644" y="624"/>
      <point x="592" y="644"/>
      <point x="537" y="644" type="curve" smooth="yes"/>
      <point x="408" y="644"/>
      <point x="309" y="538"/>
      <point x="309" y="400" type="curve" smooth="yes"/>
      <point x="309" y="230"/>
      <point x="459" y="76"/>
      <point x="626" y="76" type="curve" smooth="yes"/>
      <point x="707" y="76"/>
      <point x="774" y="111"/>
      <point x="817" y="177" type="curve"/>
      <point x="857" y="136"/>
      <point x="904" y="116"/>
      <point x="962" y="116" type="curve" smooth="yes"/>
      <point x="1091" y="116"/>
      <point x="1174" y="217"/>
      <point x="1174" y="373" type="curve" smooth="yes"/>
      <point x="1174" y="659"/>
      <point x="897" y="912"/>
      <point x="570" y="912" type="curve" smooth="yes"/>
      <point x="270" y="912"/>
      <point x="56" y="698"/>
      <point x="56" y="419" type="curve" smooth="yes"/>
      <point x="56" y="90"/>
      <point x="352" y="-192"/>
    </contour>
    <contour>
      <point x="615" y="215" type="curve" smooth="yes"/>
      <point x="530" y="215"/>
      <point x="456" y="291"/>
      <point x="456" y="378" type="curve" smooth="yes"/>
      <point x="456" y="452"/>
      <point x="509" y="506"/>
      <point x="580" y="506" type="curve" smooth="yes"/>
      <point x="665" y="506"/>
      <point x="740" y="430"/>
      <point x="740" y="342" type="curve" smooth="yes"/>
      <point x="740" y="269"/>
      <point x="687" y="215"/>
    </contour>
  </outline>
</glyph>
<glyph name="A" format="2">
  <advance width="820"/>
  <unicode hex="0041"/>
  <anchor x="470" y="0" name="bottom"/>
  <anchor x="787" y="0" name="ogonek"/>
  <anchor x="261" y="900" name="top"/>
  <anchor x="26" y="720" name="top-vertical"/>
  <outline>
    <contour>
      <point x="87" y="0" type="line"/>
      <point x="250" y="0" type="line"/>
      <point x="277" y="160" type="line"/>
      <point x="583" y="160" type="line"/>
      <point x="690" y="0" type="line"/>
      <point x="883" y="0" type="line"/>
      <point x="256" y="932" type="line"/>
      <point x="254" y="932" type="line"/>
    </contour>
    <contour>
      <point x="302" y="304" type="line"/>
      <point x="318" y="396" type="line" smooth="yes"/>
      <point x="327" y="445"/>
      <point x="335" y="487"/>
      <point x="336" y="548" type="curve"/>
      <point x="366" y="488"/>
      <point x="393" y="445"/>
      <point x="426" y="396" type="curve" smooth="yes"/>
      <point x="487" y="304" type="line"/>
    </contour>
  </outline>
</glyph>
<glyph name="B" format="2">
  <advance width="750"/>
  <unicode hex="0042"/>
  <outline>
    <contour>
      <point x="171" y="0" type="line"/>
      <point x="394" y="0" type="line" smooth="yes"/>
      <point x="572" y="0"/>
      <point x="699" y="116"/>
      <point x="699" y="273" type="curve" smooth="yes"/>
      <point x="699" y="393"/>
      <point x="626" y="517"/>
      <point x="496" y="576" type="curve"/>
      <point x="514" y="603"/>
      <point x="524" y="634"/>
      <point x="524" y="668" type="curve" smooth="yes"/>
      <point x="524" y="785"/>
      <point x="417" y="900"/>
      <point x="251" y="900" type="curve" smooth="yes"/>
      <point x="-54" y="900" type="line"/>
    </contour>
    <contour>
      <point x="305" y="162" type="line"/>
      <point x="228" y="468" type="line"/>
      <point x="331" y="468" type="line" smooth="yes"/>
      <point x="424" y="468"/>
      <point x="506" y="387"/>
      <point x="506" y="294" type="curve" smooth="yes"/>
      <point x="506" y="217"/>
      <point x="449" y="162"/>
      <point x="367" y="162" type="curve" smooth="yes"/>
    </contour>
    <contour>
      <point x="196" y="594" type="line"/>
      <point x="153" y="768" type="line"/>
      <point x="259" y="768" type="line" smooth="yes"/>
      <point x="312" y="768"/>
      <point x="359" y="722"/>
      <point x="359" y="669" type="curve" smooth="yes"/>
      <point x="359" y="625"/>
      <point x="326" y="594"/>
      <point x="280" y="594" type="curve" smooth="yes"/>
    </contour>
  </outline>
</glyph>
<glyph name="C" format="2">
  <advance width="870"/>
  <unicode hex="0043"/>
  <anchor x="539" y="0" name="bottom"/>
  <anchor x="449" y="900" name="top"/>
  <outline>
    <contour>
      <point x="547" y="-18" type="curve" smooth="yes"/>
      <point x="671" y="-18"/>
      <point x="785" y="32"/>
      <point x="864" y="120" type="curve"/>
      <point x="769" y="317" type="line"/>
      <point x="736" y="221"/>
      <point x="640" y="156"/>
      <point x="531" y="156" type="curve" smooth="yes"/>
      <point x="360" y="156"/>
      <point x="208" y="312"/>
      <point x="208" y="486" type="curve" smooth="yes"/>
      <point x="208" y="632"/>
      <point x="317" y="744"/>
      <point x="459" y="744" type="curve" smooth="yes"/>
      <point x="550" y="744"/>
      <point x="641" y="697"/>
      <point x="704" y="617" type="curve"/>
      <point x="704" y="842" type="line"/>
      <point x="622" y="892"/>
      <point x="531" y="918"/>
      <point x="439" y="918" type="curve" smooth="yes"/>
      <point x="201" y="918"/>
      <point x="18" y="738"/>
      <point x="18" y="504" type="curve" smooth="yes"/>
      <point x="18" y="229"/>
      <point x="269" y="-18"/>
    </contour>
  </outline>
</glyph>
<glyph name="D" format="2">
  <advance width="940"/>
  <unicode hex="0044"/>
  <anchor x="411" y="0" name="bottom"/>
  <anchor x="138" y="480" name="center"/>
  <anchor x="322" y="900" name="top"/>
  <outline>
    <contour>
      <point x="171" y="0" type="line"/>
      <point x="426" y="0" type="line" smooth="yes"/>
      <point x="664" y="0"/>
      <point x="847" y="174"/>
      <point x="847" y="399" type="curve" smooth="yes"/>
      <point x="847" y="663"/>
      <point x="597" y="900"/>
      <point x="318" y="900" type="curve" smooth="yes"/>
      <point x="-54" y="900" type="line"/>
    </contour>
    <contour>
      <point x="305" y="162" type="line"/>
      <point x="160" y="738" type="line"/>
      <point x="326" y="738" type="line" smooth="yes"/>
      <point x="502" y="738"/>
      <point x="657" y="585"/>
      <point x="657" y="411" type="curve" smooth="yes"/>
      <point x="657" y="266"/>
      <point x="548" y="162"/>
      <point x="395" y="162" type="curve" smooth="yes"/>
    </contour>
  </outline>
</glyph>
<glyph name="E" format="2">
  <advance width="630"/>
  <unicode hex="0045"/>
  <anchor x="411" y="0" name="bottom"/>
  <anchor x="576" y="0" name="ogonek"/>
  <anchor x="186" y="900" name="top"/>
  <anchor x="-54" y="900" name="topleft"/>
  <outline>
    <contour>
      <point x="171" y="0" type="line"/>
      <point x="651" y="0" type="line"/>
      <point x="611" y="162" type="line"/>
      <point x="305" y="162" type="line"/>
      <point x="231" y="456" type="line"/>
      <point x="467" y="456" type="line"/>
      <point x="430" y="606" type="line"/>
      <point x="193" y="606" type="line"/>
      <point x="159" y="744" type="line"/>
      <point x="465" y="744" type="line"/>
      <point x="426" y="900" type="line"/>
      <point x="-54" y="900" type="line"/>
    </contour>
  </outline>
</glyph>
<glyph name="F" format="2">
  <advance width="600"/>
  <unicode hex="0046"/>
  <outline>
    <contour>
      <point x="171" y="0" type="line"/>
      <point x="345" y="0" type="line"/>
      <point x="232" y="456" type="line"/>
      <point x="508" y="456" type="line"/>
      <point x="470" y="606" type="line"/>
      <point x="194" y="606" type="line"/>
      <point x="159" y="744" type="line"/>
      <point x="465" y="744" type="line"/>
      <point x="427" y="900" type="line"/>
      <point x="-53" y="900" type="line"/>
    </contour>
  </outline>
</glyph>
<glyph name="H" format="2">
  <advance width="800"/>
  <unicode hex="0048"/>
  <anchor x="472" y="0" name="bottom"/>
  <anchor x="287" y="750" name="center"/>
  <anchor x="250" y="900" name="top"/>
  <anchor x="-54" y="900" name="topleft"/>
  <outline>
    <contour>
      <point x="171" y="0" type="line"/>
      <point x="345" y="0" type="line"/>
      <point x="232" y="450" type="line"/>
      <point x="492" y="450" type="line"/>
      <point x="605" y="0" type="line"/>
      <point x="779" y="0" type="line"/>
      <point x="554" y="900" type="line"/>
      <point x="380" y="900" type="line"/>
      <point x="451" y="612" type="line"/>
      <point x="191" y="612" type="line"/>
      <point x="120" y="900" type="line"/>
      <point x="-54" y="900" type="line"/>
    </contour>
  </outline>
</glyph>
<glyph name="I" format="2">
  <advance width="390"/>
  <unicode hex="0049"/>
  <anchor x="270" y="0" name="bottom"/>
  <anchor x="270" y="0" name="ogonek"/>
  <anchor x="45" y="900" name="top"/>
  <anchor x="-48" y="900" name="topleft"/>
  <outline>
    <contour>
      <point x="177" y="0" type="line"/>
      <point x="363" y="0" type="line"/>
      <point x="138" y="900" type="line"/>
      <point x="-48" y="900" type="line"/>
    </contour>
  </outline>
</glyph>
<glyph name="J" format="2">
  <advance width="560"/>
  <unicode hex="004A"/>
  <anchor x="365" y="0" name="bottom"/>
  <anchor x="234" y="900" name="top"/>
  <outline>
    <contour>
      <point x="233" y="-20" type="curve" smooth="yes"/>
      <point x="418" y="-20"/>
      <point x="523" y="111"/>
      <point x="475" y="302" type="curve" smooth="yes"/>
      <point x="326" y="900" type="line"/>
      <point x="140" y="900" type="line"/>
      <point x="291" y="295" type="line" smooth="yes"/>
      <point x="310" y="220"/>
      <point x="290" y="148"/>
      <point x="198" y="148" type="curve" smooth="yes"/>
      <point x="152" y="148"/>
      <point x="111" y="165"/>
      <point x="78" y="198" type="curve"/>
      <point x="78" y="27" type="line"/>
      <point x="124" y="-5"/>
      <point x="174" y="-20"/>
    </contour>
  </outline>
</glyph>
<glyph name="K" format="2">
  <advance width="800"/>
  <unicode hex="004B"/>
  <anchor x="513" y="0" name="bottom"/>
  <anchor x="221" y="900" name="top"/>
  <outline>
    <contour>
      <point x="654" y="0" type="line"/>
      <point x="881" y="0" type="line"/>
      <point x="405" y="582" type="line"/>
      <point x="557" y="900" type="line"/>
      <point x="367" y="900" type="line"/>
      <point x="204" y="555" type="line"/>
    </contour>
    <contour>
      <point x="171" y="0" type="line"/>
      <point x="351" y="0" type="line"/>
      <point x="127" y="900" type="line"/>
      <point x="-53" y="900" type="line"/>
    </contour>
  </outline>
</glyph>
<glyph name="L" format="2">
  <advance width="600"/>
  <unicode hex="004C"/>
  <anchor x="414" y="0" name="bottom"/>
  <anchor x="146" y="450" name="center"/>
  <anchor x="376" y="480" name="periodcentered"/>
  <anchor x="33" y="900" name="top"/>
  <anchor x="132" y="900" name="topright"/>
  <outline>
    <contour>
      <point x="171" y="0" type="line"/>
      <point x="627" y="0" type="line"/>
      <point x="587" y="162" type="line"/>
      <point x="317" y="162" type="line"/>
      <point x="132" y="900" type="line"/>
      <point x="-54" y="900" type="line"/>
    </contour>
  </outline>
</glyph>
<glyph name="M" format="2">
  <advance width="1040"/>
  <unicode hex="004D"/>
  <outline>
    <contour>
      <point x="171" y="0" type="line"/>
      <point x="339" y="0" type="line"/>
      <point x="268" y="282" type="line" smooth="yes"/>
      <point x="254" y="336"/>
      <point x="237" y="400"/>
      <point x="210" y="487" type="curve"/>
      <point x="258" y="426"/>
      <point x="301" y="385"/>
      <point x="339" y="347" type="curve" smooth="yes"/>
      <point x="564" y="125" type="line"/>
      <point x="652" y="299" type="line" smooth="yes"/>
      <point x="675" y="345"/>
      <point x="713" y="414"/>
      <point x="736" y="487" type="curve"/>
      <point x="748" y="378"/>
      <point x="769" y="300"/>
      <point x="786" y="234" type="curve" smooth="yes"/>
      <point x="845" y="0" type="line"/>
      <point x="1019" y="0" type="line"/>
      <point x="793" y="906" type="line"/>
      <point x="791" y="906" type="line"/>
      <point x="508" y="397" type="line"/>
      <point x="-65" y="954" type="line"/>
      <point x="-67" y="954" type="line"/>
    </contour>
  </outline>
</glyph>
<glyph name="N" format="2">
  <advance width="900"/>
  <unicode hex="004E"/>
  <anchor x="585" y="60" name="bottom"/>
  <anchor x="292" y="840" name="top"/>
  <outline>
    <contour>
      <point x="885" y="-30" type="line"/>
      <point x="887" y="-30" type="line"/>
      <point x="655" y="900" type="line"/>
      <point x="487" y="900" type="line"/>
      <point x="609" y="406" type="line"/>
      <point x="-59" y="930" type="line"/>
      <point x="-61" y="930" type="line"/>
      <point x="171" y="0" type="line"/>
      <point x="339" y="0" type="line"/>
      <point x="216" y="495" type="line"/>
    </contour>
  </outline>
</glyph>
<glyph name="O" format="2">
  <advance width="1060"/>
  <unicode hex="004F"/>
  <anchor x="605" y="0" name="bottom"/>
  <anchor x="493" y="450" name="center"/>
  <anchor x="635" y="0" name="ogonek"/>
  <anchor x="381" y="900" name="top"/>
  <anchor x="486" y="480" name="top-vertical"/>
  <anchor x="-89" y="900" name="topleft"/>
  <anchor x="851" y="900" name="topright"/>
  <outline>
    <contour>
      <point x="547" y="-18" type="curve" smooth="yes"/>
      <point x="786" y="-18"/>
      <point x="968" y="163"/>
      <point x="968" y="396" type="curve" smooth="yes"/>
      <point x="968" y="670"/>
      <point x="718" y="918"/>
      <point x="439" y="918" type="curve" smooth="yes"/>
      <point x="200" y="918"/>
      <point x="18" y="736"/>
      <point x="18" y="503" type="curve" smooth="yes"/>
      <point x="18" y="230"/>
      <point x="267" y="-18"/>
    </contour>
    <contour>
      <point x="527" y="156" type="curve" smooth="yes"/>
      <point x="358" y="156"/>
      <point x="208" y="315"/>
      <point x="208" y="489" type="curve" smooth="yes"/>
      <point x="208" y="634"/>
      <point x="315" y="744"/>
      <point x="458" y="744" type="curve" smooth="yes"/>
      <point x="627" y="744"/>
      <point x="778" y="586"/>
      <point x="778" y="413" type="curve" smooth="yes"/>
      <point x="778" y="268"/>
      <point x="669" y="156"/>
    </contour>
  </outline>
</glyph>
<glyph name="P" format="2">
  <advance width="740"/>
  <unicode hex="0050"/>
  <outline>
    <contour>
      <point x="171" y="0" type="line"/>
      <point x="345" y="0" type="line"/>
      <point x="273" y="289" type="line"/>
      <point x="351" y="289" type="line" smooth="yes"/>
      <point x="513" y="289"/>
      <point x="637" y="407"/>
      <point x="637" y="560" type="curve" smooth="yes"/>
      <point x="637" y="739"/>
      <point x="470" y="900"/>
      <point x="278" y="900" type="curve"/>
      <point x="-54" y="900" type="line"/>
    </contour>
    <contour>
      <point x="234" y="445" type="line"/>
      <point x="159" y="744" type="line"/>
      <point x="273" y="744" type="line" smooth="yes"/>
      <point x="377" y="744"/>
      <point x="457" y="665"/>
      <point x="457" y="574" type="curve" smooth="yes"/>
      <point x="457" y="499"/>
      <point x="400" y="445"/>
      <point x="309" y="445" type="curve" smooth="yes"/>
    </contour>
  </outline>
</glyph>
<glyph name="Q" format="2">
  <advance width="1060"/>
  <unicode hex="0051"/>
  <outline>
    <contour>
      <point x="891" y="-30" type="line"/>
      <point x="1105" y="-30" type="line"/>
      <point x="899" y="165" type="line"/>
      <point x="943" y="230"/>
      <point x="968" y="310"/>
      <point x="968" y="396" type="curve" smooth="yes"/>
      <point x="968" y="670"/>
      <point x="718" y="918"/>
      <point x="439" y="918" type="curve" smooth="yes"/>
      <point x="200" y="918"/>
      <point x="18" y="736"/>
      <point x="18" y="503" type="curve" smooth="yes"/>
      <point x="18" y="230"/>
      <point x="267" y="-18"/>
      <point x="547" y="-18" type="curve" smooth="yes"/>
      <point x="642" y="-18"/>
      <point x="728" y="11"/>
      <point x="797" y="60" type="curve"/>
    </contour>
    <contour>
      <point x="527" y="156" type="curve" smooth="yes"/>
      <point x="358" y="156"/>
      <point x="208" y="315"/>
      <point x="208" y="489" type="curve" smooth="yes"/>
      <point x="208" y="634"/>
      <point x="315" y="744"/>
      <point x="458" y="744" type="curve" smooth="yes"/>
      <point x="627" y="744"/>
      <point x="778" y="586"/>
      <point x="778" y="413" type="curve" smooth="yes"/>
      <point x="778" y="373"/>
      <point x="770" y="335"/>
      <point x="755" y="302" type="curve"/>
      <point x="598" y="450" type="line"/>
      <point x="387" y="450" type="line"/>
      <point x="658" y="192" type="line"/>
      <point x="620" y="169"/>
      <point x="575" y="156"/>
    </contour>
  </outline>
</glyph>
<glyph name="R" format="2">
  <advance width="800"/>
  <unicode hex="0052"/>
  <anchor x="514" y="0" name="bottom"/>
  <anchor x="176" y="900" name="top"/>
  <outline>
    <contour>
      <point x="174" y="0" type="line"/>
      <point x="348" y="0" type="line"/>
      <point x="262" y="342" type="line"/>
      <point x="385" y="342" type="line"/>
      <point x="666" y="0" type="line"/>
      <point x="881" y="0" type="line"/>
      <point x="538" y="421" type="line"/>
      <point x="580" y="465"/>
      <point x="605" y="523"/>
      <point x="605" y="589" type="curve" smooth="yes"/>
      <point x="605" y="753"/>
      <point x="453" y="900"/>
      <point x="277" y="900" type="curve" smooth="yes"/>
      <point x="-51" y="900" type="line"/>
    </contour>
    <contour>
      <point x="226" y="492" type="line"/>
      <point x="163" y="744" type="line"/>
      <point x="278" y="744" type="line" smooth="yes"/>
      <point x="366" y="744"/>
      <point x="433" y="677"/>
      <point x="433" y="601" type="curve" smooth="yes"/>
      <point x="433" y="537"/>
      <point x="385" y="492"/>
      <point x="308" y="492" type="curve" smooth="yes"/>
    </contour>
  </outline>
</glyph>
<glyph name="T" format="2">
  <advance width="710"/>
  <unicode hex="0054"/>
  <anchor x="430" y="0" name="bottom"/>
  <anchor x="319" y="450" name="center"/>
  <anchor x="205" y="900" name="top"/>
  <outline>
    <contour>
      <point x="337" y="0" type="line"/>
      <point x="523" y="0" type="line"/>
      <point x="338" y="738" type="line"/>
      <point x="558" y="738" type="line"/>
      <point x="518" y="900" type="line"/>
      <point x="-108" y="900" type="line"/>
      <point x="-68" y="738" type="line"/>
      <point x="152" y="738" type="line"/>
    </contour>
  </outline>
</glyph>
<glyph name="U" format="2">
  <advance width="800"/>
  <unicode hex="0055"/>
  <anchor x="473" y="0" name="bottom"/>
  <anchor x="505" y="0" name="ogonek"/>
  <anchor x="250" y="900" name="top"/>
  <anchor x="296" y="720" name="top-vertical"/>
  <anchor x="578" y="900" name="topright"/>
  <outline>
    <contour>
      <point x="434" y="-20" type="curve" smooth="yes"/>
      <point x="647" y="-20"/>
      <point x="769" y="137"/>
      <point x="717" y="345" type="curve" smooth="yes"/>
      <point x="578" y="900" type="line"/>
      <point x="398" y="900" type="line"/>
      <point x="540" y="331" type="line" smooth="yes"/>
      <point x="566" y="225"/>
      <point x="512" y="153"/>
      <point x="421" y="153" type="curve" smooth="yes"/>
      <point x="341" y="153"/>
      <point x="281" y="207"/>
      <point x="260" y="290" type="curve" smooth="yes"/>
      <point x="108" y="900" type="line"/>
      <point x="-78" y="900" type="line"/>
      <point x="80" y="268" type="line" smooth="yes"/>
      <point x="125" y="88"/>
      <point x="254" y="-20"/>
    </contour>
  </outline>
</glyph>
<glyph name="V" format="2">
  <advance width="770"/>
  <unicode hex="0056"/>
  <outline>
    <contour>
      <point x="465" y="-30" type="line"/>
      <point x="467" y="-30" type="line"/>
      <point x="614" y="900" type="line"/>
      <point x="442" y="900" type="line"/>
      <point x="388" y="530" type="line" smooth="yes"/>
      <point x="382" y="488"/>
      <point x="374" y="452"/>
      <point x="371" y="404" type="curve"/>
      <point x="347" y="450"/>
      <point x="324" y="485"/>
      <point x="295" y="530" type="curve" smooth="yes"/>
      <point x="55" y="900" type="line"/>
      <point x="-144" y="900" type="line"/>
    </contour>
  </outline>
</glyph>
<glyph name="W" format="2">
  <advance width="1220"/>
  <unicode hex="0057"/>
  <anchor x="681" y="0" name="bottom"/>
  <anchor x="456" y="900" name="top"/>
  <outline>
    <contour>
      <point x="457" y="-32" type="line"/>
      <point x="459" y="-32" type="line"/>
      <point x="533" y="412" type="line" smooth="yes"/>
      <point x="539" y="448"/>
      <point x="546" y="485"/>
      <point x="549" y="541" type="curve"/>
      <point x="580" y="485"/>
      <point x="605" y="449"/>
      <point x="629" y="413" type="curve" smooth="yes"/>
      <point x="925" y="-32" type="line"/>
      <point x="927" y="-32" type="line"/>
      <point x="1064" y="900" type="line"/>
      <point x="894" y="900" type="line"/>
      <point x="838" y="516" type="line" smooth="yes"/>
      <point x="833" y="480"/>
      <point x="827" y="444"/>
      <point x="824" y="388" type="curve"/>
      <point x="793" y="444"/>
      <point x="768" y="480"/>
      <point x="744" y="516" type="curve" smooth="yes"/>
      <point x="470" y="930" type="line"/>
      <point x="468" y="930" type="line"/>
      <point x="398" y="516" type="line" smooth="yes"/>
      <point x="392" y="480"/>
      <point x="382" y="444"/>
      <point x="379" y="388" type="curve"/>
      <point x="348" y="444"/>
      <point x="326" y="480"/>
      <point x="303" y="516" type="curve" smooth="yes"/>
      <point x="57" y="900" type="line"/>
      <point x="-144" y="900" type="line"/>
    </contour>
  </outline>
</glyph>
<glyph name="X" format="2">
  <advance width="870"/>
  <unicode hex="0058"/>
  <outline>
    <contour>
      <point x="81" y="0" type="line"/>
      <point x="270" y="0" type="line"/>
      <point x="373" y="255" type="line" smooth="yes"/>
      <point x="386" y="288"/>
      <point x="399" y="322"/>
      <point x="410" y="356" type="curve"/>
      <point x="436" y="322"/>
      <point x="464" y="288"/>
      <point x="492" y="255" type="curve" smooth="yes"/>
      <point x="707" y="0" type="line"/>
      <point x="939" y="0" type="line"/>
      <point x="488" y="522" type="line"/>
      <point x="643" y="900" type="line"/>
      <point x="460" y="900" type="line"/>
      <point x="384" y="709" type="line" smooth="yes"/>
      <point x="376" y="690"/>
      <point x="369" y="673"/>
      <point x="361" y="653" type="curve"/>
      <point x="349" y="672"/>
      <point x="334" y="692"/>
      <point x="318" y="710" type="curve" smooth="yes"/>
      <point x="153" y="900" type="line"/>
      <point x="-71" y="900" type="line"/>
      <point x="284" y="494" type="line"/>
    </contour>
  </outline>
</glyph>
<glyph name="Y" format="2">
  <advance width="710"/>
  <unicode hex="0059"/>
  <anchor x="429" y="0" name="bottom"/>
  <anchor x="215" y="900" name="top"/>
  <anchor x="-144" y="900" name="topleft"/>
  <outline>
    <contour>
      <point x="340" y="0" type="line"/>
      <point x="520" y="0" type="line"/>
      <point x="413" y="426" type="line"/>
      <point x="554" y="900" type="line"/>
      <point x="372" y="900" type="line"/>
      <point x="316" y="698" type="line" smooth="yes"/>
      <point x="308" y="669"/>
      <point x="299" y="640"/>
      <point x="294" y="599" type="curve"/>
      <point x="268" y="641"/>
      <point x="246" y="668"/>
      <point x="223" y="698" type="curve" smooth="yes"/>
      <point x="66" y="900" type="line"/>
      <point x="-144" y="900" type="line"/>
      <point x="233" y="426" type="line"/>
    </contour>
  </outline>
</glyph>
<glyph name="Z" format="2">
  <advance width="680"/>
  <unicode hex="005A"/>
  <anchor x="399" y="0" name="bottom"/>
  <anchor x="296" y="450" name="center"/>
  <anchor x="205" y="900" name="top"/>
  <outline>
    <contour>
      <point x="93" y="0" type="line"/>
      <point x="704" y="0" type="line"/>
      <point x="664" y="162" type="line"/>
      <point x="310" y="162" type="line"/>
      <point x="501" y="898" type="line"/>
      <point x="501" y="900" type="line"/>
      <point x="-86" y="900" type="line"/>
      <point x="-46" y="738" type="line"/>
      <point x="284" y="738" type="line"/>
      <point x="93" y="2" type="line"/>
    </contour>
  </outline>
</glyph>
<glyph name="bracketleft" format="2">
  <advance width="480"/>
  <unicode hex="005B"/>
  <outline>
    <contour>
      <point x="210" y="-180" type="line"/>
      <point x="540" y="-180" type="line"/>
      <point x="508" y="-48" type="line"/>
      <point x="328" y="-48" type="line"/>
      <point x="107" y="828" type="line"/>
      <point x="287" y="828" type="line"/>
      <point x="255" y="960" type="line"/>
      <point x="-75" y="960" type="line"/>
    </contour>
  </outline>
</glyph>
<glyph name="backslash" format="2">
  <advance width="520"/>
  <unicode hex="005C"/>
  <outline>
    <contour>
      <point x="555" y="-180" type="line"/>
      <point x="722" y="-180" type="line"/>
      <point x="-80" y="960" type="line"/>
      <point x="-247" y="960" type="line"/>
    </contour>
  </outline>
</glyph>
<glyph name="bracketright" format="2">
  <advance width="480"/>
  <unicode hex="005D"/>
  <outline>
    <contour>
      <point x="180" y="-180" type="line"/>
      <point x="510" y="-180" type="line"/>
      <point x="225" y="960" type="line"/>
      <point x="-105" y="960" type="line"/>
      <point x="-73" y="828" type="line"/>
      <point x="107" y="828" type="line"/>
      <point x="328" y="-48" type="line"/>
      <point x="148" y="-48" type="line"/>
    </contour>
  </outline>
</glyph>
<glyph name="asciicircum" format="2">
  <advance width="750"/>
  <unicode hex="005E"/>
  <outline>
    <contour>
      <point x="86" y="162" type="line"/>
      <point x="227" y="162" type="line"/>
      <point x="283" y="402" type="line" smooth="yes"/>
      <point x="292" y="439"/>
      <point x="299" y="482"/>
      <point x="306" y="523" type="curve"/>
      <point x="332" y="482"/>
      <point x="359" y="439"/>
      <point x="386" y="402" type="curve" smooth="yes"/>
      <point x="561" y="162" type="line"/>
      <point x="732" y="162" type="line"/>
      <point x="247" y="816" type="line"/>
      <point x="245" y="816" type="line"/>
    </contour>
  </outline>
</glyph>
<glyph name="underscore" format="2">
  <advance width="750"/>
  <unicode hex="005F"/>
  <outline>
    <contour>
      <point x="119" y="-201" type="line"/>
      <point x="881" y="-201" type="line"/>
      <point x="849" y="-69" type="line"/>
      <point x="87" y="-69" type="line"/>
    </contour>
  </outline>
</glyph>
<glyph name="a" format="2">
  <advance width="740"/>
  <unicode hex="0061"/>
  <anchor x="445" y="0" name="bottom"/>
  <anchor x="673" y="0" name="ogonek"/>
  <anchor x="295" y="600" name="top"/>
  <outline>
    <contour>
      <point x="387" y="-14" type="curve" smooth="yes"/>
      <point x="464" y="-14"/>
      <point x="534" y="15"/>
      <point x="582" y="65" type="curve"/>
      <point x="598" y="0" type="line"/>
      <point x="748" y="0" type="line"/>
      <point x="599" y="600" type="line"/>
      <point x="449" y="600" type="line"/>
      <point x="462" y="549" type="line"/>
      <point x="414" y="588"/>
      <point x="355" y="614"/>
      <point x="288" y="614" type="curve" smooth="yes"/>
      <point x="145" y="614"/>
      <point x="36" y="497"/>
      <point x="36" y="344" type="curve" smooth="yes"/>
      <point x="36" y="152"/>
      <point x="206" y="-14"/>
    </contour>
    <contour>
      <point x="374" y="140" type="curve" smooth="yes"/>
      <point x="278" y="140"/>
      <point x="198" y="226"/>
      <point x="198" y="320" type="curve" smooth="yes"/>
      <point x="198" y="399"/>
      <point x="255" y="461"/>
      <point x="336" y="461" type="curve" smooth="yes"/>
      <point x="432" y="461"/>
      <point x="512" y="375"/>
      <point x="512" y="280" type="curve" smooth="yes"/>
      <point x="512" y="200"/>
      <point x="455" y="140"/>
    </contour>
  </outline>
</glyph>
<glyph name="c" format="2">
  <advance width="600"/>
  <unicode hex="0063"/>
  <anchor x="425" y="0" name="bottom"/>
  <anchor x="310" y="600" name="top"/>
  <outline>
    <contour>
      <point x="405" y="-18" type="curve" smooth="yes"/>
      <point x="493" y="-18"/>
      <point x="565" y="14"/>
      <point x="618" y="65" type="curve"/>
      <point x="529" y="244" type="line"/>
      <point x="514" y="185"/>
      <point x="462" y="137"/>
      <point x="385" y="137" type="curve" smooth="yes"/>
      <point x="282" y="137"/>
      <point x="201" y="224"/>
      <point x="201" y="320" type="curve" smooth="yes"/>
      <point x="201" y="401"/>
      <point x="259" y="462"/>
      <point x="347" y="462" type="curve" smooth="yes"/>
      <point x="420" y="462"/>
      <point x="477" y="423"/>
      <point x="509" y="384" type="curve"/>
      <point x="509" y="569" type="line"/>
      <point x="462" y="601"/>
      <point x="396" y="618"/>
      <point x="332" y="618" type="curve" smooth="yes"/>
      <point x="165" y="618"/>
      <point x="36" y="501"/>
      <point x="36" y="337" type="curve" smooth="yes"/>
      <point x="36" y="148"/>
      <point x="206" y="-18"/>
    </contour>
  </outline>
</glyph>
<glyph name="d" format="2">
  <advance width="740"/>
  <unicode hex="0064"/>
  <anchor x="446" y="0" name="bottom"/>
  <anchor x="472" y="780" name="center"/>
  <anchor x="296" y="600" name="top"/>
  <anchor x="509" y="960" name="topright"/>
  <outline>
    <contour>
      <point x="387" y="-14" type="curve" smooth="yes"/>
      <point x="464" y="-14"/>
      <point x="534" y="15"/>
      <point x="582" y="65" type="curve"/>
      <point x="599" y="0" type="line"/>
      <point x="749" y="0" type="line"/>
      <point x="509" y="960" type="line"/>
      <point x="335" y="960" type="line"/>
      <point x="432" y="571" type="line"/>
      <point x="390" y="598"/>
      <point x="342" y="614"/>
      <point x="288" y="614" type="curve" smooth="yes"/>
      <point x="145" y="614"/>
      <point x="36" y="497"/>
      <point x="36" y="344" type="curve" smooth="yes"/>
      <point x="36" y="152"/>
      <point x="206" y="-14"/>
    </contour>
    <contour>
      <point x="374" y="140" type="curve" smooth="yes"/>
      <point x="278" y="140"/>
      <point x="198" y="226"/>
      <point x="198" y="320" type="curve" smooth="yes"/>
      <point x="198" y="399"/>
      <point x="255" y="461"/>
      <point x="336" y="461" type="curve" smooth="yes"/>
      <point x="432" y="461"/>
      <point x="512" y="375"/>
      <point x="512" y="280" type="curve" smooth="yes"/>
      <point x="512" y="200"/>
      <point x="455" y="140"/>
    </contour>
  </outline>
</glyph>
<glyph name="f" format="2">
  <advance width="450"/>
  <unicode hex="0066"/>
  <anchor x="295" y="0" name="bottom"/>
  <anchor x="200" y="960" name="top"/>
  <outline>
    <contour>
      <point x="211" y="0" type="line"/>
      <point x="385" y="0" type="line"/>
      <point x="270" y="462" type="line"/>
      <point x="386" y="462" type="line"/>
      <point x="352" y="600" type="line"/>
      <point x="232" y="600" type="line"/>
      <point x="195" y="749" type="line" smooth="yes"/>
      <point x="182" y="802"/>
      <point x="204" y="837"/>
      <point x="250" y="837" type="curve" smooth="yes"/>
      <point x="272" y="837"/>
      <point x="292" y="829"/>
      <point x="318" y="808" type="curve"/>
      <point x="318" y="951" type="line"/>
      <point x="288" y="965"/>
      <point x="254" y="972"/>
      <point x="218" y="972" type="curve" smooth="yes"/>
      <point x="75" y="972"/>
      <point x="-4" y="868"/>
      <point x="32" y="725" type="curve" smooth="yes"/>
      <point x="64" y="600" type="line"/>
      <point x="-50" y="600" type="line"/>
      <point x="-16" y="462" type="line"/>
      <point x="96" y="462" type="line"/>
    </contour>
  </outline>
</glyph>
<glyph name="g" format="2">
  <advance width="740"/>
  <unicode hex="0067"/>
  <anchor x="546" y="-360" name="bottom"/>
  <anchor x="599" y="300" name="center"/>
  <anchor x="306" y="600" name="top"/>
  <outline>
    <contour>
      <point x="422" y="-317" type="curve" smooth="yes"/>
      <point x="653" y="-317"/>
      <point x="789" y="-156"/>
      <point x="736" y="54" type="curve" smooth="yes"/>
      <point x="599" y="600" type="line"/>
      <point x="449" y="600" type="line"/>
      <point x="462" y="549" type="line"/>
      <point x="409" y="592"/>
      <point x="350" y="614"/>
      <point x="288" y="614" type="curve" smooth="yes"/>
      <point x="145" y="614"/>
      <point x="36" y="497"/>
      <point x="36" y="344" type="curve" smooth="yes"/>
      <point x="36" y="156"/>
      <point x="202" y="-14"/>
      <point x="387" y="-14" type="curve" smooth="yes"/>
      <point x="463" y="-14"/>
      <point x="534" y="15"/>
      <point x="581" y="65" type="curve"/>
      <point x="586" y="44" type="line" smooth="yes"/>
      <point x="616" y="-79"/>
      <point x="541" y="-168"/>
      <point x="407" y="-168" type="curve" smooth="yes"/>
      <point x="338" y="-168"/>
      <point x="272" y="-142"/>
      <point x="217" y="-94" type="curve"/>
      <point x="217" y="-268" type="line"/>
      <point x="275" y="-299"/>
      <point x="349" y="-317"/>
    </contour>
    <contour>
      <point x="374" y="140" type="curve" smooth="yes"/>
      <point x="280" y="140"/>
      <point x="198" y="224"/>
      <point x="198" y="320" type="curve" smooth="yes"/>
      <point x="198" y="401"/>
      <point x="257" y="461"/>
      <point x="336" y="461" type="curve" smooth="yes"/>
      <point x="430" y="461"/>
      <point x="512" y="377"/>
      <point x="512" y="280" type="curve" smooth="yes"/>
      <point x="512" y="199"/>
      <point x="454" y="140"/>
    </contour>
  </outline>
</glyph>
<glyph name="h" format="2">
  <advance width="700"/>
  <unicode hex="0068"/>
  <anchor x="435" y="0" name="bottom"/>
  <anchor x="30" y="780" name="center"/>
  <anchor x="-15" y="960" name="top"/>
  <outline>
    <contour>
      <point x="141" y="0" type="line"/>
      <point x="315" y="0" type="line"/>
      <point x="234" y="324" type="line" smooth="yes"/>
      <point x="214" y="405"/>
      <point x="256" y="464"/>
      <point x="333" y="464" type="curve" smooth="yes"/>
      <point x="392" y="464"/>
      <point x="443" y="417"/>
      <point x="461" y="344" type="curve" smooth="yes"/>
      <point x="547" y="0" type="line"/>
      <point x="721" y="0" type="line"/>
      <point x="623" y="392" type="line" smooth="yes"/>
      <point x="589" y="529"/>
      <point x="483" y="620"/>
      <point x="357" y="620" type="curve" smooth="yes"/>
      <point x="281" y="620"/>
      <point x="216" y="592"/>
      <point x="178" y="545" type="curve"/>
      <point x="75" y="960" type="line"/>
      <point x="-99" y="960" type="line"/>
    </contour>
  </outline>
</glyph>
<glyph name="k" format="2">
  <advance width="670"/>
  <unicode hex="006B"/>
  <anchor x="405" y="0" name="bottom"/>
  <anchor x="-15" y="960" name="top"/>
  <outline>
    <contour>
      <point x="507" y="0" type="line"/>
      <point x="718" y="0" type="line"/>
      <point x="409" y="335" type="line"/>
      <point x="584" y="600" type="line"/>
      <point x="403" y="600" type="line"/>
      <point x="225" y="311" type="line"/>
    </contour>
    <contour>
      <point x="141" y="0" type="line"/>
      <point x="315" y="0" type="line"/>
      <point x="75" y="960" type="line"/>
      <point x="-99" y="960" type="line"/>
    </contour>
  </outline>
</glyph>
<glyph name="l" format="2">
  <advance width="310"/>
  <unicode hex="006C"/>
  <anchor x="230" y="0" name="bottom"/>
  <anchor x="110" y="480" name="center"/>
  <anchor x="335" y="420" name="periodcentered"/>
  <anchor x="-10" y="960" name="top"/>
  <anchor x="77" y="960" name="topright"/>
  <outline>
    <contour>
      <point x="143" y="0" type="line"/>
      <point x="317" y="0" type="line"/>
      <point x="77" y="960" type="line"/>
      <point x="-97" y="960" type="line"/>
    </contour>
  </outline>
</glyph>
<glyph name="m" format="2">
  <advance width="1080"/>
  <unicode hex="006D"/>
  <anchor x="621" y="0" name="bottom"/>
  <anchor x="465" y="600" name="top"/>
  <outline>
    <contour>
      <point x="141" y="0" type="line"/>
      <point x="315" y="0" type="line"/>
      <point x="233" y="328" type="line" smooth="yes"/>
      <point x="214" y="406"/>
      <point x="252" y="464"/>
      <point x="322" y="464" type="curve" smooth="yes"/>
      <point x="382" y="464"/>
      <point x="429" y="420"/>
      <point x="447" y="348" type="curve" smooth="yes"/>
      <point x="534" y="0" type="line"/>
      <point x="708" y="0" type="line"/>
      <point x="626" y="328" type="line" smooth="yes"/>
      <point x="607" y="406"/>
      <point x="645" y="464"/>
      <point x="715" y="464" type="curve" smooth="yes"/>
      <point x="775" y="464"/>
      <point x="822" y="420"/>
      <point x="840" y="348" type="curve" smooth="yes"/>
      <point x="927" y="0" type="line"/>
      <point x="1101" y="0" type="line"/>
      <point x="1002" y="396" type="line" smooth="yes"/>
      <point x="967" y="534"/>
      <point x="864" y="620"/>
      <point x="735" y="620" type="curve" smooth="yes"/>
      <point x="655" y="620"/>
      <point x="583" y="586"/>
      <point x="542" y="529" type="curve"/>
      <point x="492" y="588"/>
      <point x="424" y="620"/>
      <point x="348" y="620" type="curve" smooth="yes"/>
      <point x="268" y="620"/>
      <point x="196" y="585"/>
      <point x="164" y="529" type="curve"/>
      <point x="147" y="600" type="line"/>
      <point x="-9" y="600" type="line"/>
    </contour>
  </outline>
</glyph>
<glyph name="n" format="2">
  <advance width="700"/>
  <unicode hex="006E"/>
  <anchor x="426" y="0" name="bottom"/>
  <anchor x="277" y="600" name="top"/>
  <outline>
    <contour>
      <point x="141" y="0" type="line"/>
      <point x="315" y="0" type="line"/>
      <point x="234" y="324" type="line" smooth="yes"/>
      <point x="214" y="405"/>
      <point x="256" y="464"/>
      <point x="333" y="464" type="curve" smooth="yes"/>
      <point x="392" y="464"/>
      <point x="442" y="417"/>
      <point x="461" y="344" type="curve" smooth="yes"/>
      <point x="547" y="0" type="line"/>
      <point x="721" y="0" type="line"/>
      <point x="623" y="392" type="line" smooth="yes"/>
      <point x="589" y="529"/>
      <point x="483" y="620"/>
      <point x="357" y="620" type="curve" smooth="yes"/>
      <point x="271" y="620"/>
      <point x="200" y="585"/>
      <point x="165" y="527" type="curve"/>
      <point x="147" y="600" type="line"/>
      <point x="-9" y="600" type="line"/>
    </contour>
  </outline>
</glyph>
<glyph name="o" format="2">
  <advance width="730"/>
  <unicode hex="006F"/>
  <anchor x="445" y="0" name="bottom"/>
  <anchor x="370" y="300" name="center"/>
  <anchor x="475" y="0" name="ogonek"/>
  <anchor x="295" y="600" name="top"/>
  <anchor x="455" y="600" name="topright"/>
  <outline>
    <contour>
      <point x="408" y="-20" type="curve" smooth="yes"/>
      <point x="572" y="-20"/>
      <point x="694" y="104"/>
      <point x="694" y="262" type="curve" smooth="yes"/>
      <point x="694" y="450"/>
      <point x="522" y="620"/>
      <point x="333" y="620" type="curve" smooth="yes"/>
      <point x="176" y="620"/>
      <point x="46" y="501"/>
      <point x="46" y="336" type="curve" smooth="yes"/>
      <point x="46" y="149"/>
      <point x="216" y="-20"/>
    </contour>
    <contour>
      <point x="389" y="136" type="curve" smooth="yes"/>
      <point x="292" y="136"/>
      <point x="211" y="224"/>
      <point x="211" y="320" type="curve" smooth="yes"/>
      <point x="211" y="401"/>
      <point x="269" y="464"/>
      <point x="351" y="464" type="curve" smooth="yes"/>
      <point x="448" y="464"/>
      <point x="529" y="375"/>
      <point x="529" y="280" type="curve" smooth="yes"/>
      <point x="529" y="200"/>
      <point x="471" y="136"/>
    </contour>
  </outline>
</glyph>
<glyph name="p" format="2">
  <advance width="740"/>
  <unicode hex="0070"/>
  <anchor x="445" y="0" name="bottom"/>
  <anchor x="295" y="600" name="top"/>
  <outline>
    <contour>
      <point x="216" y="-300" type="line"/>
      <point x="390" y="-300" type="line"/>
      <point x="309" y="29" type="line"/>
      <point x="350" y="2"/>
      <point x="399" y="-14"/>
      <point x="453" y="-14" type="curve" smooth="yes"/>
      <point x="596" y="-14"/>
      <point x="705" y="103"/>
      <point x="705" y="256" type="curve" smooth="yes"/>
      <point x="705" y="448"/>
      <point x="535" y="614"/>
      <point x="354" y="614" type="curve" smooth="yes"/>
      <point x="277" y="614"/>
      <point x="207" y="585"/>
      <point x="159" y="535" type="curve"/>
      <point x="142" y="600" type="line"/>
      <point x="-8" y="600" type="line"/>
    </contour>
    <contour>
      <point x="405" y="139" type="curve" smooth="yes"/>
      <point x="309" y="139"/>
      <point x="229" y="225"/>
      <point x="229" y="320" type="curve" smooth="yes"/>
      <point x="229" y="400"/>
      <point x="286" y="460"/>
      <point x="367" y="460" type="curve" smooth="yes"/>
      <point x="463" y="460"/>
      <point x="543" y="374"/>
      <point x="543" y="280" type="curve" smooth="yes"/>
      <point x="543" y="201"/>
      <point x="486" y="139"/>
    </contour>
  </outline>
</glyph>
<glyph name="q" format="2">
  <advance width="740"/>
  <unicode hex="0071"/>
  <outline>
    <contour>
      <point x="650" y="-300" type="line"/>
      <point x="824" y="-300" type="line"/>
      <point x="599" y="600" type="line"/>
      <point x="449" y="600" type="line"/>
      <point x="462" y="549" type="line"/>
      <point x="414" y="588"/>
      <point x="355" y="614"/>
      <point x="288" y="614" type="curve" smooth="yes"/>
      <point x="145" y="614"/>
      <point x="36" y="497"/>
      <point x="36" y="344" type="curve" smooth="yes"/>
      <point x="36" y="152"/>
      <point x="206" y="-14"/>
      <point x="387" y="-14" type="curve" smooth="yes"/>
      <point x="454" y="-14"/>
      <point x="516" y="8"/>
      <point x="562" y="47" type="curve"/>
    </contour>
    <contour>
      <point x="374" y="140" type="curve" smooth="yes"/>
      <point x="278" y="140"/>
      <point x="198" y="226"/>
      <point x="198" y="320" type="curve" smooth="yes"/>
      <point x="198" y="399"/>
      <point x="255" y="461"/>
      <point x="336" y="461" type="curve" smooth="yes"/>
      <point x="432" y="461"/>
      <point x="512" y="375"/>
      <point x="512" y="280" type="curve" smooth="yes"/>
      <point x="512" y="200"/>
      <point x="455" y="140"/>
    </contour>
  </outline>
</glyph>
<glyph name="r" format="2">
  <advance width="460"/>
  <unicode hex="0072"/>
  <anchor x="225" y="0" name="bottom"/>
  <anchor x="177" y="600" name="top"/>
  <outline>
    <contour>
      <point x="141" y="0" type="line"/>
      <point x="315" y="0" type="line"/>
      <point x="250" y="260" type="line" smooth="yes"/>
      <point x="223" y="367"/>
      <point x="265" y="461"/>
      <point x="385" y="461" type="curve" smooth="yes"/>
      <point x="394" y="461"/>
      <point x="402" y="460"/>
      <point x="409" y="459" type="curve"/>
      <point x="335" y="606" type="line"/>
      <point x="259" y="596"/>
      <point x="202" y="554"/>
      <point x="175" y="487" type="curve"/>
      <point x="147" y="600" type="line"/>
      <point x="-9" y="600" type="line"/>
    </contour>
  </outline>
</glyph>
<glyph name="t" format="2">
  <advance width="450"/>
  <unicode hex="0074"/>
  <anchor x="298" y="0" name="bottom"/>
  <anchor x="223" y="300" name="center"/>
  <anchor x="98" y="800" name="top"/>
  <anchor x="145" y="960" name="topright"/>
  <outline>
    <contour>
      <point x="211" y="0" type="line"/>
      <point x="385" y="0" type="line"/>
      <point x="270" y="462" type="line"/>
      <point x="386" y="462" type="line"/>
      <point x="351" y="600" type="line"/>
      <point x="232" y="600" type="line"/>
      <point x="182" y="800" type="line"/>
      <point x="14" y="800" type="line"/>
      <point x="64" y="600" type="line"/>
      <point x="-51" y="600" type="line"/>
      <point x="-16" y="462" type="line"/>
      <point x="96" y="462" type="line"/>
    </contour>
  </outline>
</glyph>
<glyph name="u" format="2">
  <advance width="700"/>
  <unicode hex="0075"/>
  <anchor x="420" y="0" name="bottom"/>
  <anchor x="631" y="0" name="ogonek"/>
  <anchor x="271" y="600" name="top"/>
  <anchor x="481" y="600" name="topright"/>
  <outline>
    <contour>
      <point x="343" y="-20" type="curve" smooth="yes"/>
      <point x="429" y="-20"/>
      <point x="500" y="15"/>
      <point x="535" y="73" type="curve"/>
      <point x="553" y="0" type="line"/>
      <point x="709" y="0" type="line"/>
      <point x="559" y="600" type="line"/>
      <point x="385" y="600" type="line"/>
      <point x="466" y="276" type="line" smooth="yes"/>
      <point x="486" y="195"/>
      <point x="444" y="136"/>
      <point x="367" y="136" type="curve" smooth="yes"/>
      <point x="308" y="136"/>
      <point x="258" y="183"/>
      <point x="239" y="256" type="curve" smooth="yes"/>
      <point x="153" y="600" type="line"/>
      <point x="-21" y="600" type="line"/>
      <point x="77" y="208" type="line" smooth="yes"/>
      <point x="111" y="71"/>
      <point x="217" y="-20"/>
    </contour>
  </outline>
</glyph>
<glyph name="v" format="2">
  <advance width="670"/>
  <unicode hex="0076"/>
  <outline>
    <contour>
      <point x="415" y="-30" type="line"/>
      <point x="417" y="-30" type="line"/>
      <point x="589" y="600" type="line"/>
      <point x="416" y="600" type="line"/>
      <point x="370" y="407" type="line" smooth="yes"/>
      <point x="362" y="373"/>
      <point x="354" y="343"/>
      <point x="350" y="302" type="curve"/>
      <point x="325" y="343"/>
      <point x="303" y="373"/>
      <point x="278" y="407" type="curve" smooth="yes"/>
      <point x="136" y="600" type="line"/>
      <point x="-69" y="600" type="line"/>
    </contour>
  </outline>
</glyph>
<glyph name="w" format="2">
  <advance width="1000"/>
  <unicode hex="0077"/>
  <anchor x="573" y="0" name="bottom"/>
  <anchor x="421" y="600" name="top"/>
  <outline>
    <contour>
      <point x="384" y="-30" type="line"/>
      <point x="386" y="-30" type="line"/>
      <point x="465" y="201" type="line" smooth="yes"/>
      <point x="477" y="236"/>
      <point x="488" y="271"/>
      <point x="496" y="311" type="curve"/>
      <point x="524" y="271"/>
      <point x="552" y="236"/>
      <point x="581" y="201" type="curve" smooth="yes"/>
      <point x="774" y="-30" type="line"/>
      <point x="776" y="-30" type="line"/>
      <point x="919" y="600" type="line"/>
      <point x="752" y="600" type="line"/>
      <point x="707" y="407" type="line" smooth="yes"/>
      <point x="699" y="373"/>
      <point x="691" y="335"/>
      <point x="685" y="286" type="curve"/>
      <point x="655" y="332"/>
      <point x="628" y="365"/>
      <point x="603" y="399" type="curve" smooth="yes"/>
      <point x="437" y="620" type="line"/>
      <point x="435" y="620" type="line"/>
      <point x="373" y="399" type="line" smooth="yes"/>
      <point x="365" y="369"/>
      <point x="355" y="335"/>
      <point x="349" y="286" type="curve"/>
      <point x="319" y="339"/>
      <point x="294" y="373"/>
      <point x="269" y="407" type="curve" smooth="yes"/>
      <point x="130" y="600" type="line"/>
      <point x="-69" y="600" type="line"/>
    </contour>
  </outline>
</glyph>
<glyph name="x" format="2">
  <advance width="640"/>
  <unicode hex="0078"/>
  <outline>
    <contour>
      <point x="77" y="0" type="line"/>
      <point x="253" y="0" type="line"/>
      <point x="304" y="105" type="line" smooth="yes"/>
      <point x="316" y="130"/>
      <point x="325" y="152"/>
      <point x="337" y="183" type="curve"/>
      <point x="355" y="153"/>
      <point x="370" y="130"/>
      <point x="388" y="107" type="curve" smooth="yes"/>
      <point x="474" y="0" type="line"/>
      <point x="682" y="0" type="line"/>
      <point x="415" y="323" type="line"/>
      <point x="554" y="600" type="line"/>
      <point x="384" y="600" type="line"/>
      <point x="341" y="513" type="line" smooth="yes"/>
      <point x="329" y="489"/>
      <point x="321" y="469"/>
      <point x="309" y="437" type="curve"/>
      <point x="290" y="469"/>
      <point x="274" y="491"/>
      <point x="256" y="514" type="curve" smooth="yes"/>
      <point x="187" y="600" type="line"/>
      <point x="-17" y="600" type="line"/>
      <point x="230" y="298" type="line"/>
    </contour>
  </outline>
</glyph>
<glyph name="y" format="2">
  <advance width="690"/>
  <unicode hex="0079"/>
  <anchor x="535" y="0" name="bottom"/>
  <anchor x="272" y="600" name="top"/>
  <outline>
    <contour>
      <point x="212" y="-300" type="line"/>
      <point x="387" y="-300" type="line"/>
      <point x="609" y="600" type="line"/>
      <point x="436" y="600" type="line"/>
      <point x="383" y="380" type="line" smooth="yes"/>
      <point x="373" y="340"/>
      <point x="367" y="308"/>
      <point x="363" y="278" type="curve"/>
      <point x="346" y="308"/>
      <point x="325" y="340"/>
      <point x="296" y="380" type="curve" smooth="yes"/>
      <point x="135" y="600" type="line"/>
      <point x="-69" y="600" type="line"/>
      <point x="309" y="92" type="line"/>
    </contour>
  </outline>
</glyph>
<glyph name="z" format="2">
  <advance width="530"/>
  <unicode hex="007A"/>
  <anchor x="332" y="0" name="bottom"/>
  <anchor x="265" y="300" name="center"/>
  <anchor x="199" y="600" name="top"/>
  <outline>
    <contour>
      <point x="97" y="0" type="line"/>
      <point x="565" y="0" type="line"/>
      <point x="529" y="144" type="line"/>
      <point x="296" y="144" type="line"/>
      <point x="433" y="598" type="line"/>
      <point x="433" y="600" type="line"/>
      <point x="-33" y="600" type="line"/>
      <point x="3" y="456" type="line"/>
      <point x="234" y="456" type="line"/>
      <point x="97" y="2" type="line"/>
    </contour>
  </outline>
</glyph>
<glyph name="braceleft" format="2">
  <advance width="480"/>
  <unicode hex="007B"/>
  <outline>
    <contour>
      <point x="542" y="-186" type="curve"/>
      <point x="510" y="-54" type="line"/>
      <point x="438" y="-54"/>
      <point x="360" y="-36"/>
      <point x="333" y="70" type="curve" smooth="yes"/>
      <point x="321" y="123"/>
      <point x="322" y="189"/>
      <point x="308" y="245" type="curve" smooth="yes"/>
      <point x="290" y="320"/>
      <point x="247" y="359"/>
      <point x="197" y="376" type="curve"/>
      <point x="236" y="405"/>
      <point x="258" y="451"/>
      <point x="239" y="527" type="curve" smooth="yes"/>
      <point x="225" y="583"/>
      <point x="191" y="645"/>
      <point x="178" y="697" type="curve" smooth="yes"/>
      <point x="152" y="803"/>
      <point x="221" y="830"/>
      <point x="285" y="840" type="curve"/>
      <point x="253" y="966" type="line"/>
      <point x="97" y="949"/>
      <point x="-14" y="859"/>
      <point x="26" y="695" type="curve" smooth="yes"/>
      <point x="41" y="635"/>
      <point x="74" y="577"/>
      <point x="87" y="523" type="curve" smooth="yes"/>
      <point x="109" y="438"/>
      <point x="73" y="398"/>
      <point x="11" y="353" type="curve"/>
      <point x="90" y="327"/>
      <point x="143" y="298"/>
      <point x="165" y="212" type="curve" smooth="yes"/>
      <point x="178" y="158"/>
      <point x="175" y="96"/>
      <point x="190" y="35" type="curve" smooth="yes"/>
      <point x="230" y="-128"/>
      <point x="349" y="-186"/>
    </contour>
  </outline>
</glyph>
<glyph name="braceright" format="2">
  <advance width="480"/>
  <unicode hex="007D"/>
  <outline>
    <contour>
      <point x="182" y="-186" type="line"/>
      <point x="338" y="-169"/>
      <point x="449" y="-79"/>
      <point x="409" y="85" type="curve" smooth="yes"/>
      <point x="394" y="145"/>
      <point x="361" y="203"/>
      <point x="348" y="257" type="curve" smooth="yes"/>
      <point x="326" y="342"/>
      <point x="362" y="382"/>
      <point x="424" y="427" type="curve"/>
      <point x="345" y="453"/>
      <point x="292" y="482"/>
      <point x="270" y="568" type="curve" smooth="yes"/>
      <point x="257" y="622"/>
      <point x="260" y="684"/>
      <point x="245" y="745" type="curve" smooth="yes"/>
      <point x="205" y="908"/>
      <point x="86" y="966"/>
      <point x="-106" y="966" type="curve"/>
      <point x="-75" y="834" type="line"/>
      <point x="-3" y="834"/>
      <point x="75" y="816"/>
      <point x="102" y="710" type="curve" smooth="yes"/>
      <point x="114" y="657"/>
      <point x="113" y="591"/>
      <point x="127" y="535" type="curve" smooth="yes"/>
      <point x="145" y="460"/>
      <point x="188" y="421"/>
      <point x="238" y="404" type="curve"/>
      <point x="199" y="375"/>
      <point x="177" y="329"/>
      <point x="196" y="253" type="curve" smooth="yes"/>
      <point x="210" y="197"/>
      <point x="244" y="135"/>
      <point x="257" y="83" type="curve" smooth="yes"/>
      <point x="283" y="-23"/>
      <point x="214" y="-50"/>
      <point x="150" y="-60" type="curve"/>
    </contour>
  </outline>
</glyph>
<glyph name="asciitilde" format="2">
  <advance width="750"/>
  <unicode hex="007E"/>
  <outline>
    <contour>
      <point x="38" y="339" type="line"/>
      <point x="82" y="402"/>
      <point x="121" y="426"/>
      <point x="176" y="426" type="curve" smooth="yes"/>
      <point x="280" y="426"/>
      <point x="379" y="336"/>
      <point x="490" y="336" type="curve" smooth="yes"/>
      <point x="559" y="336"/>
      <point x="620" y="371"/>
      <point x="671" y="426" type="curve"/>
      <point x="637" y="560" type="line"/>
      <point x="599" y="502"/>
      <point x="556" y="474"/>
      <point x="502" y="474" type="curve" smooth="yes"/>
      <point x="405" y="474"/>
      <point x="312" y="564"/>
      <point x="189" y="564" type="curve" smooth="yes"/>
      <point x="114" y="564"/>
      <point x="57" y="531"/>
      <point x="5" y="474" type="curve"/>
    </contour>
  </outline>
</glyph>
<glyph name="exclamdown" format="2">
  <advance width="480"/>
  <unicode hex="00A1"/>
  <outline>
    <contour>
      <point x="287" y="-300" type="line"/>
      <point x="491" y="-300" type="line"/>
      <point x="311" y="270" type="line"/>
      <point x="179" y="270" type="line"/>
    </contour>
    <contour>
      <point x="199" y="410" type="curve" smooth="yes"/>
      <point x="252" y="410"/>
      <point x="291" y="450"/>
      <point x="291" y="502" type="curve" smooth="yes"/>
      <point x="291" y="565"/>
      <point x="236" y="620"/>
      <point x="173" y="620" type="curve" smooth="yes"/>
      <point x="123" y="620"/>
      <point x="81" y="581"/>
      <point x="81" y="527" type="curve" smooth="yes"/>
      <point x="81" y="465"/>
      <point x="136" y="410"/>
    </contour>
  </outline>
</glyph>
<glyph name="cent" format="2">
  <advance width="750"/>
  <unicode hex="00A2"/>
  <outline>
    <contour>
      <point x="438" y="0" type="line"/>
      <point x="546" y="0" type="line"/>
      <point x="511" y="145" type="line"/>
      <point x="562" y="158"/>
      <point x="606" y="184"/>
      <point x="639" y="218" type="curve"/>
      <point x="548" y="402" type="line"/>
      <point x="536" y="337"/>
      <point x="484" y="289"/>
      <point x="407" y="289" type="curve" smooth="yes"/>
      <point x="304" y="289"/>
      <point x="223" y="376"/>
      <point x="223" y="472" type="curve" smooth="yes"/>
      <point x="223" y="553"/>
      <point x="281" y="614"/>
      <point x="369" y="614" type="curve" smooth="yes"/>
      <point x="442" y="614"/>
      <point x="499" y="575"/>
      <point x="531" y="536" type="curve"/>
      <point x="531" y="721" type="line"/>
      <point x="483" y="752"/>
      <point x="422" y="769"/>
      <point x="357" y="770" type="curve"/>
      <point x="331" y="870" type="line"/>
      <point x="223" y="870" type="line"/>
      <point x="252" y="755" type="line"/>
      <point x="139" y="718"/>
      <point x="58" y="618"/>
      <point x="58" y="488" type="curve" smooth="yes"/>
      <point x="58" y="308"/>
      <point x="216" y="146"/>
      <point x="405" y="135" type="curve"/>
    </contour>
  </outline>
</glyph>
<glyph name="sterling" format="2">
  <advance width="750"/>
  <unicode hex="00A3"/>
  <outline>
    <contour>
      <point x="223" y="0" type="line"/>
      <point x="753" y="0" type="line"/>
      <point x="714" y="156" type="line"/>
      <point x="422" y="156" type="line"/>
      <point x="424" y="163"/>
      <point x="424" y="171"/>
      <point x="424" y="179" type="curve" smooth="yes"/>
      <point x="424" y="241"/>
      <point x="382" y="330"/>
      <point x="351" y="396" type="curve"/>
      <point x="576" y="396" type="line"/>
      <point x="549" y="504" type="line"/>
      <point x="298" y="504" type="line"/>
      <point x="283" y="543"/>
      <point x="268" y="590"/>
      <point x="268" y="636" type="curve" smooth="yes"/>
      <point x="268" y="713"/>
      <point x="311" y="764"/>
      <point x="386" y="764" type="curve" smooth="yes"/>
      <point x="447" y="764"/>
      <point x="508" y="727"/>
      <point x="549" y="682" type="curve"/>
      <point x="549" y="863" type="line"/>
      <point x="491" y="901"/>
      <point x="429" y="920"/>
      <point x="364" y="920" type="curve" smooth="yes"/>
      <point x="214" y="920"/>
      <point x="95" y="832"/>
      <point x="95" y="663" type="curve" smooth="yes"/>
      <point x="95" y="606"/>
      <point x="107" y="556"/>
      <point x="126" y="504" type="curve"/>
      <point x="39" y="504" type="line"/>
      <point x="66" y="396" type="line"/>
      <point x="175" y="396" type="line"/>
      <point x="213" y="321"/>
      <point x="269" y="215"/>
      <point x="269" y="137" type="curve" smooth="yes"/>
      <point x="269" y="87"/>
      <point x="251" y="46"/>
      <point x="223" y="2" type="curve"/>
    </contour>
  </outline>
</glyph>
<glyph name="currency" format="2">
  <advance width="750"/>
  <unicode hex="00A4"/>
  <outline>
    <contour>
      <point x="374" y="132" type="curve" smooth="yes"/>
      <point x="442" y="132"/>
      <point x="506" y="154"/>
      <point x="555" y="193" type="curve"/>
      <point x="624" y="139" type="line"/>
      <point x="708" y="249" type="line"/>
      <point x="639" y="303" type="line"/>
      <point x="653" y="336"/>
      <point x="661" y="374"/>
      <point x="661" y="414" type="curve" smooth="yes"/>
      <point x="661" y="498"/>
      <point x="627" y="578"/>
      <point x="572" y="640" type="curve"/>
      <point x="614" y="697" type="line"/>
      <point x="497" y="791" type="line"/>
      <point x="453" y="731" type="line"/>
      <point x="406" y="755"/>
      <point x="353" y="768"/>
      <point x="299" y="768" type="curve" smooth="yes"/>
      <point x="229" y="768"/>
      <point x="167" y="746"/>
      <point x="119" y="709" type="curve"/>
      <point x="52" y="761" type="line"/>
      <point x="-32" y="651" type="line"/>
      <point x="35" y="599" type="line"/>
      <point x="21" y="565"/>
      <point x="13" y="528"/>
      <point x="13" y="488" type="curve" smooth="yes"/>
      <point x="13" y="403"/>
      <point x="48" y="323"/>
      <point x="103" y="260" type="curve"/>
      <point x="61" y="203" type="line"/>
      <point x="178" y="109" type="line"/>
      <point x="222" y="169" type="line"/>
      <point x="269" y="145"/>
      <point x="321" y="132"/>
    </contour>
    <contour>
      <point x="356" y="288" type="curve" smooth="yes"/>
      <point x="259" y="288"/>
      <point x="178" y="375"/>
      <point x="178" y="470" type="curve" smooth="yes"/>
      <point x="178" y="550"/>
      <point x="236" y="613"/>
      <point x="318" y="613" type="curve" smooth="yes"/>
      <point x="415" y="613"/>
      <point x="496" y="526"/>
      <point x="496" y="430" type="curve" smooth="yes"/>
      <point x="496" y="349"/>
      <point x="438" y="288"/>
    </contour>
  </outline>
</glyph>
<glyph name="yen" format="2">
  <advance width="750"/>
  <unicode hex="00A5"/>
  <outline>
    <contour>
      <point x="357" y="0" type="line"/>
      <point x="537" y="0" type="line"/>
      <point x="465" y="294" type="line"/>
      <point x="678" y="294" type="line"/>
      <point x="651" y="402" type="line"/>
      <point x="438" y="402" type="line"/>
      <point x="432" y="426" type="line"/>
      <point x="454" y="498" type="line"/>
      <point x="627" y="498" type="line"/>
      <point x="601" y="606" type="line"/>
      <point x="486" y="606" type="line"/>
      <point x="574" y="900" type="line"/>
      <point x="392" y="900" type="line"/>
      <point x="336" y="698" type="line" smooth="yes"/>
      <point x="328" y="669"/>
      <point x="319" y="640"/>
      <point x="314" y="599" type="curve"/>
      <point x="288" y="641"/>
      <point x="266" y="668"/>
      <point x="243" y="698" type="curve" smooth="yes"/>
      <point x="86" y="901" type="line"/>
      <point x="-124" y="900" type="line"/>
      <point x="109" y="606" type="line"/>
      <point x="-5" y="606" type="line"/>
      <point x="21" y="498" type="line"/>
      <point x="195" y="498" type="line"/>
      <point x="252" y="426" type="line"/>
      <point x="258" y="402" type="line"/>
      <point x="45" y="402" type="line"/>
      <point x="72" y="294" type="line"/>
      <point x="285" y="294" type="line"/>
    </contour>
  </outline>
</glyph>
<glyph name="section" format="2">
  <advance width="750"/>
  <unicode hex="00A7"/>
  <outline>
    <contour>
      <point x="438" y="-192" type="curve" smooth="yes"/>
      <point x="588" y="-192"/>
      <point x="688" y="-105"/>
      <point x="688" y="21" type="curve" smooth="yes"/>
      <point x="688" y="107"/>
      <point x="641" y="181"/>
      <point x="564" y="231" type="curve"/>
      <point x="627" y="268"/>
      <point x="662" y="324"/>
      <point x="662" y="398" type="curve" smooth="yes"/>
      <point x="662" y="508"/>
      <point x="583" y="598"/>
      <point x="439" y="642" type="curve" smooth="yes"/>
      <point x="256" y="698" type="line" smooth="yes"/>
      <point x="213" y="711"/>
      <point x="189" y="740"/>
      <point x="189" y="774" type="curve" smooth="yes"/>
      <point x="189" y="812"/>
      <point x="218" y="834"/>
      <point x="268" y="834" type="curve" smooth="yes"/>
      <point x="323" y="834"/>
      <point x="388" y="807"/>
      <point x="439" y="764" type="curve"/>
      <point x="439" y="925" type="line"/>
      <point x="399" y="953"/>
      <point x="327" y="972"/>
      <point x="263" y="972" type="curve" smooth="yes"/>
      <point x="130" y="972"/>
      <point x="37" y="891"/>
      <point x="37" y="780" type="curve" smooth="yes"/>
      <point x="37" y="706"/>
      <point x="78" y="639"/>
      <point x="140" y="596" type="curve"/>
      <point x="69" y="558"/>
      <point x="34" y="498"/>
      <point x="34" y="422" type="curve" smooth="yes"/>
      <point x="34" y="309"/>
      <point x="110" y="224"/>
      <point x="256" y="180" type="curve" smooth="yes"/>
      <point x="444" y="123" type="line" smooth="yes"/>
      <point x="504" y="105"/>
      <point x="535" y="71"/>
      <point x="535" y="25" type="curve" smooth="yes"/>
      <point x="535" y="-23"/>
      <point x="498" y="-54"/>
      <point x="440" y="-54" type="curve" smooth="yes"/>
      <point x="380" y="-54"/>
      <point x="300" y="-21"/>
      <point x="252" y="24" type="curve"/>
      <point x="252" y="-143" type="line"/>
      <point x="296" y="-173"/>
      <point x="368" y="-192"/>
    </contour>
    <contour>
      <point x="409" y="294" type="curve" smooth="yes"/>
      <point x="399" y="294"/>
      <point x="394" y="294"/>
      <point x="389" y="295" type="curve" smooth="yes"/>
      <point x="353" y="303"/>
      <point x="332" y="309"/>
      <point x="302" y="320" type="curve" smooth="yes"/>
      <point x="215" y="352"/>
      <point x="182" y="382"/>
      <point x="182" y="433" type="curve" smooth="yes"/>
      <point x="182" y="494"/>
      <point x="228" y="529"/>
      <point x="289" y="529" type="curve" smooth="yes"/>
      <point x="293" y="529"/>
      <point x="299" y="529"/>
      <point x="309" y="527" type="curve" smooth="yes"/>
      <point x="325" y="524"/>
      <point x="360" y="514"/>
      <point x="393" y="502" type="curve" smooth="yes"/>
      <point x="477" y="471"/>
      <point x="513" y="439"/>
      <point x="513" y="388" type="curve" smooth="yes"/>
      <point x="513" y="331"/>
      <point x="468" y="294"/>
    </contour>
  </outline>
</glyph>
<glyph name="copyright" format="2">
  <advance width="1260"/>
  <unicode hex="00A9"/>
  <outline>
    <contour>
      <point x="658" y="-102" type="curve" smooth="yes"/>
      <point x="937" y="-102"/>
      <point x="1151" y="110"/>
      <point x="1151" y="385" type="curve" smooth="yes"/>
      <point x="1151" y="708"/>
      <point x="855" y="1002"/>
      <point x="528" y="1002" type="curve" smooth="yes"/>
      <point x="249" y="1002"/>
      <point x="35" y="790"/>
      <point x="35" y="515" type="curve" smooth="yes"/>
      <point x="35" y="192"/>
      <point x="331" y="-102"/>
    </contour>
    <contour>
      <point x="647" y="30" type="curve" smooth="yes"/>
      <point x="398" y="30"/>
      <point x="173" y="256"/>
      <point x="173" y="504" type="curve" smooth="yes"/>
      <point x="173" y="713"/>
      <point x="332" y="870"/>
      <point x="539" y="870" type="curve" smooth="yes"/>
      <point x="788" y="870"/>
      <point x="1013" y="644"/>
      <point x="1013" y="396" type="curve" smooth="yes"/>
      <point x="1013" y="187"/>
      <point x="854" y="30"/>
    </contour>
    <contour>
      <point x="652" y="168" type="curve" smooth="yes"/>
      <point x="733" y="168"/>
      <point x="797" y="198"/>
      <point x="845" y="248" type="curve"/>
      <point x="765" y="412" type="line"/>
      <point x="750" y="358"/>
      <point x="705" y="310"/>
      <point x="632" y="310" type="curve" smooth="yes"/>
      <point x="540" y="310"/>
      <point x="470" y="388"/>
      <point x="470" y="467" type="curve" smooth="yes"/>
      <point x="470" y="537"/>
      <point x="524" y="590"/>
      <point x="603" y="590" type="curve" smooth="yes"/>
      <point x="661" y="590"/>
      <point x="706" y="562"/>
      <point x="735" y="530" type="curve"/>
      <point x="735" y="694" type="line"/>
      <point x="693" y="719"/>
      <point x="640" y="732"/>
      <point x="587" y="732" type="curve" smooth="yes"/>
      <point x="439" y="732"/>
      <point x="324" y="628"/>
      <point x="324" y="482" type="curve" smooth="yes"/>
      <point x="324" y="316"/>
      <point x="474" y="168"/>
    </contour>
  </outline>
</glyph>
<glyph name="ordfeminine" format="2">
  <advance width="480"/>
  <unicode hex="00AA"/>
  <outline>
    <contour>
      <point x="167" y="412" type="curve" smooth="yes"/>
      <point x="210" y="412"/>
      <point x="247" y="426"/>
      <point x="272" y="450" type="curve"/>
      <point x="279" y="420" type="line"/>
      <point x="405" y="420" type="line"/>
      <point x="317" y="780" type="line"/>
      <point x="191" y="780" type="line"/>
      <point x="198" y="754" type="line"/>
      <point x="174" y="776"/>
      <point x="142" y="788"/>
      <point x="104" y="788" type="curve" smooth="yes"/>
      <point x="24" y="788"/>
      <point x="-40" y="716"/>
      <point x="-40" y="623" type="curve" smooth="yes"/>
      <point x="-40" y="510"/>
      <point x="58" y="412"/>
    </contour>
    <contour>
      <point x="171" y="520" type="curve" smooth="yes"/>
      <point x="125" y="520"/>
      <point x="83" y="562"/>
      <point x="83" y="609" type="curve" smooth="yes"/>
      <point x="83" y="649"/>
      <point x="113" y="680"/>
      <point x="149" y="680" type="curve" smooth="yes"/>
      <point x="198" y="680"/>
      <point x="241" y="637"/>
      <point x="241" y="589" type="curve" smooth="yes"/>
      <point x="241" y="550"/>
      <point x="211" y="520"/>
    </contour>
  </outline>
</glyph>
<glyph name="logicalnot" format="2">
  <advance width="750"/>
  <unicode hex="00AC"/>
  <outline>
    <contour>
      <point x="559" y="195" type="line"/>
      <point x="697" y="195" type="line"/>
      <point x="615" y="522" type="line"/>
      <point x="-5" y="522" type="line"/>
      <point x="31" y="378" type="line"/>
      <point x="513" y="378" type="line"/>
    </contour>
  </outline>
</glyph>
<glyph name="registered" format="2">
  <advance width="600"/>
  <unicode hex="00AE"/>
  <outline>
    <contour>
      <point x="242" y="394" type="curve" smooth="yes"/>
      <point x="378" y="394"/>
      <point x="481" y="495"/>
      <point x="481" y="628" type="curve" smooth="yes"/>
      <point x="481" y="784"/>
      <point x="338" y="926"/>
      <point x="179" y="926" type="curve" smooth="yes"/>
      <point x="43" y="926"/>
      <point x="-61" y="823"/>
      <point x="-61" y="690" type="curve" smooth="yes"/>
      <point x="-61" y="533"/>
      <point x="82" y="394"/>
    </contour>
    <contour>
      <point x="232" y="471" type="curve" smooth="yes"/>
      <point x="120" y="471"/>
      <point x="22" y="570"/>
      <point x="22" y="683" type="curve" smooth="yes"/>
      <point x="22" y="778"/>
      <point x="92" y="848"/>
      <point x="188" y="848" type="curve" smooth="yes"/>
      <point x="300" y="848"/>
      <point x="398" y="749"/>
      <point x="398" y="637" type="curve" smooth="yes"/>
      <point x="398" y="542"/>
      <point x="327" y="471"/>
    </contour>
    <contour>
      <point x="141" y="546" type="line"/>
      <point x="213" y="546" type="line"/>
      <point x="196" y="616" type="line"/>
      <point x="220" y="616" type="line"/>
      <point x="271" y="546" type="line"/>
      <point x="355" y="546" type="line"/>
      <point x="284" y="636" type="line"/>
      <point x="300" y="650"/>
      <point x="309" y="670"/>
      <point x="309" y="692" type="curve" smooth="yes"/>
      <point x="309" y="749"/>
      <point x="260" y="786"/>
      <point x="185" y="786" type="curve" smooth="yes"/>
      <point x="82" y="786" type="line"/>
    </contour>
    <contour>
      <point x="184" y="663" type="line"/>
      <point x="168" y="727" type="line"/>
      <point x="195" y="727" type="line" smooth="yes"/>
      <point x="218" y="727"/>
      <point x="236" y="710"/>
      <point x="236" y="690" type="curve" smooth="yes"/>
      <point x="236" y="673"/>
      <point x="223" y="663"/>
      <point x="203" y="663" type="curve" smooth="yes"/>
    </contour>
  </outline>
</glyph>
<glyph name="degree" format="2">
  <advance width="480"/>
  <unicode hex="00B0"/>
  <outline>
    <contour>
      <point x="158" y="528" type="curve" smooth="yes"/>
      <point x="262" y="528"/>
      <point x="333" y="600"/>
      <point x="333" y="694" type="curve" smooth="yes"/>
      <point x="333" y="809"/>
      <point x="231" y="912"/>
      <point x="112" y="912" type="curve" smooth="yes"/>
      <point x="8" y="912"/>
      <point x="-63" y="837"/>
      <point x="-63" y="743" type="curve" smooth="yes"/>
      <point x="-63" y="630"/>
      <point x="39" y="528"/>
    </contour>
    <contour>
      <point x="144" y="639" type="curve" smooth="yes"/>
      <point x="95" y="639"/>
      <point x="52" y="682"/>
      <point x="52" y="730" type="curve" smooth="yes"/>
      <point x="52" y="769"/>
      <point x="82" y="801"/>
      <point x="126" y="801" type="curve" smooth="yes"/>
      <point x="175" y="801"/>
      <point x="218" y="757"/>
      <point x="218" y="709" type="curve" smooth="yes"/>
      <point x="218" y="669"/>
      <point x="188" y="639"/>
    </contour>
  </outline>
</glyph>
<glyph name="plusminus" format="2">
  <advance width="750"/>
  <unicode hex="00B1"/>
  <outline>
    <contour>
      <point x="326" y="215" type="line"/>
      <point x="466" y="215" type="line"/>
      <point x="409" y="443" type="line"/>
      <point x="643" y="443" type="line"/>
      <point x="610" y="577" type="line"/>
      <point x="375" y="577" type="line"/>
      <point x="316" y="813" type="line"/>
      <point x="176" y="813" type="line"/>
      <point x="235" y="577" type="line"/>
      <point x="4" y="577" type="line"/>
      <point x="37" y="443" type="line"/>
      <point x="269" y="443" type="line"/>
    </contour>
    <contour>
      <point x="134" y="50" type="line"/>
      <point x="740" y="50" type="line"/>
      <point x="711" y="166" type="line"/>
      <point x="105" y="166" type="line"/>
    </contour>
  </outline>
</glyph>
<glyph name="micro" format="2">
  <advance width="730"/>
  <unicode hex="00B5"/>
  <unicode hex="03BC"/>
  <outline>
    <contour>
      <point x="216" y="-300" type="line"/>
      <point x="390" y="-300" type="line"/>
      <point x="309" y="24" type="line"/>
      <point x="349" y="-5"/>
      <point x="392" y="-20"/>
      <point x="436" y="-20" type="curve" smooth="yes"/>
      <point x="500" y="-20"/>
      <point x="548" y="11"/>
      <point x="567" y="70" type="curve"/>
      <point x="616" y="17"/>
      <point x="683" y="-12"/>
      <point x="758" y="-12" type="curve"/>
      <point x="758" y="127" type="line"/>
      <point x="713" y="127"/>
      <point x="684" y="149"/>
      <point x="671" y="201" type="curve" smooth="yes"/>
      <point x="572" y="600" type="line"/>
      <point x="398" y="600" type="line"/>
      <point x="482" y="262" type="line" smooth="yes"/>
      <point x="502" y="180"/>
      <point x="457" y="136"/>
      <point x="397" y="136" type="curve" smooth="yes"/>
      <point x="323" y="136"/>
      <point x="267" y="197"/>
      <point x="250" y="264" type="curve" smooth="yes"/>
      <point x="166" y="600" type="line"/>
      <point x="-8" y="600" type="line"/>
    </contour>
  </outline>
</glyph>
<glyph name="paragraph" format="2">
  <advance width="750"/>
  <unicode hex="00B6"/>
  <outline>
    <contour>
      <point x="402" y="-180" type="line"/>
      <point x="546" y="-180" type="line"/>
      <point x="293" y="834" type="line"/>
      <point x="401" y="834" type="line"/>
      <point x="654" y="-180" type="line"/>
      <point x="798" y="-180" type="line"/>
      <point x="514" y="960" type="line"/>
      <point x="280" y="960" type="line" smooth="yes"/>
      <point x="48" y="960"/>
      <point x="-52" y="821"/>
      <point x="-52" y="683" type="curve" smooth="yes"/>
      <point x="-52" y="532"/>
      <point x="70" y="378"/>
      <point x="275" y="362" type="curve"/>
    </contour>
  </outline>
</glyph>
<glyph name="ordmasculine" format="2">
  <advance width="480"/>
  <unicode hex="00BA"/>
  <outline>
    <contour>
      <point x="189" y="402" type="curve" smooth="yes"/>
      <point x="292" y="402"/>
      <point x="372" y="479"/>
      <point x="372" y="580" type="curve" smooth="yes"/>
      <point x="372" y="695"/>
      <point x="264" y="798"/>
      <point x="144" y="798" type="curve" smooth="yes"/>
      <point x="40" y="798"/>
      <point x="-40" y="721"/>
      <point x="-40" y="621" type="curve" smooth="yes"/>
      <point x="-40" y="505"/>
      <point x="68" y="402"/>
    </contour>
    <contour>
      <point x="175" y="519" type="curve" smooth="yes"/>
      <point x="127" y="519"/>
      <point x="83" y="562"/>
      <point x="83" y="608" type="curve" smooth="yes"/>
      <point x="83" y="649"/>
      <point x="115" y="681"/>
      <point x="157" y="681" type="curve" smooth="yes"/>
      <point x="205" y="681"/>
      <point x="249" y="638"/>
      <point x="249" y="592" type="curve" smooth="yes"/>
      <point x="249" y="550"/>
      <point x="217" y="519"/>
    </contour>
  </outline>
</glyph>
<glyph name="questiondown" format="2">
  <advance width="480"/>
  <unicode hex="00BF"/>
  <outline>
    <contour>
      <point x="367" y="-320" type="curve" smooth="yes"/>
      <point x="420" y="-320"/>
      <point x="493" y="-306"/>
      <point x="551" y="-245" type="curve"/>
      <point x="508" y="-74" type="line"/>
      <point x="486" y="-115"/>
      <point x="441" y="-162"/>
      <point x="373" y="-162" type="curve" smooth="yes"/>
      <point x="313" y="-162"/>
      <point x="275" y="-126"/>
      <point x="275" y="-61" type="curve" smooth="yes"/>
      <point x="275" y="35"/>
      <point x="353" y="94"/>
      <point x="313" y="268" type="curve"/>
      <point x="181" y="268" type="line"/>
      <point x="201" y="143"/>
      <point x="116" y="59"/>
      <point x="116" y="-69" type="curve" smooth="yes"/>
      <point x="116" y="-201"/>
      <point x="213" y="-320"/>
    </contour>
    <contour>
      <point x="200" y="408" type="curve" smooth="yes"/>
      <point x="253" y="408"/>
      <point x="292" y="448"/>
      <point x="292" y="500" type="curve" smooth="yes"/>
      <point x="292" y="563"/>
      <point x="237" y="618"/>
      <point x="174" y="618" type="curve" smooth="yes"/>
      <point x="124" y="618"/>
      <point x="82" y="579"/>
      <point x="82" y="525" type="curve" smooth="yes"/>
      <point x="82" y="463"/>
      <point x="137" y="408"/>
    </contour>
  </outline>
</glyph>
<glyph name="AE" format="2">
  <advance width="1040"/>
  <unicode hex="00C6"/>
  <anchor x="482" y="0" name="bottom"/>
  <anchor x="455" y="900" name="top"/>
  <outline>
    <contour>
      <point x="87" y="0" type="line"/>
      <point x="254" y="0" type="line"/>
      <point x="281" y="160" type="line"/>
      <point x="599" y="160" type="line"/>
      <point x="694" y="0" type="line"/>
      <point x="1091" y="0" type="line"/>
      <point x="1007" y="162" type="line"/>
      <point x="780" y="162" type="line"/>
      <point x="605" y="456" type="line"/>
      <point x="792" y="456" type="line"/>
      <point x="714" y="606" type="line"/>
      <point x="516" y="606" type="line"/>
      <point x="434" y="744" type="line"/>
      <point x="677" y="744" type="line"/>
      <point x="596" y="900" type="line"/>
      <point x="247" y="900" type="line"/>
    </contour>
    <contour>
      <point x="305" y="304" type="line"/>
      <point x="321" y="396" type="line" smooth="yes"/>
      <point x="331" y="456"/>
      <point x="343" y="517"/>
      <point x="346" y="597" type="curve"/>
      <point x="385" y="517"/>
      <point x="422" y="456"/>
      <point x="458" y="396" type="curve" smooth="yes"/>
      <point x="513" y="304" type="line"/>
    </contour>
  </outline>
</glyph>
<glyph name="Ccedilla" format="2">
  <advance width="870"/>
  <unicode hex="00C7"/>
  <outline>
    <contour>
      <point x="325" y="-192" type="line"/>
      <point x="516" y="-192" type="line"/>
      <point x="607" y="-14" type="line"/>
      <point x="707" y="-1"/>
      <point x="798" y="46"/>
      <point x="864" y="120" type="curve"/>
      <point x="769" y="317" type="line"/>
      <point x="736" y="221"/>
      <point x="640" y="156"/>
      <point x="531" y="156" type="curve" smooth="yes"/>
      <point x="360" y="156"/>
      <point x="208" y="312"/>
      <point x="208" y="486" type="curve" smooth="yes"/>
      <point x="208" y="632"/>
      <point x="317" y="744"/>
      <point x="459" y="744" type="curve" smooth="yes"/>
      <point x="550" y="744"/>
      <point x="641" y="697"/>
      <point x="704" y="617" type="curve"/>
      <point x="704" y="842" type="line"/>
      <point x="622" y="892"/>
      <point x="531" y="918"/>
      <point x="439" y="918" type="curve" smooth="yes"/>
      <point x="201" y="918"/>
      <point x="18" y="738"/>
      <point x="18" y="504" type="curve" smooth="yes"/>
      <point x="18" y="259"/>
      <point x="217" y="36"/>
      <point x="457" y="-9" type="curve"/>
    </contour>
  </outline>
</glyph>
<glyph name="Eth" format="2">
  <advance width="970"/>
  <unicode hex="00D0"/>
  <outline>
    <contour>
      <point x="201" y="0" type="line"/>
      <point x="456" y="0" type="line" smooth="yes"/>
      <point x="694" y="0"/>
      <point x="877" y="174"/>
      <point x="877" y="399" type="curve" smooth="yes"/>
      <point x="877" y="663"/>
      <point x="627" y="900"/>
      <point x="348" y="900" type="curve" smooth="yes"/>
      <point x="-24" y="900" type="line"/>
      <point x="65" y="543" type="line"/>
      <point x="-17" y="543" type="line"/>
      <point x="15" y="417" type="line"/>
      <point x="97" y="417" type="line"/>
    </contour>
    <contour>
      <point x="335" y="162" type="line"/>
      <point x="271" y="417" type="line"/>
      <point x="495" y="417" type="line"/>
      <point x="463" y="543" type="line"/>
      <point x="239" y="543" type="line"/>
      <point x="190" y="738" type="line"/>
      <point x="356" y="738" type="line" smooth="yes"/>
      <point x="532" y="738"/>
      <point x="687" y="585"/>
      <point x="687" y="411" type="curve" smooth="yes"/>
      <point x="687" y="266"/>
      <point x="578" y="162"/>
      <point x="425" y="162" type="curve" smooth="yes"/>
    </contour>
  </outline>
</glyph>
<glyph name="multiply" format="2">
  <advance width="750"/>
  <unicode hex="00D7"/>
  <outline>
    <contour>
      <point x="230" y="169" type="line"/>
      <point x="363" y="348" type="line"/>
      <point x="592" y="169" type="line"/>
      <point x="676" y="279" type="line"/>
      <point x="445" y="459" type="line"/>
      <point x="577" y="637" type="line"/>
      <point x="460" y="731" type="line"/>
      <point x="327" y="552" type="line"/>
      <point x="98" y="731" type="line"/>
      <point x="14" y="621" type="line"/>
      <point x="245" y="441" type="line"/>
      <point x="113" y="263" type="line"/>
    </contour>
  </outline>
</glyph>
<glyph name="Oslash" format="2">
  <advance width="1060"/>
  <unicode hex="00D8"/>
  <anchor x="605" y="0" name="bottom"/>
  <anchor x="380" y="900" name="top"/>
  <outline>
    <contour>
      <point x="547" y="-18" type="curve" smooth="yes"/>
      <point x="786" y="-18"/>
      <point x="968" y="163"/>
      <point x="968" y="396" type="curve" smooth="yes"/>
      <point x="968" y="530"/>
      <point x="909" y="657"/>
      <point x="815" y="753" type="curve"/>
      <point x="898" y="852" type="line"/>
      <point x="813" y="920" type="line"/>
      <point x="732" y="823" type="line"/>
      <point x="647" y="882"/>
      <point x="545" y="918"/>
      <point x="439" y="918" type="curve" smooth="yes"/>
      <point x="200" y="918"/>
      <point x="18" y="736"/>
      <point x="18" y="503" type="curve" smooth="yes"/>
      <point x="18" y="370"/>
      <point x="77" y="243"/>
      <point x="170" y="147" type="curve"/>
      <point x="88" y="48" type="line"/>
      <point x="173" y="-20" type="line"/>
      <point x="254" y="77" type="line"/>
      <point x="339" y="18"/>
      <point x="441" y="-18"/>
    </contour>
    <contour>
      <point x="283" y="282" type="line"/>
      <point x="236" y="340"/>
      <point x="208" y="413"/>
      <point x="208" y="489" type="curve" smooth="yes"/>
      <point x="208" y="634"/>
      <point x="315" y="744"/>
      <point x="458" y="744" type="curve" smooth="yes"/>
      <point x="517" y="744"/>
      <point x="574" y="725"/>
      <point x="623" y="692" type="curve"/>
    </contour>
    <contour>
      <point x="527" y="156" type="curve" smooth="yes"/>
      <point x="468" y="156"/>
      <point x="411" y="175"/>
      <point x="363" y="208" type="curve"/>
      <point x="704" y="618" type="line"/>
      <point x="750" y="560"/>
      <point x="778" y="488"/>
      <point x="778" y="413" type="curve" smooth="yes"/>
      <point x="778" y="268"/>
      <point x="669" y="156"/>
    </contour>
  </outline>
</glyph>
<glyph name="Thorn" format="2">
  <advance width="740"/>
  <unicode hex="00DE"/>
  <outline>
    <contour>
      <point x="171" y="0" type="line"/>
      <point x="345" y="0" type="line"/>
      <point x="303" y="169" type="line"/>
      <point x="379" y="169" type="line" smooth="yes"/>
      <point x="541" y="169"/>
      <point x="665" y="287"/>
      <point x="665" y="440" type="curve" smooth="yes"/>
      <point x="665" y="619"/>
      <point x="498" y="780"/>
      <point x="306" y="780" type="curve" smooth="yes"/>
      <point x="150" y="780" type="line"/>
      <point x="120" y="900" type="line"/>
      <point x="-54" y="900" type="line"/>
    </contour>
    <contour>
      <point x="264" y="325" type="line"/>
      <point x="189" y="624" type="line"/>
      <point x="301" y="624" type="line" smooth="yes"/>
      <point x="405" y="624"/>
      <point x="485" y="545"/>
      <point x="485" y="454" type="curve" smooth="yes"/>
      <point x="485" y="379"/>
      <point x="428" y="325"/>
      <point x="337" y="325" type="curve" smooth="yes"/>
    </contour>
  </outline>
</glyph>
<glyph name="germandbls" format="2">
  <advance width="730"/>
  <unicode hex="00DF"/>
  <outline>
    <contour>
      <point x="444" y="-17" type="line"/>
      <point x="574" y="6"/>
      <point x="679" y="125"/>
      <point x="679" y="277" type="curve" smooth="yes"/>
      <point x="679" y="413"/>
      <point x="595" y="554"/>
      <point x="454" y="616" type="curve"/>
      <point x="472" y="646"/>
      <point x="483" y="681"/>
      <point x="483" y="718" type="curve" smooth="yes"/>
      <point x="483" y="850"/>
      <point x="366" y="980"/>
      <point x="203" y="980" type="curve" smooth="yes"/>
      <point x="24" y="980"/>
      <point x="-68" y="837"/>
      <point x="-30" y="684" type="curve" smooth="yes"/>
      <point x="141" y="0" type="line"/>
      <point x="315" y="0" type="line"/>
      <point x="138" y="708" type="line" smooth="yes"/>
      <point x="126" y="757"/>
      <point x="141" y="824"/>
      <point x="217" y="824" type="curve" smooth="yes"/>
      <point x="288" y="824"/>
      <point x="325" y="758"/>
      <point x="325" y="703" type="curve" smooth="yes"/>
      <point x="325" y="651"/>
      <point x="297" y="595"/>
      <point x="233" y="546" type="curve"/>
      <point x="233" y="544" type="line"/>
      <point x="379" y="513"/>
      <point x="498" y="422"/>
      <point x="498" y="288" type="curve" smooth="yes"/>
      <point x="498" y="208"/>
      <point x="442" y="153"/>
      <point x="369" y="133" type="curve"/>
    </contour>
  </outline>
</glyph>
<glyph name="ae" format="2">
  <advance width="1090"/>
  <unicode hex="00E6"/>
  <anchor x="615" y="0" name="bottom"/>
  <anchor x="465" y="600" name="top"/>
  <outline>
    <contour>
      <point x="318" y="-20" type="curve" smooth="yes"/>
      <point x="418" y="-20"/>
      <point x="493" y="10"/>
      <point x="554" y="81" type="curve"/>
      <point x="620" y="19"/>
      <point x="710" y="-20"/>
      <point x="807" y="-20" type="curve" smooth="yes"/>
      <point x="901" y="-20"/>
      <point x="994" y="14"/>
      <point x="1050" y="71" type="curve"/>
      <point x="975" y="219" type="line"/>
      <point x="940" y="160"/>
      <point x="874" y="124"/>
      <point x="800" y="124" type="curve" smooth="yes"/>
      <point x="719" y="124"/>
      <point x="647" y="175"/>
      <point x="616" y="259" type="curve"/>
      <point x="654" y="252"/>
      <point x="684" y="249"/>
      <point x="713" y="249" type="curve" smooth="yes"/>
      <point x="1056" y="249" type="line"/>
      <point x="1051" y="300" type="line" smooth="yes"/>
      <point x="1033" y="484"/>
      <point x="895" y="620"/>
      <point x="715" y="620" type="curve" smooth="yes"/>
      <point x="636" y="620"/>
      <point x="567" y="591"/>
      <point x="518" y="542" type="curve"/>
      <point x="464" y="592"/>
      <point x="386" y="620"/>
      <point x="291" y="620" type="curve" smooth="yes"/>
      <point x="192" y="620"/>
      <point x="96" y="587"/>
      <point x="28" y="531" type="curve"/>
      <point x="97" y="391" type="line"/>
      <point x="140" y="446"/>
      <point x="216" y="482"/>
      <point x="290" y="482" type="curve" smooth="yes"/>
      <point x="365" y="482"/>
      <point x="422" y="449"/>
      <point x="446" y="400" type="curve"/>
      <point x="444" y="391"/>
      <point x="443" y="381"/>
      <point x="442" y="371" type="curve"/>
      <point x="403" y="380"/>
      <point x="359" y="384"/>
      <point x="320" y="384" type="curve" smooth="yes"/>
      <point x="169" y="384"/>
      <point x="70" y="304"/>
      <point x="70" y="188" type="curve" smooth="yes"/>
      <point x="70" y="67"/>
      <point x="172" y="-20"/>
    </contour>
    <contour>
      <point x="330" y="112" type="curve" smooth="yes"/>
      <point x="271" y="112"/>
      <point x="233" y="139"/>
      <point x="233" y="184" type="curve" smooth="yes"/>
      <point x="233" y="232"/>
      <point x="279" y="261"/>
      <point x="364" y="261" type="curve" smooth="yes"/>
      <point x="395" y="261"/>
      <point x="422" y="258"/>
      <point x="453" y="252" type="curve"/>
      <point x="478" y="184" type="line"/>
      <point x="456" y="142"/>
      <point x="399" y="112"/>
    </contour>
    <contour>
      <point x="596" y="365" type="curve"/>
      <point x="606" y="436"/>
      <point x="659" y="482"/>
      <point x="726" y="482" type="curve" smooth="yes"/>
      <point x="797" y="482"/>
      <point x="855" y="441"/>
      <point x="890" y="366" type="curve"/>
      <point x="858" y="372"/>
      <point x="824" y="375"/>
      <point x="787" y="375" type="curve" smooth="yes"/>
      <point x="687" y="375" type="line" smooth="yes"/>
      <point x="658" y="375"/>
      <point x="629" y="372"/>
    </contour>
  </outline>
</glyph>
<glyph name="ccedilla" format="2">
  <advance width="600"/>
  <unicode hex="00E7"/>
  <outline>
    <contour>
      <point x="211" y="-192" type="line"/>
      <point x="402" y="-192" type="line"/>
      <point x="497" y="-5" type="line"/>
      <point x="545" y="9"/>
      <point x="585" y="33"/>
      <point x="618" y="65" type="curve"/>
      <point x="529" y="244" type="line"/>
      <point x="514" y="185"/>
      <point x="462" y="137"/>
      <point x="385" y="137" type="curve" smooth="yes"/>
      <point x="282" y="137"/>
      <point x="201" y="224"/>
      <point x="201" y="320" type="curve" smooth="yes"/>
      <point x="201" y="401"/>
      <point x="259" y="462"/>
      <point x="347" y="462" type="curve" smooth="yes"/>
      <point x="420" y="462"/>
      <point x="477" y="423"/>
      <point x="509" y="384" type="curve"/>
      <point x="509" y="569" type="line"/>
      <point x="462" y="601"/>
      <point x="396" y="618"/>
      <point x="332" y="618" type="curve" smooth="yes"/>
      <point x="165" y="618"/>
      <point x="36" y="501"/>
      <point x="36" y="337" type="curve" smooth="yes"/>
      <point x="36" y="169"/>
      <point x="171" y="18"/>
      <point x="341" y="-12" type="curve"/>
    </contour>
  </outline>
</glyph>
<glyph name="eth" format="2">
  <advance width="720"/>
  <unicode hex="00F0"/>
  <outline>
    <contour>
      <point x="398" y="-20" type="curve" smooth="yes"/>
      <point x="563" y="-20"/>
      <point x="682" y="100"/>
      <point x="682" y="266" type="curve" smooth="yes"/>
      <point x="682" y="384"/>
      <point x="617" y="505"/>
      <point x="501" y="624" type="curve" smooth="yes"/>
      <point x="457" y="669"/>
      <point x="386" y="739"/>
      <point x="297" y="815" type="curve"/>
      <point x="394" y="905" type="line"/>
      <point x="332" y="970" type="line"/>
      <point x="228" y="875" type="line"/>
      <point x="176" y="917"/>
      <point x="151" y="937"/>
      <point x="120" y="960" type="curve"/>
      <point x="-89" y="960" type="line"/>
      <point x="16" y="878"/>
      <point x="74" y="831"/>
      <point x="130" y="784" type="curve"/>
      <point x="22" y="685" type="line"/>
      <point x="85" y="619" type="line"/>
      <point x="200" y="725" type="line"/>
      <point x="238" y="693"/>
      <point x="279" y="657"/>
      <point x="329" y="610" type="curve"/>
      <point x="318" y="613"/>
      <point x="313" y="614"/>
      <point x="299" y="614" type="curve" smooth="yes"/>
      <point x="148" y="614"/>
      <point x="35" y="497"/>
      <point x="35" y="340" type="curve" smooth="yes"/>
      <point x="35" y="148"/>
      <point x="205" y="-20"/>
    </contour>
    <contour>
      <point x="382" y="136" type="curve" smooth="yes"/>
      <point x="285" y="136"/>
      <point x="200" y="223"/>
      <point x="200" y="321" type="curve" smooth="yes"/>
      <point x="200" y="403"/>
      <point x="258" y="464"/>
      <point x="338" y="464" type="curve" smooth="yes"/>
      <point x="433" y="464"/>
      <point x="517" y="377"/>
      <point x="517" y="278" type="curve" smooth="yes"/>
      <point x="517" y="195"/>
      <point x="461" y="136"/>
    </contour>
  </outline>
</glyph>
<glyph name="divide" format="2">
  <advance width="750"/>
  <unicode hex="00F7"/>
  <outline>
    <contour>
      <point x="31" y="378" type="line"/>
      <point x="681" y="378" type="line"/>
      <point x="645" y="522" type="line"/>
      <point x="-5" y="522" type="line"/>
    </contour>
    <contour>
      <point x="409" y="111" type="curve" smooth="yes"/>
      <point x="459" y="111"/>
      <point x="496" y="149"/>
      <point x="496" y="198" type="curve" smooth="yes"/>
      <point x="496" y="257"/>
      <point x="444" y="309"/>
      <point x="385" y="309" type="curve" smooth="yes"/>
      <point x="337" y="309"/>
      <point x="298" y="272"/>
      <point x="298" y="221" type="curve" smooth="yes"/>
      <point x="298" y="163"/>
      <point x="350" y="111"/>
    </contour>
    <contour>
      <point x="289" y="591" type="curve" smooth="yes"/>
      <point x="339" y="591"/>
      <point x="376" y="629"/>
      <point x="376" y="678" type="curve" smooth="yes"/>
      <point x="376" y="737"/>
      <point x="324" y="789"/>
      <point x="265" y="789" type="curve" smooth="yes"/>
      <point x="217" y="789"/>
      <point x="178" y="752"/>
      <point x="178" y="701" type="curve" smooth="yes"/>
      <point x="178" y="643"/>
      <point x="230" y="591"/>
    </contour>
  </outline>
</glyph>
<glyph name="oslash" format="2">
  <advance width="720"/>
  <unicode hex="00F8"/>
  <anchor x="285" y="600" name="top"/>
  <outline>
    <contour>
      <point x="398" y="-20" type="curve" smooth="yes"/>
      <point x="562" y="-20"/>
      <point x="684" y="104"/>
      <point x="684" y="262" type="curve" smooth="yes"/>
      <point x="684" y="349"/>
      <point x="647" y="432"/>
      <point x="589" y="496" type="curve"/>
      <point x="640" y="557" type="line"/>
      <point x="563" y="624" type="line"/>
      <point x="511" y="562" type="line"/>
      <point x="455" y="599"/>
      <point x="390" y="620"/>
      <point x="323" y="620" type="curve" smooth="yes"/>
      <point x="166" y="620"/>
      <point x="36" y="501"/>
      <point x="36" y="336" type="curve" smooth="yes"/>
      <point x="36" y="251"/>
      <point x="71" y="169"/>
      <point x="128" y="106" type="curve"/>
      <point x="74" y="42" type="line"/>
      <point x="151" y="-25" type="line"/>
      <point x="205" y="39" type="line"/>
      <point x="262" y="2"/>
      <point x="328" y="-20"/>
    </contour>
    <contour>
      <point x="224" y="221" type="line"/>
      <point x="206" y="251"/>
      <point x="195" y="285"/>
      <point x="195" y="321" type="curve" smooth="yes"/>
      <point x="195" y="405"/>
      <point x="255" y="470"/>
      <point x="340" y="470" type="curve" smooth="yes"/>
      <point x="368" y="470"/>
      <point x="394" y="463"/>
      <point x="418" y="451" type="curve"/>
    </contour>
    <contour>
      <point x="380" y="130" type="curve" smooth="yes"/>
      <point x="351" y="130"/>
      <point x="323" y="138"/>
      <point x="299" y="151" type="curve"/>
      <point x="493" y="382" type="line"/>
      <point x="513" y="352"/>
      <point x="525" y="316"/>
      <point x="525" y="279" type="curve" smooth="yes"/>
      <point x="525" y="196"/>
      <point x="465" y="130"/>
    </contour>
  </outline>
</glyph>
<glyph name="thorn" format="2">
  <advance width="740"/>
  <unicode hex="00FE"/>
  <outline>
    <contour>
      <point x="216" y="-300" type="line"/>
      <point x="390" y="-300" type="line"/>
      <point x="308" y="29" type="line"/>
      <point x="350" y="2"/>
      <point x="398" y="-14"/>
      <point x="452" y="-14" type="curve" smooth="yes"/>
      <point x="595" y="-14"/>
      <point x="704" y="103"/>
      <point x="704" y="256" type="curve" smooth="yes"/>
      <point x="704" y="448"/>
      <point x="534" y="614"/>
      <point x="353" y="614" type="curve" smooth="yes"/>
      <point x="286" y="614"/>
      <point x="224" y="592"/>
      <point x="178" y="553" type="curve"/>
      <point x="75" y="960" type="line"/>
      <point x="-99" y="960" type="line"/>
    </contour>
    <contour>
      <point x="404" y="139" type="curve" smooth="yes"/>
      <point x="308" y="139"/>
      <point x="228" y="225"/>
      <point x="228" y="320" type="curve" smooth="yes"/>
      <point x="228" y="400"/>
      <point x="285" y="460"/>
      <point x="366" y="460" type="curve" smooth="yes"/>
      <point x="462" y="460"/>
      <point x="542" y="374"/>
      <point x="542" y="280" type="curve" smooth="yes"/>
      <point x="542" y="201"/>
      <point x="485" y="139"/>
    </contour>
  </outline>
</glyph>
<glyph name="Aogonek" format="2">
  <advance width="820"/>
  <unicode hex="0104"/>
  <outline>
    <contour>
      <point x="867" y="-318" type="curve"/>
      <point x="867" y="-188" type="line"/>
      <point x="812" y="-186"/>
      <point x="774" y="-154"/>
      <point x="774" y="-105" type="curve" smooth="yes"/>
      <point x="774" y="-54"/>
      <point x="814" y="-16"/>
      <point x="883" y="0" type="curve"/>
      <point x="256" y="932" type="line"/>
      <point x="254" y="932" type="line"/>
      <point x="87" y="0" type="line"/>
      <point x="250" y="0" type="line"/>
      <point x="277" y="160" type="line"/>
      <point x="583" y="160" type="line"/>
      <point x="696" y="-9" type="line"/>
      <point x="643" y="-53"/>
      <point x="627" y="-98"/>
      <point x="627" y="-139" type="curve" smooth="yes"/>
      <point x="627" y="-249"/>
      <point x="719" y="-318"/>
    </contour>
    <contour>
      <point x="302" y="304" type="line"/>
      <point x="318" y="396" type="line" smooth="yes"/>
      <point x="327" y="445"/>
      <point x="335" y="487"/>
      <point x="336" y="548" type="curve"/>
      <point x="366" y="488"/>
      <point x="393" y="445"/>
      <point x="426" y="396" type="curve" smooth="yes"/>
      <point x="487" y="304" type="line"/>
    </contour>
  </outline>
</glyph>
<glyph name="aogonek" format="2">
  <advance width="740"/>
  <unicode hex="0105"/>
  <outline>
    <contour>
      <point x="777" y="-318" type="curve"/>
      <point x="777" y="-188" type="line"/>
      <point x="721" y="-186"/>
      <point x="684" y="-153"/>
      <point x="684" y="-105" type="curve" smooth="yes"/>
      <point x="684" y="-60"/>
      <point x="709" y="-18"/>
      <point x="748" y="0" type="curve"/>
      <point x="599" y="600" type="line"/>
      <point x="449" y="600" type="line"/>
      <point x="462" y="549" type="line"/>
      <point x="414" y="588"/>
      <point x="355" y="614"/>
      <point x="288" y="614" type="curve" smooth="yes"/>
      <point x="145" y="614"/>
      <point x="36" y="497"/>
      <point x="36" y="344" type="curve" smooth="yes"/>
      <point x="36" y="152"/>
      <point x="206" y="-14"/>
      <point x="387" y="-14" type="curve" smooth="yes"/>
      <point x="464" y="-14"/>
      <point x="534" y="15"/>
      <point x="582" y="65" type="curve"/>
      <point x="598" y="0" type="line"/>
      <point x="559" y="-43"/>
      <point x="537" y="-91"/>
      <point x="537" y="-136" type="curve" smooth="yes"/>
      <point x="537" y="-249"/>
      <point x="628" y="-318"/>
    </contour>
    <contour>
      <point x="374" y="140" type="curve" smooth="yes"/>
      <point x="278" y="140"/>
      <point x="198" y="226"/>
      <point x="198" y="320" type="curve" smooth="yes"/>
      <point x="198" y="399"/>
      <point x="255" y="461"/>
      <point x="336" y="461" type="curve" smooth="yes"/>
      <point x="432" y="461"/>
      <point x="512" y="375"/>
      <point x="512" y="280" type="curve" smooth="yes"/>
      <point x="512" y="200"/>
      <point x="455" y="140"/>
    </contour>
  </outline>
</glyph>
<glyph name="Eogonek" format="2">
  <advance width="630"/>
  <unicode hex="0118"/>
  <anchor x="186" y="900" name="top"/>
  <outline>
    <contour>
      <point x="678" y="-318" type="curve"/>
      <point x="678" y="-188" type="line"/>
      <point x="623" y="-186"/>
      <point x="585" y="-154"/>
      <point x="585" y="-105" type="curve" smooth="yes"/>
      <point x="585" y="-54"/>
      <point x="614" y="-16"/>
      <point x="651" y="0" type="curve"/>
      <point x="612" y="156" type="line"/>
      <point x="306" y="156" type="line"/>
      <point x="231" y="456" type="line"/>
      <point x="467" y="456" type="line"/>
      <point x="430" y="606" type="line"/>
      <point x="193" y="606" type="line"/>
      <point x="160" y="738" type="line"/>
      <point x="466" y="738" type="line"/>
      <point x="426" y="900" type="line"/>
      <point x="-54" y="900" type="line"/>
      <point x="171" y="0" type="line"/>
      <point x="501" y="0" type="line"/>
      <point x="453" y="-47"/>
      <point x="438" y="-95"/>
      <point x="438" y="-139" type="curve" smooth="yes"/>
      <point x="438" y="-249"/>
      <point x="530" y="-318"/>
    </contour>
  </outline>
</glyph>
<glyph name="eogonek" format="2">
  <advance width="690"/>
  <unicode hex="0119"/>
  <anchor x="277" y="600" name="top"/>
  <outline>
    <contour>
      <point x="669" y="-318" type="curve"/>
      <point x="669" y="-188" type="line"/>
      <point x="614" y="-185"/>
      <point x="576" y="-142"/>
      <point x="576" y="-85" type="curve" smooth="yes"/>
      <point x="576" y="-24"/>
      <point x="608" y="19"/>
      <point x="650" y="71" type="curve"/>
      <point x="575" y="219" type="line"/>
      <point x="540" y="160"/>
      <point x="474" y="124"/>
      <point x="400" y="124" type="curve" smooth="yes"/>
      <point x="313" y="124"/>
      <point x="241" y="175"/>
      <point x="210" y="259" type="curve"/>
      <point x="248" y="252"/>
      <point x="278" y="249"/>
      <point x="307" y="249" type="curve" smooth="yes"/>
      <point x="656" y="249" type="line"/>
      <point x="651" y="300" type="line" smooth="yes"/>
      <point x="633" y="484"/>
      <point x="495" y="620"/>
      <point x="315" y="620" type="curve" smooth="yes"/>
      <point x="151" y="620"/>
      <point x="35" y="507"/>
      <point x="35" y="341" type="curve" smooth="yes"/>
      <point x="35" y="143"/>
      <point x="201" y="-20"/>
      <point x="407" y="-20" type="curve" smooth="yes"/>
      <point x="431" y="-20"/>
      <point x="456" y="-18"/>
      <point x="479" y="-13" type="curve"/>
      <point x="441" y="-56"/>
      <point x="429" y="-99"/>
      <point x="429" y="-139" type="curve" smooth="yes"/>
      <point x="429" y="-249"/>
      <point x="521" y="-318"/>
    </contour>
    <contour>
      <point x="190" y="365" type="curve"/>
      <point x="200" y="436"/>
      <point x="253" y="482"/>
      <point x="326" y="482" type="curve" smooth="yes"/>
      <point x="397" y="482"/>
      <point x="455" y="441"/>
      <point x="490" y="366" type="curve"/>
      <point x="458" y="372"/>
      <point x="424" y="375"/>
      <point x="387" y="375" type="curve" smooth="yes"/>
      <point x="281" y="375" type="line" smooth="yes"/>
      <point x="252" y="375"/>
      <point x="223" y="372"/>
    </contour>
  </outline>
</glyph>
<glyph name="Hbar" format="2">
  <advance width="800"/>
  <unicode hex="0126"/>
  <outline>
    <contour>
      <point x="171" y="0" type="line"/>
      <point x="345" y="0" type="line"/>
      <point x="241" y="414" type="line"/>
      <point x="501" y="414" type="line"/>
      <point x="605" y="0" type="line"/>
      <point x="779" y="0" type="line"/>
      <point x="612" y="666" type="line"/>
      <point x="681" y="666" type="line"/>
      <point x="655" y="774" type="line"/>
      <point x="585" y="774" type="line"/>
      <point x="554" y="900" type="line"/>
      <point x="380" y="900" type="line"/>
      <point x="411" y="774" type="line"/>
      <point x="151" y="774" type="line"/>
      <point x="120" y="900" type="line"/>
      <point x="-54" y="900" type="line"/>
      <point x="-23" y="774" type="line"/>
      <point x="-85" y="774" type="line"/>
      <point x="-59" y="666" type="line"/>
      <point x="4" y="666" type="line"/>
    </contour>
    <contour>
      <point x="200" y="576" type="line"/>
      <point x="178" y="666" type="line"/>
      <point x="438" y="666" type="line"/>
      <point x="460" y="576" type="line"/>
    </contour>
  </outline>
</glyph>
<glyph name="hbar" format="2">
  <advance width="700"/>
  <unicode hex="0127"/>
  <outline>
    <contour>
      <point x="141" y="0" type="line"/>
      <point x="315" y="0" type="line"/>
      <point x="234" y="324" type="line" smooth="yes"/>
      <point x="214" y="405"/>
      <point x="256" y="464"/>
      <point x="333" y="464" type="curve" smooth="yes"/>
      <point x="392" y="464"/>
      <point x="443" y="417"/>
      <point x="461" y="344" type="curve" smooth="yes"/>
      <point x="547" y="0" type="line"/>
      <point x="721" y="0" type="line"/>
      <point x="623" y="392" type="line" smooth="yes"/>
      <point x="589" y="529"/>
      <point x="483" y="620"/>
      <point x="357" y="620" type="curve" smooth="yes"/>
      <point x="281" y="620"/>
      <point x="216" y="592"/>
      <point x="178" y="545" type="curve"/>
      <point x="133" y="726" type="line"/>
      <point x="321" y="726" type="line"/>
      <point x="295" y="834" type="line"/>
      <point x="106" y="834" type="line"/>
      <point x="75" y="960" type="line"/>
      <point x="-99" y="960" type="line"/>
      <point x="-67" y="834" type="line"/>
      <point x="-121" y="834" type="line"/>
      <point x="-95" y="726" type="line"/>
      <point x="-40" y="726" type="line"/>
    </contour>
  </outline>
</glyph>
<glyph name="Iogonek" format="2">
  <advance width="390"/>
  <unicode hex="012E"/>
  <outline>
    <contour>
      <point x="372" y="-318" type="curve"/>
      <point x="372" y="-188" type="line"/>
      <point x="316" y="-186"/>
      <point x="279" y="-153"/>
      <point x="279" y="-105" type="curve" smooth="yes"/>
      <point x="279" y="-60"/>
      <point x="312" y="-18"/>
      <point x="363" y="0" type="curve"/>
      <point x="138" y="900" type="line"/>
      <point x="-48" y="900" type="line"/>
      <point x="179" y="-8" type="line"/>
      <point x="148" y="-43"/>
      <point x="132" y="-91"/>
      <point x="132" y="-136" type="curve" smooth="yes"/>
      <point x="132" y="-249"/>
      <point x="223" y="-318"/>
    </contour>
  </outline>
</glyph>
<glyph name="idotless" format="2">
  <advance width="310"/>
  <unicode hex="0131"/>
  <anchor x="230" y="0" name="bottom"/>
  <anchor x="230" y="0" name="ogonek"/>
  <anchor x="80" y="600" name="top"/>
  <outline>
    <contour>
      <point x="143" y="0" type="line"/>
      <point x="317" y="0" type="line"/>
      <point x="167" y="600" type="line"/>
      <point x="-7" y="600" type="line"/>
    </contour>
  </outline>
</glyph>
<glyph name="kgreenlandic" format="2">
  <advance width="670"/>
  <unicode hex="0138"/>
  <anchor x="421" y="0" name="bottom"/>
  <anchor x="225" y="600" name="top"/>
  <outline>
    <contour>
      <point x="507" y="0" type="line"/>
      <point x="718" y="0" type="line"/>
      <point x="409" y="335" type="line"/>
      <point x="584" y="600" type="line"/>
      <point x="403" y="600" type="line"/>
      <point x="225" y="311" type="line"/>
    </contour>
    <contour>
      <point x="141" y="0" type="line"/>
      <point x="315" y="0" type="line"/>
      <point x="165" y="600" type="line"/>
      <point x="-9" y="600" type="line"/>
    </contour>
  </outline>
</glyph>
<glyph name="Lslash" format="2">
  <advance width="600"/>
  <unicode hex="0141"/>
  <outline>
    <contour>
      <point x="171" y="0" type="line"/>
      <point x="627" y="0" type="line"/>
      <point x="587" y="162" type="line"/>
      <point x="317" y="162" type="line"/>
      <point x="244" y="453" type="line"/>
      <point x="439" y="579" type="line"/>
      <point x="377" y="676" type="line"/>
      <point x="214" y="571" type="line"/>
      <point x="132" y="900" type="line"/>
      <point x="-54" y="900" type="line"/>
      <point x="54" y="468" type="line"/>
      <point x="-36" y="410" type="line"/>
      <point x="26" y="313" type="line"/>
      <point x="83" y="350" type="line"/>
    </contour>
  </outline>
</glyph>
<glyph name="lslash" format="2">
  <advance width="370"/>
  <unicode hex="0142"/>
  <outline>
    <contour>
      <point x="173" y="0" type="line"/>
      <point x="347" y="0" type="line"/>
      <point x="225" y="489" type="line"/>
      <point x="314" y="560" type="line"/>
      <point x="257" y="635" type="line"/>
      <point x="200" y="590" type="line"/>
      <point x="107" y="960" type="line"/>
      <point x="-67" y="960" type="line"/>
      <point x="54" y="475" type="line"/>
      <point x="-40" y="400" type="line"/>
      <point x="17" y="325" type="line"/>
      <point x="79" y="374" type="line"/>
    </contour>
  </outline>
</glyph>
<glyph name="Eng" format="2">
  <advance width="900"/>
  <unicode hex="014A"/>
  <anchor x="606" y="-200" name="bottom"/>
  <anchor x="292" y="840" name="top"/>
  <outline>
    <contour>
      <point x="606" y="-200" type="curve" smooth="yes"/>
      <point x="791" y="-200"/>
      <point x="895" y="-69"/>
      <point x="848" y="122" type="curve" smooth="yes"/>
      <point x="655" y="900" type="line"/>
      <point x="487" y="900" type="line"/>
      <point x="609" y="406" type="line"/>
      <point x="-59" y="930" type="line"/>
      <point x="-61" y="930" type="line"/>
      <point x="171" y="0" type="line"/>
      <point x="339" y="0" type="line"/>
      <point x="216" y="495" type="line"/>
      <point x="677" y="134" type="line"/>
      <point x="682" y="115" type="line" smooth="yes"/>
      <point x="702" y="40"/>
      <point x="663" y="-32"/>
      <point x="571" y="-32" type="curve" smooth="yes"/>
      <point x="525" y="-32"/>
      <point x="484" y="-15"/>
      <point x="451" y="18" type="curve"/>
      <point x="451" y="-153" type="line"/>
      <point x="497" y="-185"/>
      <point x="547" y="-200"/>
    </contour>
  </outline>
</glyph>
<glyph name="eng" format="2">
  <advance width="700"/>
  <unicode hex="014B"/>
  <outline>
    <contour>
      <point x="591" y="-312" type="line"/>
      <point x="710" y="-296"/>
      <point x="774" y="-210"/>
      <point x="741" y="-79" type="curve" smooth="yes"/>
      <point x="623" y="392" type="line" smooth="yes"/>
      <point x="589" y="529"/>
      <point x="483" y="620"/>
      <point x="357" y="620" type="curve" smooth="yes"/>
      <point x="271" y="620"/>
      <point x="200" y="585"/>
      <point x="165" y="527" type="curve"/>
      <point x="147" y="600" type="line"/>
      <point x="-9" y="600" type="line"/>
      <point x="141" y="0" type="line"/>
      <point x="315" y="0" type="line"/>
      <point x="234" y="324" type="line" smooth="yes"/>
      <point x="214" y="405"/>
      <point x="256" y="464"/>
      <point x="333" y="464" type="curve" smooth="yes"/>
      <point x="392" y="464"/>
      <point x="443" y="417"/>
      <point x="461" y="344" type="curve" smooth="yes"/>
      <point x="571" y="-96" type="line" smooth="yes"/>
      <point x="584" y="-147"/>
      <point x="568" y="-171"/>
      <point x="526" y="-178" type="curve"/>
    </contour>
  </outline>
</glyph>
<glyph name="OE" format="2">
  <advance width="1320"/>
  <unicode hex="0152"/>
  <anchor x="735" y="0" name="bottom"/>
  <anchor x="511" y="900" name="top"/>
  <outline>
    <contour>
      <point x="547" y="-18" type="curve" smooth="yes"/>
      <point x="663" y="-18"/>
      <point x="765" y="25"/>
      <point x="837" y="95" type="curve"/>
      <point x="862" y="0" type="line"/>
      <point x="1341" y="0" type="line"/>
      <point x="1301" y="162" type="line"/>
      <point x="996" y="162" type="line"/>
      <point x="922" y="456" type="line"/>
      <point x="1157" y="456" type="line"/>
      <point x="1119" y="606" type="line"/>
      <point x="884" y="606" type="line"/>
      <point x="850" y="744" type="line"/>
      <point x="1155" y="744" type="line"/>
      <point x="1116" y="900" type="line"/>
      <point x="637" y="900" type="line"/>
      <point x="652" y="841" type="line"/>
      <point x="580" y="892"/>
      <point x="497" y="918"/>
      <point x="412" y="918" type="curve" smooth="yes"/>
      <point x="189" y="918"/>
      <point x="18" y="737"/>
      <point x="18" y="504" type="curve" smooth="yes"/>
      <point x="18" y="230"/>
      <point x="268" y="-18"/>
    </contour>
    <contour>
      <point x="528" y="156" type="curve" smooth="yes"/>
      <point x="359" y="156"/>
      <point x="208" y="314"/>
      <point x="208" y="487" type="curve" smooth="yes"/>
      <point x="208" y="632"/>
      <point x="317" y="744"/>
      <point x="459" y="744" type="curve" smooth="yes"/>
      <point x="628" y="744"/>
      <point x="778" y="585"/>
      <point x="778" y="411" type="curve" smooth="yes"/>
      <point x="778" y="266"/>
      <point x="671" y="156"/>
    </contour>
  </outline>
</glyph>
<glyph name="oe" format="2">
  <advance width="1140"/>
  <unicode hex="0153"/>
  <anchor x="645" y="0" name="bottom"/>
  <anchor x="495" y="600" name="top"/>
  <outline>
    <contour>
      <point x="398" y="-20" type="curve" smooth="yes"/>
      <point x="484" y="-20"/>
      <point x="560" y="14"/>
      <point x="611" y="70" type="curve"/>
      <point x="676" y="14"/>
      <point x="763" y="-20"/>
      <point x="857" y="-20" type="curve" smooth="yes"/>
      <point x="951" y="-20"/>
      <point x="1044" y="14"/>
      <point x="1100" y="71" type="curve"/>
      <point x="1025" y="219" type="line"/>
      <point x="990" y="160"/>
      <point x="924" y="124"/>
      <point x="850" y="124" type="curve" smooth="yes"/>
      <point x="763" y="124"/>
      <point x="691" y="175"/>
      <point x="660" y="259" type="curve"/>
      <point x="698" y="252"/>
      <point x="728" y="249"/>
      <point x="757" y="249" type="curve" smooth="yes"/>
      <point x="1106" y="249" type="line"/>
      <point x="1101" y="300" type="line" smooth="yes"/>
      <point x="1083" y="484"/>
      <point x="945" y="620"/>
      <point x="765" y="620" type="curve" smooth="yes"/>
      <point x="677" y="620"/>
      <point x="603" y="587"/>
      <point x="553" y="531" type="curve"/>
      <point x="489" y="586"/>
      <point x="407" y="620"/>
      <point x="323" y="620" type="curve" smooth="yes"/>
      <point x="166" y="620"/>
      <point x="36" y="501"/>
      <point x="36" y="336" type="curve" smooth="yes"/>
      <point x="36" y="149"/>
      <point x="206" y="-20"/>
    </contour>
    <contour>
      <point x="379" y="136" type="curve" smooth="yes"/>
      <point x="282" y="136"/>
      <point x="201" y="224"/>
      <point x="201" y="320" type="curve" smooth="yes"/>
      <point x="201" y="401"/>
      <point x="259" y="464"/>
      <point x="341" y="464" type="curve" smooth="yes"/>
      <point x="438" y="464"/>
      <point x="519" y="375"/>
      <point x="519" y="280" type="curve" smooth="yes"/>
      <point x="519" y="200"/>
      <point x="461" y="136"/>
    </contour>
    <contour>
      <point x="640" y="365" type="curve"/>
      <point x="650" y="436"/>
      <point x="703" y="482"/>
      <point x="776" y="482" type="curve" smooth="yes"/>
      <point x="847" y="482"/>
      <point x="905" y="441"/>
      <point x="940" y="366" type="curve"/>
      <point x="908" y="372"/>
      <point x="874" y="375"/>
      <point x="837" y="375" type="curve" smooth="yes"/>
      <point x="731" y="375" type="line" smooth="yes"/>
      <point x="702" y="375"/>
      <point x="673" y="372"/>
    </contour>
  </outline>
</glyph>
<glyph name="Scedilla" format="2">
  <advance width="660"/>
  <unicode hex="015E"/>
  <outline>
    <contour>
      <point x="165" y="-192" type="line"/>
      <point x="356" y="-192" type="line"/>
      <point x="452" y="-4" type="line"/>
      <point x="555" y="31"/>
      <point x="618" y="116"/>
      <point x="618" y="231" type="curve" smooth="yes"/>
      <point x="618" y="368"/>
      <point x="529" y="475"/>
      <point x="372" y="527" type="curve" smooth="yes"/>
      <point x="245" y="569" type="line" smooth="yes"/>
      <point x="171" y="593"/>
      <point x="134" y="630"/>
      <point x="134" y="678" type="curve" smooth="yes"/>
      <point x="134" y="728"/>
      <point x="174" y="760"/>
      <point x="237" y="760" type="curve" smooth="yes"/>
      <point x="298" y="760"/>
      <point x="372" y="728"/>
      <point x="444" y="668" type="curve"/>
      <point x="444" y="865" type="line"/>
      <point x="370" y="902"/>
      <point x="299" y="920"/>
      <point x="228" y="920" type="curve" smooth="yes"/>
      <point x="68" y="920"/>
      <point x="-37" y="829"/>
      <point x="-37" y="690" type="curve" smooth="yes"/>
      <point x="-37" y="562"/>
      <point x="49" y="460"/>
      <point x="200" y="410" type="curve" smooth="yes"/>
      <point x="326" y="368" type="line" smooth="yes"/>
      <point x="405" y="342"/>
      <point x="448" y="296"/>
      <point x="448" y="238" type="curve" smooth="yes"/>
      <point x="448" y="180"/>
      <point x="403" y="142"/>
      <point x="334" y="142" type="curve" smooth="yes"/>
      <point x="257" y="142"/>
      <point x="160" y="189"/>
      <point x="95" y="258" type="curve"/>
      <point x="95" y="55" type="line"/>
      <point x="155" y="17"/>
      <point x="224" y="-8"/>
      <point x="292" y="-17" type="curve"/>
    </contour>
  </outline>
</glyph>
<glyph name="scedilla" format="2">
  <advance width="530"/>
  <unicode hex="015F"/>
  <outline>
    <contour>
      <point x="111" y="-192" type="line"/>
      <point x="302" y="-192" type="line"/>
      <point x="398" y="-4" type="line"/>
      <point x="476" y="24"/>
      <point x="524" y="84"/>
      <point x="524" y="165" type="curve" smooth="yes"/>
      <point x="524" y="267"/>
      <point x="448" y="339"/>
      <point x="315" y="369" type="curve" smooth="yes"/>
      <point x="231" y="388" type="line" smooth="yes"/>
      <point x="196" y="396"/>
      <point x="178" y="414"/>
      <point x="178" y="438" type="curve" smooth="yes"/>
      <point x="178" y="465"/>
      <point x="201" y="482"/>
      <point x="243" y="482" type="curve" smooth="yes"/>
      <point x="298" y="482"/>
      <point x="364" y="454"/>
      <point x="415" y="409" type="curve"/>
      <point x="415" y="571" type="line"/>
      <point x="374" y="600"/>
      <point x="303" y="620"/>
      <point x="237" y="620" type="curve" smooth="yes"/>
      <point x="112" y="620"/>
      <point x="24" y="551"/>
      <point x="24" y="440" type="curve" smooth="yes"/>
      <point x="24" y="340"/>
      <point x="95" y="271"/>
      <point x="220" y="242" type="curve" smooth="yes"/>
      <point x="311" y="221" type="line" smooth="yes"/>
      <point x="350" y="212"/>
      <point x="370" y="194"/>
      <point x="370" y="167" type="curve" smooth="yes"/>
      <point x="370" y="136"/>
      <point x="341" y="118"/>
      <point x="296" y="118" type="curve" smooth="yes"/>
      <point x="233" y="118"/>
      <point x="157" y="149"/>
      <point x="104" y="196" type="curve"/>
      <point x="104" y="30" type="line"/>
      <point x="139" y="8"/>
      <point x="188" y="-9"/>
      <point x="239" y="-16" type="curve"/>
    </contour>
  </outline>
</glyph>
<glyph name="Tcedilla" format="2">
  <advance width="710"/>
  <unicode hex="0162"/>
  <outline>
    <contour>
      <point x="216" y="-192" type="line"/>
      <point x="425" y="-192" type="line"/>
      <point x="523" y="0" type="line"/>
      <point x="338" y="738" type="line"/>
      <point x="558" y="738" type="line"/>
      <point x="518" y="900" type="line"/>
      <point x="-108" y="900" type="line"/>
      <point x="-68" y="738" type="line"/>
      <point x="152" y="738" type="line"/>
      <point x="341" y="-19" type="line"/>
    </contour>
  </outline>
</glyph>
<glyph name="tcedilla" format="2">
  <advance width="450"/>
  <unicode hex="0163"/>
  <outline>
    <contour>
      <point x="84" y="-192" type="line"/>
      <point x="275" y="-192" type="line"/>
      <point x="385" y="0" type="line"/>
      <point x="270" y="462" type="line"/>
      <point x="386" y="462" type="line"/>
      <point x="351" y="600" type="line"/>
      <point x="232" y="600" type="line"/>
      <point x="182" y="800" type="line"/>
      <point x="14" y="800" type="line"/>
      <point x="64" y="600" type="line"/>
      <point x="-51" y="600" type="line"/>
      <point x="-16" y="462" type="line"/>
      <point x="96" y="462" type="line"/>
      <point x="211" y="0" type="line"/>
    </contour>
  </outline>
</glyph>
<glyph name="Tbar" format="2">
  <advance width="710"/>
  <unicode hex="0166"/>
  <outline>
    <contour>
      <point x="337" y="0" type="line"/>
      <point x="523" y="0" type="line"/>
      <point x="426" y="387" type="line"/>
      <point x="575" y="387" type="line"/>
      <point x="543" y="513" type="line"/>
      <point x="394" y="513" type="line"/>
      <point x="338" y="738" type="line"/>
      <point x="558" y="738" type="line"/>
      <point x="518" y="900" type="line"/>
      <point x="-108" y="900" type="line"/>
      <point x="-68" y="738" type="line"/>
      <point x="152" y="738" type="line"/>
      <point x="208" y="513" type="line"/>
      <point x="63" y="513" type="line"/>
      <point x="95" y="387" type="line"/>
      <point x="240" y="387" type="line"/>
    </contour>
  </outline>
</glyph>
<glyph name="tbar" format="2">
  <advance width="450"/>
  <unicode hex="0167"/>
  <outline>
    <contour>
      <point x="211" y="0" type="line"/>
      <point x="385" y="0" type="line"/>
      <point x="324" y="246" type="line"/>
      <point x="435" y="246" type="line"/>
      <point x="409" y="354" type="line"/>
      <point x="297" y="354" type="line"/>
      <point x="270" y="462" type="line"/>
      <point x="386" y="462" type="line"/>
      <point x="351" y="600" type="line"/>
      <point x="232" y="600" type="line"/>
      <point x="182" y="800" type="line"/>
      <point x="14" y="800" type="line"/>
      <point x="64" y="600" type="line"/>
      <point x="-51" y="600" type="line"/>
      <point x="-16" y="462" type="line"/>
      <point x="96" y="462" type="line"/>
      <point x="123" y="354" type="line"/>
      <point x="29" y="354" type="line"/>
      <point x="55" y="246" type="line"/>
      <point x="150" y="246" type="line"/>
    </contour>
  </outline>
</glyph>
<glyph name="Uogonek" format="2">
  <advance width="800"/>
  <unicode hex="0172"/>
  <outline>
    <contour>
      <point x="607" y="-318" type="curve"/>
      <point x="607" y="-188" type="line"/>
      <point x="552" y="-186"/>
      <point x="514" y="-154"/>
      <point x="514" y="-105" type="curve" smooth="yes"/>
      <point x="514" y="-57"/>
      <point x="540" y="-20"/>
      <point x="572" y="6" type="curve"/>
      <point x="696" y="60"/>
      <point x="756" y="188"/>
      <point x="717" y="345" type="curve" smooth="yes"/>
      <point x="578" y="900" type="line"/>
      <point x="398" y="900" type="line"/>
      <point x="540" y="331" type="line" smooth="yes"/>
      <point x="566" y="225"/>
      <point x="512" y="153"/>
      <point x="421" y="153" type="curve" smooth="yes"/>
      <point x="341" y="153"/>
      <point x="281" y="207"/>
      <point x="260" y="290" type="curve" smooth="yes"/>
      <point x="108" y="900" type="line"/>
      <point x="-78" y="900" type="line"/>
      <point x="80" y="268" type="line" smooth="yes"/>
      <point x="123" y="95"/>
      <point x="244" y="-11"/>
      <point x="412" y="-19" type="curve"/>
      <point x="378" y="-60"/>
      <point x="367" y="-101"/>
      <point x="367" y="-139" type="curve" smooth="yes"/>
      <point x="367" y="-249"/>
      <point x="459" y="-318"/>
    </contour>
  </outline>
</glyph>
<glyph name="uogonek" format="2">
  <advance width="700"/>
  <unicode hex="0173"/>
  <outline>
    <contour>
      <point x="735" y="-318" type="curve"/>
      <point x="735" y="-188" type="line"/>
      <point x="679" y="-186"/>
      <point x="642" y="-153"/>
      <point x="642" y="-105" type="curve" smooth="yes"/>
      <point x="642" y="-60"/>
      <point x="667" y="-18"/>
      <point x="709" y="0" type="curve"/>
      <point x="559" y="600" type="line"/>
      <point x="385" y="600" type="line"/>
      <point x="466" y="276" type="line" smooth="yes"/>
      <point x="486" y="195"/>
      <point x="444" y="136"/>
      <point x="367" y="136" type="curve" smooth="yes"/>
      <point x="308" y="136"/>
      <point x="258" y="183"/>
      <point x="239" y="256" type="curve" smooth="yes"/>
      <point x="153" y="600" type="line"/>
      <point x="-21" y="600" type="line"/>
      <point x="77" y="208" type="line" smooth="yes"/>
      <point x="111" y="71"/>
      <point x="217" y="-20"/>
      <point x="343" y="-20" type="curve" smooth="yes"/>
      <point x="429" y="-20"/>
      <point x="500" y="15"/>
      <point x="535" y="73" type="curve"/>
      <point x="553" y="0" type="line"/>
      <point x="515" y="-41"/>
      <point x="495" y="-91"/>
      <point x="495" y="-136" type="curve" smooth="yes"/>
      <point x="495" y="-249"/>
      <point x="586" y="-318"/>
    </contour>
  </outline>
</glyph>
<glyph name="Schwa" format="2">
  <advance width="1050"/>
  <unicode hex="018F"/>
  <outline>
    <contour>
      <point x="531" y="-18" type="curve" smooth="yes"/>
      <point x="773" y="-18"/>
      <point x="959" y="162"/>
      <point x="959" y="397" type="curve" smooth="yes"/>
      <point x="959" y="671"/>
      <point x="708" y="915"/>
      <point x="427" y="915" type="curve" smooth="yes"/>
      <point x="296" y="915"/>
      <point x="173" y="863"/>
      <point x="95" y="775" type="curve"/>
      <point x="193" y="583" type="line"/>
      <point x="232" y="681"/>
      <point x="332" y="746"/>
      <point x="443" y="746" type="curve" smooth="yes"/>
      <point x="573" y="746"/>
      <point x="699" y="656"/>
      <point x="752" y="526" type="curve"/>
      <point x="710" y="531"/>
      <point x="672" y="534"/>
      <point x="636" y="534" type="curve" smooth="yes"/>
      <point x="4" y="534" type="line"/>
      <point x="4" y="484"/>
      <point x="10" y="438"/>
      <point x="21" y="393" type="curve" smooth="yes"/>
      <point x="80" y="155"/>
      <point x="294" y="-18"/>
    </contour>
    <contour>
      <point x="523" y="150" type="curve" smooth="yes"/>
      <point x="389" y="150"/>
      <point x="266" y="243"/>
      <point x="218" y="384" type="curve"/>
      <point x="673" y="384" type="line" smooth="yes"/>
      <point x="705" y="384"/>
      <point x="740" y="387"/>
      <point x="775" y="392" type="curve"/>
      <point x="768" y="251"/>
      <point x="662" y="150"/>
    </contour>
  </outline>
</glyph>
<glyph name="florin" format="2">
  <advance width="800"/>
  <unicode hex="0192"/>
  <outline>
    <contour>
      <point x="331" y="-192" type="curve" smooth="yes"/>
      <point x="477" y="-192"/>
      <point x="556" y="-82"/>
      <point x="518" y="68" type="curve" smooth="yes"/>
      <point x="440" y="381" type="line"/>
      <point x="640" y="381" type="line"/>
      <point x="605" y="519" type="line"/>
      <point x="405" y="519" type="line"/>
      <point x="359" y="703" type="line" smooth="yes"/>
      <point x="348" y="748"/>
      <point x="366" y="777"/>
      <point x="410" y="777" type="curve" smooth="yes"/>
      <point x="434" y="777"/>
      <point x="457" y="768"/>
      <point x="484" y="748" type="curve"/>
      <point x="484" y="891" type="line"/>
      <point x="455" y="905"/>
      <point x="423" y="912"/>
      <point x="388" y="912" type="curve" smooth="yes"/>
      <point x="243" y="912"/>
      <point x="165" y="802"/>
      <point x="202" y="652" type="curve" smooth="yes"/>
      <point x="235" y="519" type="line"/>
      <point x="35" y="519" type="line"/>
      <point x="70" y="381" type="line"/>
      <point x="270" y="381" type="line"/>
      <point x="361" y="17" type="line" smooth="yes"/>
      <point x="372" y="-28"/>
      <point x="353" y="-57"/>
      <point x="309" y="-57" type="curve" smooth="yes"/>
      <point x="285" y="-57"/>
      <point x="262" y="-48"/>
      <point x="235" y="-28" type="curve"/>
      <point x="235" y="-171" type="line"/>
      <point x="264" y="-185"/>
      <point x="296" y="-192"/>
    </contour>
  </outline>
</glyph>
<glyph name="Ohorn" format="2">
  <advance width="1060"/>
  <unicode hex="01A0"/>
  <anchor x="606" y="0" name="bottom"/>
  <anchor x="381" y="900" name="top"/>
  <outline>
    <contour>
      <point x="547" y="-18" type="curve" smooth="yes"/>
      <point x="786" y="-18"/>
      <point x="968" y="163"/>
      <point x="968" y="396" type="curve" smooth="yes"/>
      <point x="968" y="515"/>
      <point x="921" y="628"/>
      <point x="845" y="719" type="curve"/>
      <point x="873" y="744"/>
      <point x="891" y="781"/>
      <point x="891" y="829" type="curve" smooth="yes"/>
      <point x="891" y="869"/>
      <point x="881" y="917"/>
      <point x="848" y="960" type="curve"/>
      <point x="696" y="960" type="line"/>
      <point x="726" y="926"/>
      <point x="750" y="879"/>
      <point x="750" y="842" type="curve" smooth="yes"/>
      <point x="750" y="832"/>
      <point x="748" y="822"/>
      <point x="744" y="815" type="curve"/>
      <point x="656" y="879"/>
      <point x="550" y="918"/>
      <point x="439" y="918" type="curve" smooth="yes"/>
      <point x="200" y="918"/>
      <point x="18" y="736"/>
      <point x="18" y="503" type="curve" smooth="yes"/>
      <point x="18" y="230"/>
      <point x="267" y="-18"/>
    </contour>
    <contour>
      <point x="527" y="156" type="curve" smooth="yes"/>
      <point x="358" y="156"/>
      <point x="208" y="315"/>
      <point x="208" y="489" type="curve" smooth="yes"/>
      <point x="208" y="634"/>
      <point x="315" y="744"/>
      <point x="458" y="744" type="curve" smooth="yes"/>
      <point x="627" y="744"/>
      <point x="778" y="586"/>
      <point x="778" y="413" type="curve" smooth="yes"/>
      <point x="778" y="268"/>
      <point x="669" y="156"/>
    </contour>
  </outline>
</glyph>
<glyph name="ohorn" format="2">
  <advance width="770"/>
  <unicode hex="01A1"/>
  <anchor x="435" y="0" name="bottom"/>
  <anchor x="285" y="600" name="top"/>
  <outline>
    <contour>
      <point x="398" y="-20" type="curve" smooth="yes"/>
      <point x="562" y="-20"/>
      <point x="684" y="104"/>
      <point x="684" y="262" type="curve" smooth="yes"/>
      <point x="684" y="318"/>
      <point x="669" y="372"/>
      <point x="643" y="420" type="curve"/>
      <point x="677" y="441"/>
      <point x="701" y="477"/>
      <point x="701" y="529" type="curve" smooth="yes"/>
      <point x="701" y="569"/>
      <point x="691" y="617"/>
      <point x="658" y="660" type="curve"/>
      <point x="506" y="660" type="line"/>
      <point x="536" y="626"/>
      <point x="566" y="573"/>
      <point x="566" y="529" type="curve" smooth="yes"/>
      <point x="566" y="521"/>
      <point x="566" y="514"/>
      <point x="564" y="507" type="curve"/>
      <point x="512" y="576"/>
      <point x="420" y="620"/>
      <point x="323" y="620" type="curve" smooth="yes"/>
      <point x="166" y="620"/>
      <point x="36" y="501"/>
      <point x="36" y="336" type="curve" smooth="yes"/>
      <point x="36" y="149"/>
      <point x="206" y="-20"/>
    </contour>
    <contour>
      <point x="379" y="136" type="curve" smooth="yes"/>
      <point x="282" y="136"/>
      <point x="201" y="224"/>
      <point x="201" y="320" type="curve" smooth="yes"/>
      <point x="201" y="401"/>
      <point x="259" y="464"/>
      <point x="341" y="464" type="curve" smooth="yes"/>
      <point x="438" y="464"/>
      <point x="519" y="375"/>
      <point x="519" y="280" type="curve" smooth="yes"/>
      <point x="519" y="200"/>
      <point x="461" y="136"/>
    </contour>
  </outline>
</glyph>
<glyph name="Uhorn" format="2">
  <advance width="940"/>
  <unicode hex="01AF"/>
  <anchor x="473" y="0" name="bottom"/>
  <anchor x="250" y="900" name="top"/>
  <outline>
    <contour>
      <point x="434" y="-20" type="curve" smooth="yes"/>
      <point x="647" y="-20"/>
      <point x="769" y="137"/>
      <point x="717" y="345" type="curve" smooth="yes"/>
      <point x="631" y="687" type="line"/>
      <point x="638" y="686"/>
      <point x="645" y="686"/>
      <point x="652" y="686" type="curve" smooth="yes"/>
      <point x="725" y="686"/>
      <point x="790" y="737"/>
      <point x="790" y="829" type="curve" smooth="yes"/>
      <point x="790" y="869"/>
      <point x="780" y="917"/>
      <point x="747" y="960" type="curve"/>
      <point x="595" y="960" type="line"/>
      <point x="625" y="926"/>
      <point x="649" y="879"/>
      <point x="649" y="842" type="curve" smooth="yes"/>
      <point x="649" y="808"/>
      <point x="624" y="787"/>
      <point x="600" y="787" type="curve" smooth="yes"/>
      <point x="598" y="787"/>
      <point x="596" y="787"/>
      <point x="594" y="787" type="curve"/>
      <point x="566" y="900" type="line"/>
      <point x="398" y="900" type="line"/>
      <point x="540" y="331" type="line" smooth="yes"/>
      <point x="566" y="225"/>
      <point x="512" y="153"/>
      <point x="421" y="153" type="curve" smooth="yes"/>
      <point x="341" y="153"/>
      <point x="281" y="207"/>
      <point x="260" y="290" type="curve" smooth="yes"/>
      <point x="108" y="900" type="line"/>
      <point x="-78" y="900" type="line"/>
      <point x="80" y="268" type="line" smooth="yes"/>
      <point x="125" y="88"/>
      <point x="254" y="-20"/>
    </contour>
  </outline>
</glyph>
<glyph name="uhorn" format="2">
  <advance width="840"/>
  <unicode hex="01B0"/>
  <anchor x="420" y="0" name="bottom"/>
  <anchor x="271" y="600" name="top"/>
  <outline>
    <contour>
      <point x="343" y="-20" type="curve" smooth="yes"/>
      <point x="429" y="-20"/>
      <point x="500" y="15"/>
      <point x="535" y="73" type="curve"/>
      <point x="553" y="0" type="line"/>
      <point x="709" y="0" type="line"/>
      <point x="612" y="387" type="line"/>
      <point x="619" y="386"/>
      <point x="626" y="386"/>
      <point x="633" y="386" type="curve" smooth="yes"/>
      <point x="706" y="386"/>
      <point x="771" y="437"/>
      <point x="771" y="529" type="curve" smooth="yes"/>
      <point x="771" y="569"/>
      <point x="761" y="617"/>
      <point x="728" y="660" type="curve"/>
      <point x="576" y="660" type="line"/>
      <point x="606" y="626"/>
      <point x="630" y="579"/>
      <point x="630" y="542" type="curve" smooth="yes"/>
      <point x="630" y="508"/>
      <point x="605" y="487"/>
      <point x="581" y="487" type="curve" smooth="yes"/>
      <point x="579" y="487"/>
      <point x="577" y="487"/>
      <point x="575" y="487" type="curve"/>
      <point x="547" y="600" type="line"/>
      <point x="385" y="600" type="line"/>
      <point x="466" y="276" type="line" smooth="yes"/>
      <point x="486" y="195"/>
      <point x="444" y="136"/>
      <point x="367" y="136" type="curve" smooth="yes"/>
      <point x="308" y="136"/>
      <point x="257" y="183"/>
      <point x="239" y="256" type="curve" smooth="yes"/>
      <point x="153" y="600" type="line"/>
      <point x="-21" y="600" type="line"/>
      <point x="77" y="208" type="line" smooth="yes"/>
      <point x="111" y="71"/>
      <point x="217" y="-20"/>
    </contour>
  </outline>
</glyph>
<glyph name="Ezh" format="2">
  <advance width="660"/>
  <unicode hex="01B7"/>
  <anchor x="405" y="0" name="bottom"/>
  <anchor x="191" y="900" name="top"/>
  <outline>
    <contour>
      <point x="332" y="-20" type="curve" smooth="yes"/>
      <point x="499" y="-20"/>
      <point x="630" y="104"/>
      <point x="630" y="262" type="curve" smooth="yes"/>
      <point x="630" y="413"/>
      <point x="512" y="556"/>
      <point x="357" y="592" type="curve"/>
      <point x="449" y="898" type="line"/>
      <point x="449" y="900" type="line"/>
      <point x="-67" y="900" type="line"/>
      <point x="-28" y="744" type="line"/>
      <point x="241" y="744" type="line"/>
      <point x="151" y="413" type="line"/>
      <point x="153" y="411" type="line"/>
      <point x="193" y="444"/>
      <point x="234" y="458"/>
      <point x="276" y="458" type="curve" smooth="yes"/>
      <point x="376" y="458"/>
      <point x="458" y="376"/>
      <point x="458" y="282" type="curve" smooth="yes"/>
      <point x="458" y="201"/>
      <point x="396" y="142"/>
      <point x="314" y="142" type="curve" smooth="yes"/>
      <point x="234" y="142"/>
      <point x="153" y="198"/>
      <point x="114" y="279" type="curve"/>
      <point x="63" y="94" type="line"/>
      <point x="131" y="24"/>
      <point x="233" y="-20"/>
    </contour>
  </outline>
</glyph>
<glyph name="Gstroke" format="2">
  <advance width="920"/>
  <unicode hex="01E4"/>
  <outline>
    <contour>
      <point x="550" y="-18" type="curve" smooth="yes"/>
      <point x="680" y="-18"/>
      <point x="803" y="33"/>
      <point x="886" y="120" type="curve"/>
      <point x="839" y="309" type="line"/>
      <point x="908" y="309" type="line"/>
      <point x="876" y="435" type="line"/>
      <point x="807" y="435" type="line"/>
      <point x="781" y="540" type="line"/>
      <point x="616" y="540" type="line"/>
      <point x="642" y="435" type="line"/>
      <point x="456" y="435" type="line"/>
      <point x="488" y="309" type="line"/>
      <point x="674" y="309" type="line"/>
      <point x="702" y="197" type="line"/>
      <point x="654" y="165"/>
      <point x="598" y="148"/>
      <point x="540" y="148" type="curve" smooth="yes"/>
      <point x="364" y="148"/>
      <point x="208" y="308"/>
      <point x="208" y="484" type="curve" smooth="yes"/>
      <point x="208" y="632"/>
      <point x="317" y="744"/>
      <point x="459" y="744" type="curve" smooth="yes"/>
      <point x="550" y="744"/>
      <point x="641" y="697"/>
      <point x="704" y="617" type="curve"/>
      <point x="704" y="842" type="line"/>
      <point x="622" y="892"/>
      <point x="531" y="918"/>
      <point x="440" y="918" type="curve" smooth="yes"/>
      <point x="200" y="918"/>
      <point x="18" y="738"/>
      <point x="18" y="502" type="curve" smooth="yes"/>
      <point x="18" y="226"/>
      <point x="266" y="-18"/>
    </contour>
  </outline>
</glyph>
<glyph name="gstroke" format="2">
  <advance width="740"/>
  <unicode hex="01E5"/>
  <outline>
    <contour>
      <point x="422" y="-317" type="curve" smooth="yes"/>
      <point x="653" y="-317"/>
      <point x="789" y="-156"/>
      <point x="736" y="54" type="curve" smooth="yes"/>
      <point x="688" y="246" type="line"/>
      <point x="750" y="246" type="line"/>
      <point x="724" y="354" type="line"/>
      <point x="661" y="354" type="line"/>
      <point x="599" y="600" type="line"/>
      <point x="449" y="600" type="line"/>
      <point x="462" y="549" type="line"/>
      <point x="409" y="592"/>
      <point x="350" y="614"/>
      <point x="288" y="614" type="curve" smooth="yes"/>
      <point x="145" y="614"/>
      <point x="36" y="497"/>
      <point x="36" y="344" type="curve" smooth="yes"/>
      <point x="36" y="156"/>
      <point x="202" y="-14"/>
      <point x="387" y="-14" type="curve" smooth="yes"/>
      <point x="463" y="-14"/>
      <point x="534" y="15"/>
      <point x="581" y="65" type="curve"/>
      <point x="586" y="44" type="line" smooth="yes"/>
      <point x="616" y="-79"/>
      <point x="541" y="-168"/>
      <point x="407" y="-168" type="curve" smooth="yes"/>
      <point x="338" y="-168"/>
      <point x="272" y="-142"/>
      <point x="217" y="-94" type="curve"/>
      <point x="217" y="-268" type="line"/>
      <point x="275" y="-299"/>
      <point x="349" y="-317"/>
    </contour>
    <contour>
      <point x="374" y="140" type="curve" smooth="yes"/>
      <point x="280" y="140"/>
      <point x="198" y="224"/>
      <point x="198" y="320" type="curve" smooth="yes"/>
      <point x="198" y="401"/>
      <point x="257" y="461"/>
      <point x="336" y="461" type="curve" smooth="yes"/>
      <point x="405" y="461"/>
      <point x="467" y="416"/>
      <point x="496" y="354" type="curve"/>
      <point x="308" y="354" type="line"/>
      <point x="334" y="246" type="line"/>
      <point x="508" y="246" type="line"/>
      <point x="495" y="183"/>
      <point x="442" y="140"/>
    </contour>
  </outline>
</glyph>
<glyph name="Oogonek" format="2">
  <advance width="1060"/>
  <unicode hex="01EA"/>
  <anchor x="380" y="900" name="top"/>
  <outline>
    <contour>
      <point x="737" y="-318" type="curve"/>
      <point x="737" y="-188" type="line"/>
      <point x="682" y="-186"/>
      <point x="644" y="-154"/>
      <point x="644" y="-105" type="curve" smooth="yes"/>
      <point x="644" y="-56"/>
      <point x="671" y="-18"/>
      <point x="706" y="11" type="curve"/>
      <point x="862" y="71"/>
      <point x="968" y="219"/>
      <point x="968" y="396" type="curve" smooth="yes"/>
      <point x="968" y="670"/>
      <point x="718" y="918"/>
      <point x="439" y="918" type="curve" smooth="yes"/>
      <point x="200" y="918"/>
      <point x="18" y="736"/>
      <point x="18" y="503" type="curve" smooth="yes"/>
      <point x="18" y="231"/>
      <point x="265" y="-16"/>
      <point x="543" y="-18" type="curve"/>
      <point x="508" y="-59"/>
      <point x="497" y="-101"/>
      <point x="497" y="-139" type="curve" smooth="yes"/>
      <point x="497" y="-249"/>
      <point x="589" y="-318"/>
    </contour>
    <contour>
      <point x="527" y="156" type="curve" smooth="yes"/>
      <point x="358" y="156"/>
      <point x="208" y="315"/>
      <point x="208" y="489" type="curve" smooth="yes"/>
      <point x="208" y="634"/>
      <point x="315" y="744"/>
      <point x="458" y="744" type="curve" smooth="yes"/>
      <point x="627" y="744"/>
      <point x="778" y="586"/>
      <point x="778" y="413" type="curve" smooth="yes"/>
      <point x="778" y="268"/>
      <point x="669" y="156"/>
    </contour>
  </outline>
</glyph>
<glyph name="oogonek" format="2">
  <advance width="720"/>
  <unicode hex="01EB"/>
  <anchor x="285" y="600" name="top"/>
  <outline>
    <contour>
      <point x="567" y="-318" type="curve"/>
      <point x="567" y="-188" type="line"/>
      <point x="512" y="-186"/>
      <point x="474" y="-154"/>
      <point x="474" y="-105" type="curve" smooth="yes"/>
      <point x="474" y="-57"/>
      <point x="500" y="-20"/>
      <point x="530" y="10" type="curve"/>
      <point x="623" y="56"/>
      <point x="684" y="151"/>
      <point x="684" y="262" type="curve" smooth="yes"/>
      <point x="684" y="450"/>
      <point x="512" y="620"/>
      <point x="323" y="620" type="curve" smooth="yes"/>
      <point x="166" y="620"/>
      <point x="36" y="501"/>
      <point x="36" y="336" type="curve" smooth="yes"/>
      <point x="36" y="157"/>
      <point x="191" y="-5"/>
      <point x="372" y="-19" type="curve"/>
      <point x="338" y="-60"/>
      <point x="327" y="-101"/>
      <point x="327" y="-139" type="curve" smooth="yes"/>
      <point x="327" y="-249"/>
      <point x="419" y="-318"/>
    </contour>
    <contour>
      <point x="379" y="136" type="curve" smooth="yes"/>
      <point x="282" y="136"/>
      <point x="201" y="224"/>
      <point x="201" y="320" type="curve" smooth="yes"/>
      <point x="201" y="401"/>
      <point x="259" y="464"/>
      <point x="341" y="464" type="curve" smooth="yes"/>
      <point x="438" y="464"/>
      <point x="519" y="375"/>
      <point x="519" y="280" type="curve" smooth="yes"/>
      <point x="519" y="200"/>
      <point x="461" y="136"/>
    </contour>
  </outline>
</glyph>
<glyph name="Aringacute" format="2">
  <advance width="820"/>
  <unicode hex="01FA"/>
  <outline>
    <contour>
      <point x="87" y="0" type="line"/>
      <point x="250" y="0" type="line"/>
      <point x="277" y="160" type="line"/>
      <point x="583" y="160" type="line"/>
      <point x="690" y="0" type="line"/>
      <point x="883" y="0" type="line"/>
      <point x="329" y="823" type="line"/>
      <point x="381" y="845"/>
      <point x="418" y="895"/>
      <point x="418" y="959" type="curve" smooth="yes"/>
      <point x="418" y="1058"/>
      <point x="329" y="1146"/>
      <point x="227" y="1146" type="curve" smooth="yes"/>
      <point x="141" y="1146"/>
      <point x="76" y="1081"/>
      <point x="76" y="998" type="curve" smooth="yes"/>
      <point x="76" y="910"/>
      <point x="147" y="830"/>
      <point x="233" y="813" type="curve"/>
    </contour>
    <contour>
      <point x="302" y="304" type="line"/>
      <point x="318" y="396" type="line" smooth="yes"/>
      <point x="327" y="445"/>
      <point x="335" y="487"/>
      <point x="336" y="548" type="curve"/>
      <point x="366" y="488"/>
      <point x="393" y="445"/>
      <point x="426" y="396" type="curve" smooth="yes"/>
      <point x="487" y="304" type="line"/>
    </contour>
    <contour>
      <point x="254" y="909" type="curve" smooth="yes"/>
      <point x="214" y="909"/>
      <point x="178" y="946"/>
      <point x="178" y="985" type="curve" smooth="yes"/>
      <point x="178" y="1020"/>
      <point x="204" y="1047"/>
      <point x="240" y="1047" type="curve" smooth="yes"/>
      <point x="280" y="1047"/>
      <point x="316" y="1010"/>
      <point x="316" y="971" type="curve" smooth="yes"/>
      <point x="316" y="935"/>
      <point x="290" y="909"/>
    </contour>
    <contour>
      <point x="137" y="1194" type="line"/>
      <point x="251" y="1194" type="line"/>
      <point x="325" y="1356" type="line"/>
      <point x="177" y="1356" type="line"/>
    </contour>
  </outline>
</glyph>
<glyph name="jdotless" format="2">
  <advance width="310"/>
  <unicode hex="0237"/>
  <anchor x="310" y="-300" name="bottom"/>
  <anchor x="82" y="600" name="top"/>
  <outline>
    <contour>
      <point x="190" y="-312" type="line"/>
      <point x="309" y="-296"/>
      <point x="373" y="-210"/>
      <point x="340" y="-79" type="curve" smooth="yes"/>
      <point x="170" y="600" type="line"/>
      <point x="-4" y="600" type="line"/>
      <point x="170" y="-96" type="line" smooth="yes"/>
      <point x="183" y="-146"/>
      <point x="167" y="-171"/>
      <point x="125" y="-178" type="curve"/>
    </contour>
  </outline>
</glyph>
<glyph name="schwa" format="2">
  <advance width="690"/>
  <unicode hex="0259"/>
  <outline>
    <contour>
      <point x="375" y="-20" type="curve" smooth="yes"/>
      <point x="539" y="-20"/>
      <point x="655" y="93"/>
      <point x="655" y="259" type="curve" smooth="yes"/>
      <point x="655" y="457"/>
      <point x="489" y="620"/>
      <point x="283" y="620" type="curve" smooth="yes"/>
      <point x="189" y="620"/>
      <point x="96" y="586"/>
      <point x="40" y="529" type="curve"/>
      <point x="115" y="381" type="line"/>
      <point x="150" y="440"/>
      <point x="216" y="476"/>
      <point x="290" y="476" type="curve" smooth="yes"/>
      <point x="377" y="476"/>
      <point x="449" y="425"/>
      <point x="480" y="341" type="curve"/>
      <point x="442" y="348"/>
      <point x="412" y="351"/>
      <point x="383" y="351" type="curve" smooth="yes"/>
      <point x="34" y="351" type="line"/>
      <point x="39" y="300" type="line" smooth="yes"/>
      <point x="57" y="116"/>
      <point x="195" y="-20"/>
    </contour>
    <contour>
      <point x="364" y="118" type="curve" smooth="yes"/>
      <point x="293" y="118"/>
      <point x="235" y="159"/>
      <point x="200" y="234" type="curve"/>
      <point x="232" y="228"/>
      <point x="266" y="225"/>
      <point x="303" y="225" type="curve" smooth="yes"/>
      <point x="409" y="225" type="line" smooth="yes"/>
      <point x="438" y="225"/>
      <point x="467" y="228"/>
      <point x="500" y="235" type="curve"/>
      <point x="490" y="164"/>
      <point x="437" y="118"/>
    </contour>
  </outline>
</glyph>
<glyph name="ezh" format="2">
  <advance width="660"/>
  <unicode hex="0292"/>
  <anchor x="480" y="-300" name="bottom"/>
  <anchor x="260" y="600" name="top"/>
  <outline>
    <contour>
      <point x="401" y="-320" type="curve" smooth="yes"/>
      <point x="568" y="-320"/>
      <point x="699" y="-196"/>
      <point x="699" y="-38" type="curve" smooth="yes"/>
      <point x="699" y="113"/>
      <point x="581" y="256"/>
      <point x="426" y="292" type="curve"/>
      <point x="518" y="598" type="line"/>
      <point x="518" y="600" type="line"/>
      <point x="2" y="600" type="line"/>
      <point x="41" y="444" type="line"/>
      <point x="310" y="444" type="line"/>
      <point x="220" y="115" type="line"/>
      <point x="222" y="113" type="line"/>
      <point x="262" y="144"/>
      <point x="303" y="158"/>
      <point x="345" y="158" type="curve" smooth="yes"/>
      <point x="445" y="158"/>
      <point x="527" y="76"/>
      <point x="527" y="-18" type="curve" smooth="yes"/>
      <point x="527" y="-99"/>
      <point x="465" y="-158"/>
      <point x="383" y="-158" type="curve" smooth="yes"/>
      <point x="303" y="-158"/>
      <point x="222" y="-102"/>
      <point x="183" y="-21" type="curve"/>
      <point x="132" y="-206" type="line"/>
      <point x="200" y="-276"/>
      <point x="302" y="-320"/>
    </contour>
  </outline>
</glyph>
<glyph name="gravecomb" format="2">
  <unicode hex="0300"/>
  <anchor x="350" y="600" name="_top"/>
  <anchor x="169" y="882" name="top"/>
  <outline>
    <contour>
      <point x="267" y="678" type="line"/>
      <point x="405" y="678" type="line"/>
      <point x="269" y="882" type="line"/>
      <point x="68" y="882" type="line"/>
    </contour>
  </outline>
</glyph>
<glyph name="acutecomb" format="2">
  <unicode hex="0301"/>
  <anchor x="214" y="600" name="_top"/>
  <anchor x="265" y="900" name="top"/>
  <outline>
    <contour>
      <point x="121" y="678" type="line"/>
      <point x="250" y="678" type="line"/>
      <point x="354" y="900" type="line"/>
      <point x="176" y="900" type="line"/>
    </contour>
  </outline>
</glyph>
<glyph name="circumflexcomb" format="2">
  <unicode hex="0302"/>
  <anchor x="285" y="600" name="_top"/>
  <anchor x="205" y="921" name="top"/>
  <outline>
    <contour>
      <point x="47" y="678" type="line"/>
      <point x="193" y="678" type="line"/>
      <point x="209" y="702"/>
      <point x="220" y="725"/>
      <point x="233" y="754" type="curve"/>
      <point x="260" y="725"/>
      <point x="283" y="702"/>
      <point x="311" y="678" type="curve"/>
      <point x="485" y="678" type="line"/>
      <point x="206" y="921" type="line"/>
      <point x="204" y="921" type="line"/>
    </contour>
  </outline>
</glyph>
<glyph name="tildecomb" format="2">
  <unicode hex="0303"/>
  <anchor x="285" y="600" name="_top"/>
  <anchor x="208" y="907" name="top"/>
  <outline>
    <contour>
      <point x="57" y="683" type="line"/>
      <point x="75" y="727"/>
      <point x="104" y="753"/>
      <point x="146" y="753" type="curve" smooth="yes"/>
      <point x="204" y="753"/>
      <point x="255" y="703"/>
      <point x="326" y="703" type="curve" smooth="yes"/>
      <point x="381" y="703"/>
      <point x="430" y="733"/>
      <point x="457" y="786" type="curve"/>
      <point x="415" y="907" type="line"/>
      <point x="397" y="863"/>
      <point x="368" y="837"/>
      <point x="326" y="837" type="curve" smooth="yes"/>
      <point x="268" y="837"/>
      <point x="217" y="887"/>
      <point x="146" y="887" type="curve" smooth="yes"/>
      <point x="91" y="887"/>
      <point x="42" y="857"/>
      <point x="15" y="804" type="curve"/>
    </contour>
  </outline>
</glyph>
<glyph name="macroncomb" format="2">
  <unicode hex="0304"/>
  <anchor x="285" y="600" name="_top"/>
  <anchor x="225" y="840" name="top"/>
  <outline>
    <contour>
      <point x="73" y="720" type="line"/>
      <point x="439" y="720" type="line"/>
      <point x="409" y="840" type="line"/>
      <point x="43" y="840" type="line"/>
    </contour>
  </outline>
</glyph>
<glyph name="brevecomb" format="2">
  <unicode hex="0306"/>
  <anchor x="285" y="600" name="_top"/>
  <anchor x="222" y="861" name="top"/>
  <outline>
    <contour>
      <point x="238" y="663" type="curve" smooth="yes"/>
      <point x="354" y="663"/>
      <point x="440" y="746"/>
      <point x="425" y="861" type="curve"/>
      <point x="299" y="861" type="line"/>
      <point x="304" y="819"/>
      <point x="273" y="783"/>
      <point x="230" y="783" type="curve" smooth="yes"/>
      <point x="191" y="783"/>
      <point x="153" y="810"/>
      <point x="143" y="861" type="curve"/>
      <point x="17" y="861" type="line"/>
      <point x="38" y="727"/>
      <point x="136" y="663"/>
    </contour>
  </outline>
</glyph>
<glyph name="dotaccentcomb" format="2">
  <unicode hex="0307"/>
  <anchor x="285" y="600" name="_top"/>
  <anchor x="217" y="873" name="top"/>
  <outline>
    <contour>
      <point x="251" y="687" type="curve" smooth="yes"/>
      <point x="296" y="687"/>
      <point x="333" y="721"/>
      <point x="333" y="769" type="curve" smooth="yes"/>
      <point x="333" y="824"/>
      <point x="284" y="873"/>
      <point x="229" y="873" type="curve" smooth="yes"/>
      <point x="182" y="873"/>
      <point x="147" y="837"/>
      <point x="147" y="791" type="curve" smooth="yes"/>
      <point x="147" y="736"/>
      <point x="196" y="687"/>
    </contour>
  </outline>
</glyph>
<glyph name="dieresiscomb" format="2">
  <unicode hex="0308"/>
  <anchor x="285" y="600" name="_top"/>
  <anchor x="218" y="870" name="top"/>
  <outline>
    <contour>
      <point x="119" y="690" type="curve" smooth="yes"/>
      <point x="162" y="690"/>
      <point x="198" y="723"/>
      <point x="198" y="769" type="curve" smooth="yes"/>
      <point x="198" y="823"/>
      <point x="151" y="870"/>
      <point x="97" y="870" type="curve" smooth="yes"/>
      <point x="52" y="870"/>
      <point x="18" y="835"/>
      <point x="18" y="791" type="curve" smooth="yes"/>
      <point x="18" y="737"/>
      <point x="65" y="690"/>
    </contour>
    <contour>
      <point x="383" y="690" type="curve" smooth="yes"/>
      <point x="426" y="690"/>
      <point x="462" y="723"/>
      <point x="462" y="769" type="curve" smooth="yes"/>
      <point x="462" y="823"/>
      <point x="415" y="870"/>
      <point x="361" y="870" type="curve" smooth="yes"/>
      <point x="316" y="870"/>
      <point x="282" y="835"/>
      <point x="282" y="791" type="curve" smooth="yes"/>
      <point x="282" y="737"/>
      <point x="329" y="690"/>
    </contour>
  </outline>
</glyph>
<glyph name="hookabovecomb" format="2">
  <unicode hex="0309"/>
  <anchor x="285" y="600" name="_top"/>
  <anchor x="205" y="922" name="top"/>
  <outline>
    <contour>
      <point x="199" y="678" type="curve"/>
      <point x="328" y="678" type="line"/>
      <point x="361" y="715"/>
      <point x="375" y="745"/>
      <point x="375" y="781" type="curve" smooth="yes"/>
      <point x="375" y="863"/>
      <point x="305" y="922"/>
      <point x="209" y="922" type="curve" smooth="yes"/>
      <point x="155" y="922"/>
      <point x="95" y="901"/>
      <point x="65" y="871" type="curve"/>
      <point x="116" y="775" type="line"/>
      <point x="133" y="799"/>
      <point x="151" y="810"/>
      <point x="172" y="810" type="curve" smooth="yes"/>
      <point x="206" y="810"/>
      <point x="235" y="784"/>
      <point x="235" y="753" type="curve" smooth="yes"/>
      <point x="235" y="731"/>
      <point x="222" y="704"/>
    </contour>
  </outline>
</glyph>
<glyph name="ringcomb" format="2">
  <unicode hex="030A"/>
  <anchor x="285" y="600" name="_top"/>
  <anchor x="206" y="915" name="top"/>
  <outline>
    <contour>
      <point x="256" y="645" type="curve" smooth="yes"/>
      <point x="323" y="645"/>
      <point x="378" y="695"/>
      <point x="378" y="765" type="curve" smooth="yes"/>
      <point x="378" y="844"/>
      <point x="306" y="915"/>
      <point x="224" y="915" type="curve" smooth="yes"/>
      <point x="154" y="915"/>
      <point x="102" y="863"/>
      <point x="102" y="796" type="curve" smooth="yes"/>
      <point x="102" y="716"/>
      <point x="175" y="645"/>
    </contour>
    <contour>
      <point x="246" y="726" type="curve" smooth="yes"/>
      <point x="214" y="726"/>
      <point x="186" y="755"/>
      <point x="186" y="786" type="curve" smooth="yes"/>
      <point x="186" y="813"/>
      <point x="206" y="834"/>
      <point x="234" y="834" type="curve" smooth="yes"/>
      <point x="266" y="834"/>
      <point x="294" y="805"/>
      <point x="294" y="774" type="curve" smooth="yes"/>
      <point x="294" y="746"/>
      <point x="274" y="726"/>
    </contour>
  </outline>
</glyph>
<glyph name="hungarumlautcomb" format="2">
  <unicode hex="030B"/>
  <anchor x="285" y="600" name="_top"/>
  <anchor x="360" y="900" name="top"/>
  <outline>
    <contour>
      <point x="340" y="678" type="line"/>
      <point x="457" y="678" type="line"/>
      <point x="561" y="900" type="line"/>
      <point x="395" y="900" type="line"/>
    </contour>
    <contour>
      <point x="104" y="678" type="line"/>
      <point x="221" y="678" type="line"/>
      <point x="325" y="900" type="line"/>
      <point x="159" y="900" type="line"/>
    </contour>
  </outline>
</glyph>
<glyph name="caroncomb" format="2">
  <unicode hex="030C"/>
  <anchor x="285" y="600" name="_top"/>
  <anchor x="208" y="912" name="top"/>
  <outline>
    <contour>
      <point x="267" y="669" type="line"/>
      <point x="269" y="669" type="line"/>
      <point x="427" y="912" type="line"/>
      <point x="281" y="912" type="line"/>
      <point x="265" y="888"/>
      <point x="254" y="865"/>
      <point x="241" y="836" type="curve"/>
      <point x="214" y="865"/>
      <point x="191" y="888"/>
      <point x="163" y="912" type="curve"/>
      <point x="-11" y="912" type="line"/>
    </contour>
  </outline>
</glyph>
<glyph name="dblgravecomb" format="2">
  <unicode hex="030F"/>
  <anchor x="285" y="600" name="_top"/>
  <anchor x="135" y="870" name="top"/>
  <outline>
    <contour>
      <point x="330" y="678" type="line"/>
      <point x="457" y="678" type="line"/>
      <point x="348" y="870" type="line"/>
      <point x="168" y="870" type="line"/>
    </contour>
    <contour>
      <point x="84" y="678" type="line"/>
      <point x="211" y="678" type="line"/>
      <point x="102" y="870" type="line"/>
      <point x="-78" y="870" type="line"/>
    </contour>
  </outline>
</glyph>
<glyph name="breveinvertedcomb" format="2">
  <unicode hex="0311"/>
  <anchor x="285" y="600" name="_top"/>
  <anchor x="220" y="861" name="top"/>
  <outline>
    <contour>
      <point x="65" y="663" type="curve"/>
      <point x="191" y="663" type="line"/>
      <point x="186" y="705"/>
      <point x="217" y="741"/>
      <point x="260" y="741" type="curve" smooth="yes"/>
      <point x="299" y="741"/>
      <point x="337" y="714"/>
      <point x="347" y="663" type="curve"/>
      <point x="473" y="663" type="line"/>
      <point x="452" y="797"/>
      <point x="354" y="861"/>
      <point x="252" y="861" type="curve" smooth="yes"/>
      <point x="136" y="861"/>
      <point x="50" y="778"/>
    </contour>
  </outline>
</glyph>
<glyph name="commaturnedabovecomb" format="2">
  <unicode hex="0312"/>
  <anchor x="285" y="600" name="_top"/>
  <anchor x="232" y="960" name="top"/>
  <outline>
    <contour>
      <point x="177" y="708" type="curve"/>
      <point x="339" y="708" type="line"/>
      <point x="297" y="791"/>
      <point x="289" y="874"/>
      <point x="310" y="960" type="curve"/>
      <point x="154" y="960" type="line"/>
      <point x="134" y="876"/>
      <point x="142" y="789"/>
    </contour>
  </outline>
</glyph>
<glyph name="horncomb" format="2">
  <unicode hex="031B"/>
  <anchor x="197" y="600" name="_topright"/>
  <outline>
    <contour>
      <point x="284" y="386" type="curve" smooth="yes"/>
      <point x="357" y="386"/>
      <point x="422" y="437"/>
      <point x="422" y="529" type="curve" smooth="yes"/>
      <point x="422" y="569"/>
      <point x="412" y="617"/>
      <point x="379" y="660" type="curve"/>
      <point x="227" y="660" type="line"/>
      <point x="257" y="626"/>
      <point x="281" y="579"/>
      <point x="281" y="542" type="curve" smooth="yes"/>
      <point x="281" y="508"/>
      <point x="256" y="487"/>
      <point x="232" y="487" type="curve" smooth="yes"/>
      <point x="208" y="487"/>
      <point x="184" y="496"/>
      <point x="166" y="517" type="curve"/>
      <point x="191" y="416" type="line"/>
      <point x="219" y="396"/>
      <point x="252" y="386"/>
    </contour>
  </outline>
</glyph>
<glyph name="dotbelowcomb" format="2">
  <unicode hex="0323"/>
  <anchor x="435" y="0" name="_bottom"/>
  <anchor x="503" y="-273" name="bottom"/>
  <outline>
    <contour>
      <point x="491" y="-273" type="curve" smooth="yes"/>
      <point x="536" y="-273"/>
      <point x="573" y="-239"/>
      <point x="573" y="-191" type="curve" smooth="yes"/>
      <point x="573" y="-136"/>
      <point x="524" y="-87"/>
      <point x="469" y="-87" type="curve" smooth="yes"/>
      <point x="422" y="-87"/>
      <point x="387" y="-123"/>
      <point x="387" y="-169" type="curve" smooth="yes"/>
      <point x="387" y="-224"/>
      <point x="436" y="-273"/>
    </contour>
  </outline>
</glyph>
<glyph name="dieresisbelowcomb" format="2">
  <unicode hex="0324"/>
  <anchor x="435" y="0" name="_bottom"/>
  <anchor x="502" y="-270" name="bottom"/>
  <outline>
    <contour>
      <point x="623" y="-270" type="curve" smooth="yes"/>
      <point x="666" y="-270"/>
      <point x="702" y="-237"/>
      <point x="702" y="-191" type="curve" smooth="yes"/>
      <point x="702" y="-137"/>
      <point x="655" y="-90"/>
      <point x="601" y="-90" type="curve" smooth="yes"/>
      <point x="556" y="-90"/>
      <point x="522" y="-125"/>
      <point x="522" y="-169" type="curve" smooth="yes"/>
      <point x="522" y="-223"/>
      <point x="569" y="-270"/>
    </contour>
    <contour>
      <point x="359" y="-270" type="curve" smooth="yes"/>
      <point x="402" y="-270"/>
      <point x="438" y="-237"/>
      <point x="438" y="-191" type="curve" smooth="yes"/>
      <point x="438" y="-137"/>
      <point x="391" y="-90"/>
      <point x="337" y="-90" type="curve" smooth="yes"/>
      <point x="292" y="-90"/>
      <point x="258" y="-125"/>
      <point x="258" y="-169" type="curve" smooth="yes"/>
      <point x="258" y="-223"/>
      <point x="305" y="-270"/>
    </contour>
  </outline>
</glyph>
<glyph name="commaaccentcomb" format="2">
  <unicode hex="0326"/>
  <anchor x="435" y="0" name="_bottom"/>
  <anchor x="488" y="-360" name="bottom"/>
  <outline>
    <contour>
      <point x="410" y="-360" type="curve"/>
      <point x="566" y="-360" type="line"/>
      <point x="586" y="-276"/>
      <point x="578" y="-189"/>
      <point x="543" y="-108" type="curve"/>
      <point x="381" y="-108" type="line"/>
      <point x="423" y="-191"/>
      <point x="431" y="-274"/>
    </contour>
  </outline>
</glyph>
<glyph name="cedillacomb" format="2">
  <unicode hex="0327"/>
  <anchor x="501" y="0" name="_bottom"/>
  <anchor x="383" y="-192" name="bottom"/>
  <outline>
    <contour>
      <point x="287" y="-192" type="line"/>
      <point x="478" y="-192" type="line"/>
      <point x="576" y="0" type="line"/>
      <point x="426" y="0" type="line"/>
    </contour>
  </outline>
</glyph>
<glyph name="ogonekcomb" format="2">
  <unicode hex="0328"/>
  <anchor x="480" y="0" name="_ogonek"/>
  <outline>
    <contour>
      <point x="582" y="-318" type="curve"/>
      <point x="582" y="-188" type="line"/>
      <point x="527" y="-186"/>
      <point x="489" y="-154"/>
      <point x="489" y="-105" type="curve" smooth="yes"/>
      <point x="489" y="-54"/>
      <point x="518" y="-16"/>
      <point x="555" y="0" type="curve"/>
      <point x="405" y="0" type="line"/>
      <point x="357" y="-47"/>
      <point x="342" y="-95"/>
      <point x="342" y="-139" type="curve" smooth="yes"/>
      <point x="342" y="-249"/>
      <point x="434" y="-318"/>
    </contour>
  </outline>
</glyph>
<glyph name="brevebelowcomb" format="2">
  <unicode hex="032E"/>
  <anchor x="435" y="0" name="_bottom"/>
  <anchor x="500" y="-261" name="bottom"/>
  <outline>
    <contour>
      <point x="468" y="-261" type="curve" smooth="yes"/>
      <point x="584" y="-261"/>
      <point x="670" y="-178"/>
      <point x="655" y="-63" type="curve"/>
      <point x="529" y="-63" type="line"/>
      <point x="534" y="-105"/>
      <point x="503" y="-141"/>
      <point x="460" y="-141" type="curve" smooth="yes"/>
      <point x="421" y="-141"/>
      <point x="383" y="-114"/>
      <point x="373" y="-63" type="curve"/>
      <point x="247" y="-63" type="line"/>
      <point x="268" y="-197"/>
      <point x="366" y="-261"/>
    </contour>
  </outline>
</glyph>
<glyph name="macronbelowcomb" format="2">
  <unicode hex="0331"/>
  <anchor x="435" y="0" name="_bottom"/>
  <anchor x="495" y="-240" name="bottom"/>
  <outline>
    <contour>
      <point x="321" y="-240" type="line"/>
      <point x="677" y="-240" type="line"/>
      <point x="647" y="-120" type="line"/>
      <point x="291" y="-120" type="line"/>
    </contour>
  </outline>
</glyph>
<glyph name="strokeshortcomb" format="2">
  <unicode hex="0335"/>
  <anchor x="340" y="300" name="_center"/>
  <outline>
    <contour>
      <point x="75" y="246" type="line"/>
      <point x="491" y="246" type="line"/>
      <point x="465" y="354" type="line"/>
      <point x="49" y="354" type="line"/>
    </contour>
  </outline>
</glyph>
<glyph name="strokelongcomb" format="2">
  <unicode hex="0336"/>
  <anchor x="363" y="450" name="_center"/>
  <outline>
    <contour>
      <point x="6" y="396" type="line"/>
      <point x="746" y="396" type="line"/>
      <point x="720" y="504" type="line"/>
      <point x="-20" y="504" type="line"/>
    </contour>
  </outline>
</glyph>
<glyph name="slashshortcomb" format="2">
  <unicode hex="0337"/>
  <anchor x="278" y="300" name="_center"/>
  <outline>
    <contour>
      <point x="155" y="145" type="line"/>
      <point x="452" y="380" type="line"/>
      <point x="395" y="455" type="line"/>
      <point x="98" y="220" type="line"/>
    </contour>
  </outline>
</glyph>
<glyph name="pi" format="2">
  <advance width="700"/>
  <unicode hex="03C0"/>
  <outline>
    <contour>
      <point x="142" y="0" type="line"/>
      <point x="316" y="0" type="line"/>
      <point x="204" y="444" type="line"/>
      <point x="424" y="444" type="line"/>
      <point x="536" y="0" type="line"/>
      <point x="710" y="0" type="line"/>
      <point x="559" y="600" type="line"/>
      <point x="-9" y="600" type="line"/>
    </contour>
  </outline>
</glyph>
<glyph name="baht" format="2">
  <advance width="750"/>
  <unicode hex="0E3F"/>
  <outline>
    <contour>
      <point x="421" y="-120" type="line"/>
      <point x="529" y="-120" type="line"/>
      <point x="495" y="14" type="line"/>
      <point x="618" y="49"/>
      <point x="699" y="148"/>
      <point x="699" y="273" type="curve" smooth="yes"/>
      <point x="699" y="393"/>
      <point x="626" y="517"/>
      <point x="496" y="576" type="curve"/>
      <point x="514" y="603"/>
      <point x="524" y="634"/>
      <point x="524" y="668" type="curve" smooth="yes"/>
      <point x="524" y="779"/>
      <point x="427" y="889"/>
      <point x="274" y="899" type="curve"/>
      <point x="251" y="990" type="line"/>
      <point x="143" y="990" type="line"/>
      <point x="166" y="900" type="line"/>
      <point x="-54" y="900" type="line"/>
      <point x="171" y="0" type="line"/>
      <point x="391" y="0" type="line"/>
    </contour>
    <contour>
      <point x="305" y="162" type="line"/>
      <point x="228" y="468" type="line"/>
      <point x="331" y="468" type="line" smooth="yes"/>
      <point x="424" y="468"/>
      <point x="506" y="387"/>
      <point x="506" y="294" type="curve" smooth="yes"/>
      <point x="506" y="217"/>
      <point x="449" y="162"/>
      <point x="367" y="162" type="curve" smooth="yes"/>
    </contour>
    <contour>
      <point x="196" y="594" type="line"/>
      <point x="153" y="768" type="line"/>
      <point x="259" y="768" type="line" smooth="yes"/>
      <point x="312" y="768"/>
      <point x="359" y="722"/>
      <point x="359" y="669" type="curve" smooth="yes"/>
      <point x="359" y="625"/>
      <point x="326" y="594"/>
      <point x="280" y="594" type="curve" smooth="yes"/>
    </contour>
  </outline>
</glyph>
<glyph name="Germandbls" format="2">
  <advance width="990"/>
  <unicode hex="1E9E"/>
  <outline>
    <contour>
      <point x="661" y="-20" type="curve" smooth="yes"/>
      <point x="828" y="-20"/>
      <point x="959" y="104"/>
      <point x="959" y="262" type="curve" smooth="yes"/>
      <point x="959" y="413"/>
      <point x="841" y="556"/>
      <point x="686" y="592" type="curve"/>
      <point x="778" y="899" type="line"/>
      <point x="778" y="900" type="line"/>
      <point x="-54" y="900" type="line"/>
      <point x="171" y="0" type="line"/>
      <point x="356" y="0" type="line"/>
      <point x="172" y="738" type="line"/>
      <point x="569" y="738" type="line"/>
      <point x="479" y="414" type="line"/>
      <point x="480" y="413" type="line"/>
      <point x="522" y="444"/>
      <point x="563" y="458"/>
      <point x="605" y="458" type="curve" smooth="yes"/>
      <point x="705" y="458"/>
      <point x="787" y="376"/>
      <point x="787" y="282" type="curve" smooth="yes"/>
      <point x="787" y="201"/>
      <point x="725" y="142"/>
      <point x="643" y="142" type="curve" smooth="yes"/>
      <point x="563" y="142"/>
      <point x="482" y="198"/>
      <point x="443" y="279" type="curve"/>
      <point x="392" y="94" type="line"/>
      <point x="460" y="24"/>
      <point x="562" y="-20"/>
    </contour>
  </outline>
</glyph>
<glyph name="emdash" format="2">
  <advance width="1440"/>
  <unicode hex="2014"/>
  <outline>
    <contour>
      <point x="78" y="225" type="line"/>
      <point x="1398" y="225" type="line"/>
      <point x="1362" y="375" type="line"/>
      <point x="42" y="375" type="line"/>
    </contour>
  </outline>
</glyph>
<glyph name="dblverticalbar" format="2">
  <advance width="480"/>
  <unicode hex="2016"/>
  <outline>
    <contour>
      <point x="281" y="-180" type="line"/>
      <point x="395" y="-180" type="line"/>
      <point x="395" y="960" type="line"/>
      <point x="281" y="960" type="line"/>
    </contour>
    <contour>
      <point x="41" y="-180" type="line"/>
      <point x="155" y="-180" type="line"/>
      <point x="155" y="960" type="line"/>
      <point x="41" y="960" type="line"/>
    </contour>
  </outline>
</glyph>
<glyph name="quoteleft" format="2">
  <advance width="300"/>
  <unicode hex="2018"/>
  <outline>
    <contour>
      <point x="12" y="540" type="curve"/>
      <point x="180" y="540" type="line"/>
      <point x="118" y="658"/>
      <point x="104" y="777"/>
      <point x="132" y="900" type="curve"/>
      <point x="-27" y="900" type="line"/>
      <point x="-55" y="780"/>
      <point x="-41" y="655"/>
    </contour>
  </outline>
</glyph>
<glyph name="quoteright" format="2">
  <advance width="300"/>
  <unicode hex="2019"/>
  <outline>
    <contour>
      <point x="-36" y="540" type="curve"/>
      <point x="123" y="540" type="line"/>
      <point x="151" y="660"/>
      <point x="137" y="785"/>
      <point x="84" y="900" type="curve"/>
      <point x="-84" y="900" type="line"/>
      <point x="-22" y="782"/>
      <point x="-8" y="663"/>
    </contour>
  </outline>
</glyph>
<glyph name="dagger" format="2">
  <advance width="600"/>
  <unicode hex="2020"/>
  <outline>
    <contour>
      <point x="294" y="0" type="line"/>
      <point x="456" y="0" type="line"/>
      <point x="310" y="567" type="line"/>
      <point x="475" y="561" type="line"/>
      <point x="441" y="699" type="line"/>
      <point x="275" y="693" type="line"/>
      <point x="232" y="900" type="line"/>
      <point x="70" y="900" type="line"/>
      <point x="130" y="693" type="line"/>
      <point x="-39" y="699" type="line"/>
      <point x="-5" y="561" type="line"/>
      <point x="159" y="567" type="line"/>
    </contour>
  </outline>
</glyph>
